<svg width="153" height="36" viewBox="0 0 153 36" fill="none" xmlns="http://www.w3.org/2000/svg">
<path d="M19.1159 31.2889L16.8698 31.5819V35H31.8117V31.5819C29.9562 31.3866 29.6144 31.2401 28.9796 29.2381L19.9949 0.428358L9.05695 0.818996L11.0102 4.92072L3.4415 28.6033C2.66022 30.9959 1.78128 31.2889 0.0233999 31.5819V35H10.8148V31.5819C9.64291 31.5331 7.29907 31.2401 7.29907 29.1892C7.29907 28.8474 7.29907 28.5056 7.39673 28.115L8.27567 24.941H17.2604L19.1159 31.2889ZM12.768 10.2432C12.8169 10.2432 12.8657 10.1944 12.9145 10.2432L16.1373 21.1323H9.44759L12.768 10.2432Z" fill="black"/>
<path d="M30.3164 0.818996V4.2371L31.9766 4.57891L40.7172 21.1323V31.1913L37.885 31.5819V35H53.8524V31.5819L51.0203 31.1913V21.1323L56.5869 10.1944C58.003 7.41105 59.1749 4.96955 62.3977 4.2371V0.818996H50.7761V4.2371C52.4852 4.48125 53.9989 5.2137 53.9989 6.97158C53.9989 7.45988 53.7548 8.33882 53.2665 9.21776L49.4089 16.2981L43.3051 4.57891L45.5513 4.2371V0.818996H30.3164ZM77.2062 31.2889L74.96 31.5819V35H89.902V31.5819C88.0464 31.3866 87.7046 31.2401 87.0698 29.2381L78.0851 0.428358L67.1472 0.818996L69.1004 4.92072L61.5318 28.6033C60.7505 30.9959 59.8715 31.2889 58.1137 31.5819V35H68.9051V31.5819C67.7332 31.5331 65.3893 31.2401 65.3893 29.1892C65.3893 28.8474 65.3893 28.5056 65.487 28.115L66.3659 24.941H75.3506L77.2062 31.2889ZM70.8583 10.2432C70.9071 10.2432 70.9559 10.1944 71.0048 10.2432L74.2276 21.1323H67.5378L70.8583 10.2432ZM118.388 24.0132L114.921 23.1343C113.652 27.6755 110.282 31.3377 105.302 31.3377H104.081V4.57891L107.353 4.2371V0.818996H90.9458V4.2371L93.7779 4.57891V31.1913L90.9458 31.5819V35H107.011C109.697 35 113.115 35 115.751 35.7325L118.388 24.0132ZM120.799 17.9095C120.799 28.6521 127.977 35.7325 136.62 35.7325C145.263 35.7325 152.441 28.6521 152.441 17.9095C152.441 7.1669 145.263 0.0865471 136.62 0.0865471C127.977 0.0865471 120.799 7.1669 120.799 17.9095ZM136.62 3.7488C141.406 3.7488 141.65 12.587 141.65 17.9095C141.65 23.232 141.406 32.0702 136.62 32.0702C131.835 32.0702 131.591 23.232 131.591 17.9095C131.591 12.587 131.835 3.7488 136.62 3.7488Z" fill="#218EDD"/>
</svg>
