<svg width="95" height="103" viewBox="0 0 95 103" fill="none" xmlns="http://www.w3.org/2000/svg">
<path d="M91.1353 75.302L79.1667 63.3334L58.0556 49.2593H36.9444L15.8333 63.3334L3.86465 75.302C2.6394 76.5273 1.66748 77.9818 1.00438 79.5827C0.341285 81.1835 -5.379e-06 82.8993 0 84.632V95.4398C0 97.1895 0.695062 98.8676 1.93228 100.105C3.1695 101.342 4.84753 102.037 6.59722 102.037H12.3148L14.0741 100.278H80.9259L82.6852 102.037H88.4028C90.1525 102.037 91.8305 101.342 93.0677 100.105C94.3049 98.8676 95 97.1895 95 95.4398V84.632C95 82.8993 94.6587 81.1835 93.9956 79.5827C93.3325 77.9818 92.3606 76.5273 91.1353 75.302Z" fill="#134266"/>
<path d="M58.0556 49.2592L47.5001 59.8147L36.9445 49.2592L38.7038 40.4629H56.2964L58.0556 49.2592Z" fill="#FFD4CF"/>
<path d="M57.1621 44.7918L56.2963 40.4629H38.7037L37.8285 44.839L43.9472 47.8982C45.0525 48.4509 46.2719 48.7371 47.5078 48.734C48.7436 48.7308 49.9615 48.4384 51.0641 47.8801L57.1621 44.7918Z" fill="#FBB8B0"/>
<path d="M64.2129 21.111H61.574V14.074H33.4259V21.111H30.787C29.6205 21.111 28.5019 21.5744 27.677 22.3992C26.8522 23.224 26.3889 24.3427 26.3889 25.5092V27.2684C26.3889 28.4349 26.8522 29.5536 27.677 30.3784C28.5019 31.2032 29.6205 31.6666 30.787 31.6666H33.4259V34.6263C33.4259 35.8515 33.767 37.0525 34.4111 38.0947C35.0552 39.1369 35.9768 39.9791 37.0726 40.5271L45.5208 44.7511C46.1349 45.0581 46.8123 45.2171 47.4988 45.2154C48.1854 45.2137 48.862 45.0513 49.4745 44.7412L57.9574 40.4455C59.0454 39.8945 59.9593 39.0528 60.5977 38.0138C61.2361 36.9748 61.5741 35.7792 61.574 34.5597V31.6666H64.2129C65.3794 31.6666 66.4981 31.2032 67.3229 30.3784C68.1477 29.5536 68.6111 28.4349 68.6111 27.2684V25.5092C68.6111 24.3427 68.1477 23.224 67.3229 22.3992C66.4981 21.5744 65.3794 21.111 64.2129 21.111Z" fill="#FFD4CF"/>
<path d="M38.7037 22.8705H42.2223V26.389H38.7037V22.8705Z" fill="#AE7069"/>
<path d="M52.7778 22.8701H56.2963V26.3886H52.7778V22.8701Z" fill="#AE7069"/>
<path d="M47.5 38.7036C44.5405 38.7036 42.2222 36.7717 42.2222 34.3054H45.7407C45.7407 34.6155 46.4086 35.185 47.5 35.185C48.5914 35.185 49.2593 34.6155 49.2593 34.3054H52.7778C52.7778 36.7717 50.4595 38.7036 47.5 38.7036Z" fill="#AE7069"/>
<path d="M42.6621 0H52.338C55.2541 0 58.0509 1.15844 60.1129 3.22047C62.1749 5.2825 63.3334 8.07922 63.3334 10.9954V14.0741H31.6667V10.9954C31.6667 8.07922 32.8251 5.2825 34.8872 3.22047C36.9492 1.15844 39.7459 0 42.6621 0Z" fill="#134266"/>
<path d="M56.4956 20.0711L52.3793 17.3268C50.9344 16.3635 49.2366 15.8495 47.5 15.8495C45.7634 15.8495 44.0657 16.3635 42.6207 17.3268L38.5045 20.0711C37.8421 20.5126 37.0723 20.7662 36.2772 20.8046C35.4821 20.843 34.6914 20.6649 33.9895 20.2893C33.2877 19.9137 32.7009 19.3546 32.2918 18.6717C31.8827 17.9888 31.6667 17.2076 31.6667 16.4116V14.074L38.9564 10.0241C41.5698 8.57231 44.5102 7.81042 47.4998 7.81042C50.4894 7.81042 53.4298 8.57231 56.0432 10.0241L63.3334 14.074V16.4116C63.3334 17.2076 63.1173 17.9888 62.7082 18.6717C62.2991 19.3546 61.7124 19.9137 61.0105 20.2893C60.3086 20.6649 59.518 20.843 58.7228 20.8046C57.9277 20.7662 57.1579 20.5126 56.4956 20.0711Z" fill="#218EDD"/>
<path d="M76.9676 56.2961H18.0324C16.8179 56.2961 15.8334 57.2807 15.8334 58.4952V99.8378C15.8334 101.052 16.8179 102.037 18.0324 102.037H76.9676C78.1822 102.037 79.1667 101.052 79.1667 99.8378V58.4952C79.1667 57.2807 78.1822 56.2961 76.9676 56.2961Z" fill="#218EDD"/>
<path d="M19.3519 89.722H12.3148V102.037H31.6667C31.6667 98.7708 30.3692 95.6384 28.0597 93.329C25.7503 91.0195 22.6179 89.722 19.3519 89.722Z" fill="#FFD4CF"/>
<path d="M40.463 56.2961H54.5371V72.1295H40.463V56.2961Z" fill="#134266"/>
<path d="M40.463 91.4813H54.5371V102.037H40.463V91.4813Z" fill="#134266"/>
<path d="M75.6482 89.722H82.6852V102.037H63.3334C63.3334 98.7708 64.6308 95.6384 66.9403 93.329C69.2498 91.0195 72.3821 89.722 75.6482 89.722Z" fill="#FFD4CF"/>
<path d="M21.1113 61.574H24.6298V65.0925H21.1113V61.574Z" fill="#FFFFFE"/>
<path d="M28.1481 61.5741H35.1852V65.0926H28.1481V61.5741Z" fill="#FFFFFE"/>
<path d="M21.1111 68.6112H35.1852V72.1297H21.1111V68.6112Z" fill="#FFFFFE"/>
<path d="M65.9722 63.3335H72.1296V67.7316C72.1296 68.8981 71.6662 70.0168 70.8414 70.8416C70.0166 71.6664 68.8979 72.1298 67.7314 72.1298H61.574V67.7316C61.574 66.5652 62.0374 65.4465 62.8622 64.6217C63.687 63.7969 64.8057 63.3335 65.9722 63.3335Z" fill="#FFFFFE"/>
<path d="M82.6852 89.722H87.963V93.2406H82.6852V89.722Z" fill="#292525"/>
<path d="M7.03711 89.722H12.3149V93.2406H7.03711V89.722Z" fill="#292525"/>
</svg>
