<svg width="96" height="96" viewBox="0 0 96 96" fill="none" xmlns="http://www.w3.org/2000/svg">
<rect width="96" height="96" rx="15" fill="white"/>
<path d="M70.1985 36.5753C67.395 30.9885 65.5042 27.876 64.578 27.3248C63.8452 26.8913 62.5785 26.7697 60.2152 26.5755C58.446 26.4308 56.2455 26.25 55.2593 25.8637L54.3293 25.5L53.6858 26.2665C53.637 26.3228 51.3075 28.9868 48.0007 28.9868C44.673 28.9868 42.3353 26.2935 42.312 26.2657L41.6647 25.5075L40.74 25.8645C39.7537 26.2515 37.554 26.4315 35.7855 26.5755C33.4215 26.7697 32.154 26.8913 31.4235 27.324C30.4942 27.876 28.6035 30.9885 25.8015 36.5753L25.5 37.1752L25.764 37.794C28.239 43.6087 34.0755 44.8875 34.323 44.9393L35.097 45.1005L34.3065 66.132L34.2743 66.996L35.0115 67.4272C42.0075 71.523 53.9903 71.523 60.987 67.4272L61.7243 66.996L61.6912 66.132L60.9007 45.1005L61.6748 44.9393C61.9223 44.8875 67.7588 43.6087 70.2345 37.794L70.5 37.1752L70.1985 36.5753ZM66.423 38.7675C64.8187 40.824 62.8455 41.9618 60.5467 42.1597L59.3085 40.1962L60.2858 66.186C53.4915 70.1632 42.5085 70.164 35.7135 66.186L36.69 40.1962L35.4945 42.1125C33.1973 41.9145 31.2225 40.7753 29.6205 38.721C28.8982 37.7828 28.3061 36.7512 27.8602 35.6542L27.813 35.7443C29.0333 33.39 31.374 29.0108 32.1323 28.56C33.0555 28.0125 37.7587 28.044 40.3552 27.453C41.0514 28.1616 41.8159 28.7997 42.6375 29.358C43.3981 29.8731 44.2164 30.2972 45.0758 30.6218C46.1145 31.0073 47.1577 31.2022 48.1838 31.2022H48.2137C49.455 31.1962 50.6737 30.906 51.8377 30.336C53.1225 29.7075 54.3533 28.7265 55.5052 27.4245C58.0718 28.0462 62.9272 28.0027 63.867 28.56C64.6222 29.01 66.951 33.3615 68.175 35.7218C67.7311 36.8114 67.1418 37.836 66.423 38.7675Z" fill="#404040"/>
</svg>
