<svg width="96" height="96" viewBox="0 0 96 96" fill="none" xmlns="http://www.w3.org/2000/svg">
<rect width="96" height="96" rx="15" fill="white"/>
<path d="M59.4022 58.5767C60.5492 58.5767 61.479 57.647 61.479 56.5C61.479 55.353 60.5492 54.4232 59.4022 54.4232C58.2552 54.4232 57.3254 55.353 57.3254 56.5C57.3254 57.647 58.2552 58.5767 59.4022 58.5767Z" fill="#404040"/>
<path d="M70.5 51.9258L70.2893 51.4345C69.1035 48.6752 67.068 46.564 64.5667 45.3468L63.03 33.5613H63.2152C63.7687 33.5613 64.4295 33.337 64.4295 32.269V30.7922C64.4295 29.7242 63.7687 29.5 63.2152 29.5H45.3503C44.796 29.5 44.1353 29.7242 44.1353 30.7922V32.269C44.1353 33.337 44.796 33.5613 45.3503 33.5613H45.3975L44.3752 41.3995L28.7977 43.759L28.6635 43.9172C28.1265 44.5517 27.267 46.5107 26.8837 47.4182V40.6923H25.5V51.0768H26.8837V50.4408C27.0008 50.4408 27.1148 50.4535 27.2265 50.4715L27.213 52.492C27.2002 52.5017 27.1867 52.5077 27.174 52.5168H25.5V54.685H27.5197C26.8834 55.2669 26.3752 55.975 26.0275 56.7641C25.6798 57.5531 25.5001 58.406 25.5 59.2683C25.5 62.7115 28.2885 65.5 31.7273 65.5C35.0723 65.5 37.7955 62.8585 37.9403 59.5442H39.7455C39.753 59.4047 39.7522 59.2682 39.753 59.131H50.8005C51.9255 62.8172 55.3507 65.5 59.4022 65.5C64.3687 65.5 68.3962 61.4702 68.3962 56.5C68.3962 55.339 68.169 54.2342 67.7692 53.2142L70.5 51.9258ZM27.2348 49.0818C27.1185 49.0698 27.003 49.0555 26.8837 49.0555V48.6228H27.2377L27.2348 49.0818ZM45.3503 32.4535C45.3182 32.4539 45.2861 32.4521 45.2542 32.4482C45.2444 32.389 45.2402 32.329 45.2415 32.269V30.7922C45.2415 30.7037 45.2475 30.6468 45.2542 30.613C45.2861 30.6091 45.3182 30.6074 45.3503 30.6078H63.2152C63.2471 30.6074 63.2789 30.6091 63.3105 30.613C63.3165 30.6468 63.3232 30.7037 63.3232 30.7922V32.269C63.3232 32.3575 63.3165 32.4145 63.3105 32.4482C63.2789 32.4521 63.2471 32.4539 63.2152 32.4535H45.3503ZM56.2717 43.0923C54.372 45.8088 50.7967 43.3877 50.7967 46.8078H45.564L46.9478 33.6542H47.8275V35.0035C47.6505 35.1185 47.505 35.2758 47.4043 35.4613C47.3036 35.6468 47.2508 35.8544 47.2507 36.0655V40.7388C47.2507 41.0749 47.3843 41.3973 47.622 41.635C47.8597 41.8727 48.1821 42.0062 48.5183 42.0062C48.8544 42.0062 49.1768 41.8727 49.4145 41.635C49.6522 41.3973 49.7858 41.0749 49.7858 40.7388V36.0655C49.7859 35.899 49.7533 35.7341 49.6898 35.5802C49.6262 35.4263 49.5329 35.2864 49.4153 35.1685C49.2977 35.0507 49.158 34.9572 49.0042 34.8933C48.8504 34.8295 48.6855 34.7966 48.519 34.7965V33.6542H61.4768L62.6295 44.6162C61.5918 44.3251 60.5191 44.1772 59.4412 44.1768L59.4007 44.1782V37.6893C55.5742 37.6885 57.7087 41.0298 56.2717 43.0923ZM29.3925 44.7887L44.3182 42.5282V47.5143H28.0462C28.4783 46.5145 29.04 45.313 29.3925 44.7887ZM28.3297 51.0422C28.5023 51.2104 28.6446 51.407 28.7505 51.6235C28.6065 51.685 28.4662 51.7638 28.3245 51.8342L28.3297 51.0422ZM31.7273 62.7302C31.2728 62.7302 30.8229 62.6405 30.4031 62.4665C29.9834 62.2925 29.602 62.0375 29.2808 61.7161C28.9596 61.3947 28.7048 61.0132 28.5311 60.5933C28.3574 60.1734 28.2681 59.7234 28.2682 59.269C28.2615 58.8104 28.346 58.3551 28.5168 57.9295C28.6876 57.5038 28.9414 57.1164 29.2633 56.7897C29.5852 56.463 29.9688 56.2036 30.3919 56.0266C30.8149 55.8495 31.269 55.7583 31.7276 55.7583C32.1863 55.7583 32.6403 55.8495 33.0634 56.0266C33.4864 56.2036 33.8701 56.463 34.192 56.7897C34.5139 57.1164 34.7676 57.5038 34.9384 57.9295C35.1093 58.3551 35.1938 58.8104 35.187 59.269C35.1868 60.1867 34.8223 61.0667 34.1735 61.7157C33.5248 62.3647 32.6449 62.7297 31.7273 62.7302ZM50.5462 58.0225H39.6885C39.3592 55.3472 37.785 53.098 35.337 51.8898C33.6353 51.0505 31.8098 50.8158 30.0803 51.1975C29.7478 50.3957 29.127 49.7477 28.3403 49.381L28.341 49.228H43.3148L46.5487 53.9358H50.7832C50.535 54.7676 50.4087 55.6311 50.4082 56.4993C50.4082 57.0198 50.4615 57.5267 50.5462 58.0225ZM59.4022 61.3457C58.1177 61.3454 56.886 60.8348 55.9778 59.9264C55.0697 59.0179 54.5595 57.786 54.5595 56.5015C54.5591 55.8652 54.6841 55.235 54.9272 54.647C55.1704 54.059 55.527 53.5246 55.9767 53.0744C56.4264 52.6242 56.9604 52.267 57.5481 52.0232C58.1359 51.7794 58.7659 51.6538 59.4022 51.6535C60.6771 51.6694 61.8943 52.1869 62.7902 53.094C63.6861 54.0011 64.1885 55.2247 64.1885 56.4996C64.1885 57.7746 63.6861 58.9981 62.7902 59.9052C61.8943 60.8123 60.6771 61.3299 59.4022 61.3457ZM59.4427 47.1077C56.0842 47.1077 53.0212 49.0735 51.327 52.2775L49.7347 51.4105C51.513 47.5645 55.107 45.2853 59.4427 45.2853C63.6495 45.2853 67.2045 47.5547 69.051 51.3865L67.4812 52.1275C65.7697 49.0157 62.7352 47.1077 59.4427 47.1077Z" fill="#404040"/>
<path d="M31.7273 60.6535C32.4919 60.6535 33.1118 60.0336 33.1118 59.269C33.1118 58.5044 32.4919 57.8845 31.7273 57.8845C30.9626 57.8845 30.3428 58.5044 30.3428 59.269C30.3428 60.0336 30.9626 60.6535 31.7273 60.6535Z" fill="#404040"/>
</svg>
