<svg width="96" height="96" viewBox="0 0 96 96" fill="none" xmlns="http://www.w3.org/2000/svg">
<rect width="96" height="96" rx="15" fill="white"/>
<path d="M65.144 42.312L62.408 34.102C62.0111 32.907 61.2477 31.8674 60.2262 31.131C59.2048 30.3946 57.9772 29.9989 56.718 30H38.482C37.2228 29.9989 35.9952 30.3946 34.9737 31.131C33.9523 31.8674 33.1889 32.907 32.792 34.102L30.056 42.312C29.3292 42.617 28.7085 43.1295 28.2717 43.7855C27.8348 44.4415 27.6012 45.2118 27.6 46V56C27.6 57.506 28.446 58.804 29.678 59.486C29.652 59.618 29.6 59.738 29.6 59.876V64C29.6 64.5304 29.8107 65.0392 30.1858 65.4142C30.5608 65.7893 31.0695 66 31.6 66H33.6C34.1304 66 34.6391 65.7893 35.0142 65.4142C35.3893 65.0392 35.6 64.5304 35.6 64V60H59.6V64C59.6 64.5304 59.8107 65.0392 60.1858 65.4142C60.5608 65.7893 61.0695 66 61.6 66H63.6C64.1304 66 64.6391 65.7893 65.0142 65.4142C65.3893 65.0392 65.6 64.5304 65.6 64V59.876C65.6 59.738 65.548 59.616 65.522 59.486C66.1488 59.1443 66.6723 58.6405 67.0379 58.0273C67.4034 57.414 67.5975 56.7139 67.6 56V46C67.6 44.342 66.584 42.918 65.144 42.312ZM31.6 56V46H63.6L63.604 56H31.6ZM38.482 34H56.716C57.578 34 58.342 34.548 58.614 35.368L60.826 42H34.374L36.584 35.368C36.7167 34.9696 36.9714 34.6231 37.3121 34.3775C37.6527 34.132 38.062 33.9999 38.482 34Z" fill="#404040"/>
<path d="M37 56C38.6569 56 40 54.6569 40 53C40 51.3431 38.6569 50 37 50C35.3431 50 34 51.3431 34 53C34 54.6569 35.3431 56 37 56Z" fill="#404040"/>
<path d="M59 56C60.6569 56 62 54.6569 62 53C62 51.3431 60.6569 50 59 50C57.3431 50 56 51.3431 56 53C56 54.6569 57.3431 56 59 56Z" fill="#404040"/>
</svg>
