<svg width="63" height="56" viewBox="0 0 63 56" fill="none" xmlns="http://www.w3.org/2000/svg">
<path d="M36.0665 44.333C35.6769 44.3342 35.292 44.2573 34.94 44.1079C34.588 43.9585 34.2778 43.7404 34.0324 43.4697L21.4365 29.4697C21.0529 29.0522 20.8433 28.5285 20.8433 27.988C20.8433 27.4476 21.0529 26.9239 21.4365 26.5064L34.4757 12.5064C34.9184 12.0299 35.5545 11.7302 36.244 11.6733C36.9336 11.6164 37.6202 11.807 38.1528 12.203C38.6854 12.5991 39.0203 13.1682 39.0838 13.7852C39.1474 14.4022 38.9345 15.0165 38.4918 15.493L26.8348 27.9997L38.1006 40.5064C38.4195 40.8489 38.6221 41.2659 38.6844 41.7082C38.7466 42.1505 38.666 42.5995 38.452 43.0021C38.238 43.4046 37.8996 43.7439 37.4769 43.9798C37.0541 44.2157 36.5647 44.3383 36.0665 44.333Z" fill="black"/>
</svg>
