<svg width="63" height="56" viewBox="0 0 63 56" fill="none" xmlns="http://www.w3.org/2000/svg">
<path d="M26.5219 44.333C26.9115 44.3342 27.2964 44.2573 27.6484 44.1079C28.0004 43.9585 28.3105 43.7404 28.556 43.4697L41.1519 29.4697C41.5354 29.0522 41.7451 28.5285 41.7451 27.988C41.7451 27.4476 41.5354 26.9239 41.1519 26.5064L28.1126 12.5064C27.67 12.0299 27.0339 11.7302 26.3443 11.6733C25.6547 11.6164 24.9682 11.807 24.4356 12.203C23.903 12.5991 23.5681 13.1682 23.5045 13.7852C23.441 14.4022 23.6539 15.0165 24.0966 15.493L35.7536 27.9997L24.4877 40.5064C24.1689 40.8489 23.9663 41.2659 23.904 41.7082C23.8417 42.1505 23.9224 42.5995 24.1363 43.0021C24.3503 43.4046 24.6887 43.7439 25.1115 43.9798C25.5342 44.2157 26.0237 44.3383 26.5219 44.333Z" fill="black"/>
</svg>
