<svg width="37" height="36" viewBox="0 0 37 36" fill="none" xmlns="http://www.w3.org/2000/svg">
<rect x="1" y="1" width="35" height="34" rx="9" fill="white" stroke="#666666" stroke-width="2"/>
<path d="M26.8423 13.2395C27.6963 12.6354 28.4146 11.8813 29 11.013V11.0121C28.2186 11.353 27.3874 11.5796 26.5194 11.6895C27.4119 11.1586 28.0935 10.3243 28.4137 9.31908C27.5816 9.81338 26.6629 10.1621 25.6838 10.3574C24.8936 9.51872 23.7675 9 22.539 9C20.1555 9 18.2366 10.9275 18.2366 13.2901C18.2366 13.6301 18.2655 13.957 18.3364 14.2683C14.7576 14.0939 11.5901 12.3852 9.46213 9.78113C9.09113 10.4236 8.87238 11.1586 8.87238 11.9493C8.87238 13.4348 9.63975 14.7512 10.7851 15.5141C10.093 15.501 9.41488 15.3005 8.84 14.9857V15.0328C8.84 17.1173 10.3319 18.8487 12.2892 19.2479C11.9384 19.3438 11.5569 19.3892 11.1605 19.3892C10.8849 19.3892 10.6066 19.3735 10.3459 19.3159C10.9032 21.0142 12.487 22.2635 14.3682 22.3045C12.9035 23.4456 11.0433 24.1335 9.02988 24.1335C8.67725 24.1335 8.33862 24.1178 8 24.0751C9.9075 25.2999 12.1667 26 14.6045 26C22.2021 26 27.1537 19.6847 26.8423 13.2395Z" fill="black"/>
</svg>
