<svg width="24" height="24" viewBox="0 0 24 24" fill="none" xmlns="http://www.w3.org/2000/svg">
<g clip-path="url(#clip0)">
<path d="M7.5 6C5.9087 6 4.38258 6.63214 3.25736 7.75736C2.13214 8.88258 1.5 10.4087 1.5 12C1.5 13.5913 2.13214 15.1174 3.25736 16.2426C4.38258 17.3679 5.9087 18 7.5 18H12C11.0678 17.302 10.3113 16.3963 9.79053 15.3547C9.26974 14.3132 8.99907 13.1645 9 12C8.99907 10.8355 9.26974 9.68683 9.79053 8.64526C10.3113 7.6037 11.0678 6.69795 12 6H7.5ZM16.5 18C18.0913 18 19.6174 17.3679 20.7426 16.2426C21.8679 15.1174 22.5 13.5913 22.5 12C22.5 10.4087 21.8679 8.88258 20.7426 7.75736C19.6174 6.63214 18.0913 6 16.5 6C14.9087 6 13.3826 6.63214 12.2574 7.75736C11.1321 8.88258 10.5 10.4087 10.5 12C10.5 13.5913 11.1321 15.1174 12.2574 16.2426C13.3826 17.3679 14.9087 18 16.5 18ZM24 12C24 13.9891 23.2098 15.8968 21.8033 17.3033C20.3968 18.7098 18.4891 19.5 16.5 19.5H7.5C5.51088 19.5 3.60322 18.7098 2.1967 17.3033C0.790176 15.8968 0 13.9891 0 12C0 10.0109 0.790176 8.10322 2.1967 6.6967C3.60322 5.29018 5.51088 4.5 7.5 4.5H16.5C18.4891 4.5 20.3968 5.29018 21.8033 6.6967C23.2098 8.10322 24 10.0109 24 12Z" fill="#218EDD"/>
</g>
<defs>
<clipPath id="clip0">
<rect width="24" height="24" fill="white" transform="matrix(-1 0 0 1 24 0)"/>
</clipPath>
</defs>
</svg>
