<svg width="96" height="96" viewBox="0 0 96 96" fill="none" xmlns="http://www.w3.org/2000/svg">
<rect width="96" height="96" rx="15" fill="white"/>
<path d="M59.2848 31.3424C59.6439 31.2303 60.0245 31.2042 60.3956 31.2662C60.7667 31.3282 61.1181 31.4767 61.4213 31.6995C61.7245 31.9224 61.971 32.2134 62.141 32.5491C62.3111 32.8848 62.3997 33.2557 62.4 33.632V58.4C62.4 59.7516 61.9436 61.0636 61.1048 62.1235C60.266 63.1834 59.0939 63.929 57.7785 64.2395C56.463 64.55 55.0812 64.4073 53.857 63.8345C52.6328 63.2616 51.6379 62.2922 51.0334 61.0833C50.4289 59.8744 50.2504 58.4968 50.5266 57.1737C50.8029 55.8506 51.5178 54.6595 52.5555 53.7935C53.5932 52.9275 54.8929 52.4372 56.2441 52.402C57.5952 52.3669 58.9187 52.789 60 53.6V40.832L43.2 46.0832V63.2C43.2 64.5516 42.7436 65.8636 41.9048 66.9235C41.066 67.9834 39.8939 68.729 38.5785 69.0395C37.263 69.35 35.8812 69.2073 34.657 68.6345C33.4328 68.0616 32.4379 67.0922 31.8334 65.8833C31.2289 64.6744 31.0504 63.2968 31.3266 61.9737C31.6029 60.6506 32.3178 59.4595 33.3555 58.5935C34.3932 57.7274 35.6929 57.2372 37.0441 57.202C38.3952 57.1669 39.7187 57.589 40.8 58.4V38.8832C40.7997 38.3715 40.9631 37.873 41.2662 37.4607C41.5693 37.0484 41.9963 36.7437 42.4848 36.5912L59.2848 31.3424ZM43.2 43.568L60 38.3168V33.632L43.2 38.8832V43.568ZM37.2 59.6C36.2452 59.6 35.3295 59.9793 34.6544 60.6544C33.9792 61.3296 33.6 62.2452 33.6 63.2C33.6 64.1548 33.9792 65.0705 34.6544 65.7456C35.3295 66.4207 36.2452 66.8 37.2 66.8C38.1547 66.8 39.0704 66.4207 39.7455 65.7456C40.4207 65.0705 40.8 64.1548 40.8 63.2C40.8 62.2452 40.4207 61.3296 39.7455 60.6544C39.0704 59.9793 38.1547 59.6 37.2 59.6ZM52.8 58.4C52.8 59.3548 53.1792 60.2705 53.8544 60.9456C54.5295 61.6207 55.4452 62 56.4 62C57.3547 62 58.2704 61.6207 58.9455 60.9456C59.6207 60.2705 60 59.3548 60 58.4C60 57.4452 59.6207 56.5296 58.9455 55.8544C58.2704 55.1793 57.3547 54.8 56.4 54.8C55.4452 54.8 54.5295 55.1793 53.8544 55.8544C53.1792 56.5296 52.8 57.4452 52.8 58.4Z" fill="#404040"/>
</svg>
