<svg width="383" height="393" viewBox="0 0 383 393" fill="none" xmlns="http://www.w3.org/2000/svg">
<path d="M339.512 286.278C330.295 295.267 322.047 300.551 315.733 304.538C254.149 343.44 183.752 332.227 161.987 328.395C126.872 322.212 97.2303 317.85 71.7624 296.083C13.89 246.621 16.7055 143.437 60.925 79.5198C66.1676 71.941 110.321 10.0232 180.87 1.29826C182.596 1.08456 183.884 0.963712 185.012 0.850501C195.926 -0.242181 263.556 -6.01215 318.703 37.6964C326.597 43.9536 339.301 55.2391 351.081 72.451C394.155 135.386 394.292 232.86 339.512 286.278Z" fill="url(#paint0_linear)" fill-opacity="0.5"/>
<path d="M284.451 163.124L315.863 156.206C315.863 156.206 336.866 154.42 339.706 172.08C342.546 189.739 341.723 294.367 340.834 315.945C340.541 323.057 340.577 329.628 341.217 335.359C342.55 347.294 332.706 357.72 320.021 357.928L261.542 358.886L284.451 163.124Z" fill="url(#paint1_linear)"/>
<path d="M267.739 367.389C267.739 367.389 274.014 284.148 318.647 233.406C319.229 232.745 320.236 232.91 320.544 233.724C325.407 246.578 352.744 329.239 267.739 367.389Z" fill="#BDD0FB"/>
<path d="M316.719 257.562C316.343 262.419 315.601 267.21 314.739 271.994C313.849 276.771 312.803 281.522 311.571 286.234C309.114 295.657 306.042 304.949 302.262 313.992C300.357 318.507 298.336 322.982 296.075 327.35C294.979 329.549 293.755 331.691 292.583 333.855C291.336 335.983 290.121 338.127 288.772 340.2C283.548 348.576 277.429 356.471 270.444 363.575C270.236 363.786 269.886 363.799 269.662 363.602C269.45 363.416 269.428 363.112 269.598 362.9L269.604 362.893C275.82 355.271 281.42 347.259 286.277 338.848C287.528 336.767 288.642 334.612 289.834 332.5C290.942 330.346 292.1 328.216 293.131 326.028C293.649 324.936 294.211 323.862 294.713 322.762L296.241 319.472C296.743 318.372 297.214 317.26 297.7 316.155C298.194 315.052 298.654 313.935 299.108 312.817C300.052 310.593 300.929 308.344 301.815 306.098C302.659 303.837 303.504 301.577 304.293 299.298C305.921 294.754 307.368 290.153 308.765 285.537C310.132 280.913 311.404 276.258 312.546 271.575C313.71 266.897 314.743 262.174 315.621 257.45L315.624 257.435C315.676 257.15 315.964 256.959 316.265 257.01C316.546 257.054 316.74 257.297 316.719 257.562Z" fill="url(#paint2_linear)"/>
<path d="M273.27 358.277C273.27 358.277 319.281 285.06 369.338 283.914C370.227 283.893 370.901 284.665 370.718 285.487C368.587 295.058 353.683 345.157 273.27 358.277Z" fill="#91B3FA"/>
<path d="M358.74 295.53C355.707 298.542 352.583 301.441 349.417 304.311C347.818 305.728 346.218 307.143 344.602 308.544C342.972 309.928 341.36 311.333 339.714 312.701C333.146 318.188 326.372 323.459 319.42 328.509C315.971 331.067 312.397 333.469 308.872 335.931L303.477 339.486C302.576 340.076 301.682 340.676 300.772 341.252L298.02 342.951C290.745 347.583 283.144 351.735 275.49 355.767C275.222 355.908 274.886 355.817 274.737 355.565C274.59 355.315 274.682 355.003 274.94 354.859L274.955 354.851L280.603 351.717L283.427 350.15C284.36 349.614 285.276 349.052 286.201 348.505L291.75 345.218C293.579 344.092 295.386 342.932 297.204 341.791L299.928 340.074L302.609 338.298L307.968 334.74C311.472 332.278 315.022 329.873 318.449 327.314C321.922 324.812 325.319 322.217 328.718 319.626L333.752 315.663L338.724 311.631C340.381 310.285 342.001 308.903 343.642 307.539C345.267 306.16 346.877 304.766 348.486 303.371C351.69 300.569 354.876 297.732 357.935 294.805L357.943 294.797C358.158 294.591 358.507 294.59 358.725 294.793C358.943 294.998 358.947 295.324 358.74 295.53Z" fill="#BDD0FB"/>
<path d="M220.591 164.561C220.591 164.561 277.787 167.534 315.861 156.206C315.861 156.206 290.55 154.565 290.55 209.85C290.55 252.119 297.176 332.798 291.39 348.114C285.604 363.429 263.971 384.016 232.959 366.323C201.949 348.63 220.591 164.561 220.591 164.561Z" fill="#7D97F4"/>
<path d="M205.385 81.6746C205.385 81.6746 268.492 88.1824 276.621 78.0633C276.621 78.0633 270.154 59.8515 250.949 61.0625C231.744 62.2735 205.385 81.6746 205.385 81.6746Z" fill="url(#paint3_linear)"/>
<path d="M0.138438 102.165C5.64184 160.672 17.1999 284.425 22.2287 344.708C23.3501 358.147 34.7361 368.763 48.9564 369.626C99.6125 372.702 213.614 378.671 257.362 373.118C247.341 368.445 241.03 358.757 241.121 348.187L243.445 77.6805C243.527 68.1224 253.589 61.2534 263.051 64.6078C269.012 66.7206 273.526 71.2224 276.621 78.0647C272.49 66.6774 265.995 58.3468 250.949 61.0639C250.949 61.0639 103.801 62.4555 32.3951 66.6443C12.9941 67.7815 -1.58533 83.8461 0.138438 102.165Z" fill="#91B3FA"/>
<mask id="mask0" mask-type="alpha" maskUnits="userSpaceOnUse" x="5" y="67" width="239" height="305">
<path d="M36.5394 74.3858L234.263 67.1848C226.108 124.301 229.55 240.615 232.661 355.243C232.845 362.039 237.058 368.154 243.555 371.06C243.555 371.06 111.675 372.497 55.0087 368.695C41.6663 367.8 30.7819 358.249 28.7999 345.735C21.0215 296.623 2.40968 169.749 6.28344 102.581C7.16952 87.1978 20.2685 74.9786 36.5394 74.3858Z" fill="url(#paint4_linear)"/>
</mask>
<g mask="url(#mask0)">
<path opacity="0.53" d="M36.5394 74.3858L234.263 67.1848C226.108 124.301 229.55 240.615 232.661 355.243C232.845 362.039 237.058 368.154 243.555 371.06C243.555 371.06 111.675 372.497 55.0087 368.695C41.6663 367.8 30.7819 358.249 28.7999 345.735C21.0215 296.623 2.40968 169.749 6.28344 102.581C7.16952 87.1978 20.2685 74.9786 36.5394 74.3858Z" fill="url(#paint5_linear)"/>
<path d="M33.9224 162.98L36.2298 183.931C36.6533 187.772 39.9959 190.734 44.0741 190.882L56.9687 191.35C61.6196 191.519 65.4867 187.998 65.4867 183.594V160.993C65.4867 156.455 61.3911 152.886 56.611 153.257L41.4091 154.439C36.8241 154.797 33.4451 158.651 33.9224 162.98Z" fill="url(#paint6_linear)"/>
<path d="M79.2663 156.522C100.727 155.891 183.113 153.357 203.916 152.716C206.541 152.635 208.71 154.625 208.71 157.109C208.71 159.474 206.733 161.414 204.235 161.502L79.6657 165.877C77.2656 165.961 75.1936 164.303 74.8857 162.05L74.8077 161.48C74.4541 158.904 76.522 156.602 79.2663 156.522Z" fill="url(#paint7_linear)"/>
<path d="M77.9175 184.143C78.2819 184.72 78.9462 185.069 79.6574 185.055L165.193 183.297C166.268 183.275 167.127 182.445 167.127 181.427V176.092C167.127 175.032 166.197 174.184 165.077 174.223L81.9258 177.164C78.2228 177.297 76.0203 181.132 77.9175 184.143Z" fill="url(#paint8_linear)"/>
<path d="M33.9224 221.129L36.2298 242.081C36.6533 245.921 39.9959 248.884 44.0741 249.031L56.9687 249.499C61.6196 249.669 65.4867 246.148 65.4867 241.744V219.141C65.4867 214.604 61.3911 211.034 56.611 211.406L41.4091 212.587C36.8241 212.947 33.4451 216.8 33.9224 221.129Z" fill="url(#paint9_linear)"/>
<path d="M79.2663 214.671C100.727 214.04 183.113 211.506 203.916 210.865C206.541 210.784 208.71 212.774 208.71 215.259C208.71 217.623 206.733 219.563 204.235 219.651L79.6657 224.026C77.2656 224.11 75.1936 222.451 74.8857 220.198L74.8077 219.628C74.4541 217.054 76.522 214.752 79.2663 214.671Z" fill="url(#paint10_linear)"/>
<path opacity="0.78" d="M77.9175 242.293C78.2819 242.871 78.9462 243.219 79.6574 243.205L165.193 241.447C166.268 241.426 167.127 240.595 167.127 239.579V234.244C167.127 233.184 166.197 232.336 165.077 232.375L81.9258 235.316C78.2228 235.446 76.0203 239.281 77.9175 242.293Z" fill="white"/>
<path d="M33.9224 279.281L36.2298 300.232C36.6533 304.073 39.9959 307.035 44.0741 307.183L56.9687 307.651C61.6196 307.82 65.4867 304.299 65.4867 299.895V277.293C65.4867 272.755 61.3911 269.186 56.611 269.557L41.4091 270.739C36.8241 271.098 33.4451 274.951 33.9224 279.281Z" fill="url(#paint11_linear)"/>
<path d="M79.2663 272.822C100.727 272.192 183.113 269.658 203.916 269.017C206.541 268.936 208.71 270.926 208.71 273.41C208.71 275.775 206.733 277.715 204.235 277.803L79.6657 282.177C77.2656 282.261 75.1936 280.602 74.8857 278.35L74.8077 277.78C74.4541 275.205 76.522 272.903 79.2663 272.822Z" fill="url(#paint12_linear)"/>
<path d="M77.9175 300.444C78.2819 301.021 78.9462 301.37 79.6574 301.356L165.193 299.598C166.268 299.576 167.127 298.745 167.127 297.729V292.394C167.127 291.335 166.197 290.486 165.077 290.526L81.9258 293.467C78.2228 293.598 76.0203 297.433 77.9175 300.444Z" fill="url(#paint13_linear)"/>
<path d="M142.928 359.545C141.952 359.545 140.976 359.109 139.943 358.212C136.153 354.918 135.174 349.854 134.908 345.038C133.158 346.89 131.369 348.693 129.599 350.477L128.62 349.608C130.698 347.513 132.805 345.39 134.836 343.197C134.668 336.6 134.99 329.933 135.792 323.376C136.285 319.355 136.994 315.101 138.837 311.22C139.424 309.983 140.398 308.21 142.074 307.1C143.824 305.943 146.116 305.817 147.652 306.793C149.377 307.889 149.842 309.968 150.041 311.435C151.213 320.062 147.656 327.971 144.465 333.084C142.096 336.881 139.228 340.355 136.19 343.659C136.348 348.589 137.07 353.99 140.851 357.276C141.647 357.968 142.341 358.296 142.99 358.273C144.056 358.236 144.918 357.258 145.621 356.307C148.817 351.975 151.304 347.279 153.042 342.299C153.245 340.8 153.688 339.33 154.361 337.959L155.622 338.376C155.257 339.798 154.834 341.2 154.357 342.58C154.18 343.991 154.233 345.427 154.529 346.822C154.687 347.564 155.348 350.011 157.257 350.355C158.683 350.609 160.167 349.59 161.808 347.232L168.53 337.563L167.681 341.024C167.381 342.247 166.878 345.165 168.681 345.866C169.707 346.265 170.792 345.688 172.048 345.017C173.297 344.352 174.586 343.663 176.053 343.848L176.746 343.936L176.628 344.586C176.559 344.959 176.016 348.232 177.811 348.607C178.632 348.78 179.319 348.241 180.355 347.335C181.168 346.623 182.01 345.887 183.118 345.633L183.434 346.868C182.666 347.044 181.987 347.638 181.268 348.267C180.246 349.162 179.091 350.174 177.522 349.847C175.478 349.42 174.976 347.242 175.197 345.116C174.392 345.227 173.569 345.666 172.708 346.125C171.345 346.852 169.798 347.675 168.171 347.041C166.828 346.518 166.101 345.256 166.046 343.45L162.93 347.93C161.673 349.739 159.694 352.09 157.006 351.604C155.161 351.272 153.743 349.578 153.212 347.073C153.138 346.724 153.077 346.372 153.031 346.02C151.383 349.893 149.273 353.578 146.721 357.035C145.881 358.174 144.703 359.488 143.038 359.545C143.003 359.544 142.966 359.545 142.928 359.545ZM145.266 307.399C144.384 307.399 143.493 307.712 142.846 308.141C141.442 309.069 140.586 310.64 140.063 311.741C138.296 315.464 137.608 319.604 137.128 323.522C136.388 329.553 136.061 335.679 136.151 341.756C138.781 338.821 141.246 335.748 143.311 332.438C146.396 327.495 149.837 319.867 148.713 311.597C148.448 309.655 147.874 308.463 146.905 307.847C146.407 307.53 145.838 307.399 145.266 307.399Z" fill="url(#paint14_linear)"/>
<path opacity="0.78" d="M201.86 130.341L44.3479 134.763C38.6899 134.922 33.9381 130.768 33.6611 125.419L33.083 114.272C32.7979 108.763 37.3587 104.108 43.1875 103.963L201.483 100.003C207.402 99.8558 212.255 104.408 212.147 110.008L211.943 120.693C211.842 125.939 207.404 130.185 201.86 130.341Z" fill="white"/>
</g>
<path d="M152.243 247.746C152.243 247.746 146.99 244.486 146.262 245.237C146.003 245.505 145.399 246.414 144.836 247.406C144.438 248.106 144.561 248.968 145.145 249.539L146.499 250.864C147.79 252.126 149.973 252.035 151.112 250.649C151.686 249.949 152.145 249.006 152.243 247.746Z" fill="url(#paint15_linear)"/>
<path d="M157.601 241.552C157.601 241.552 155.798 237.062 153.692 237.474C151.587 237.885 149.282 239.415 149.282 239.415L145.899 243.744C145.899 243.744 155.396 247.283 158.736 245.255C158.736 245.255 168.436 246.842 180.686 244.94C178.913 241.399 177.856 237.852 177.236 235.099C171.031 238.422 164.348 240.904 157.601 241.552Z" fill="url(#paint16_linear)"/>
<path d="M208.984 208.986C208.984 208.986 195.096 225.535 177.234 235.099C177.856 237.852 178.913 241.397 180.685 244.94C189.95 243.501 200.673 240.069 209.764 232.442L208.984 208.986Z" fill="url(#paint17_linear)"/>
<path d="M226.305 282.335C223.588 270.13 220.872 263.064 211.778 239.929C208.915 232.649 206.317 225.283 207.573 217.606L208.984 208.985C208.984 208.985 226.658 203.327 246.249 208.747C246.249 208.747 272.978 219.733 254.823 273.984C246.64 282.645 237.063 285.114 226.305 282.335Z" fill="url(#paint18_linear)"/>
<path d="M211.993 197.982L216.576 208.398C216.865 209.055 217.491 209.525 218.233 209.644C220.876 210.073 227.266 210.742 231.463 208.132C231.963 207.82 232.091 207.178 231.748 206.714L223.281 195.213L211.993 197.982Z" fill="url(#paint19_linear)"/>
<path d="M216.733 182.046C216.54 182.218 208.61 196.951 208.61 196.951L217.598 201.056L227.308 188.148C227.308 188.148 219.954 179.177 216.733 182.046Z" fill="url(#paint20_linear)"/>
<path d="M223.223 189.697L218.74 196.767C218.671 196.874 218.591 196.972 218.494 197.057C217.96 197.527 216.134 198.894 214.722 197.033C213.519 195.447 212.391 194.006 211.181 193.411C210.475 193.063 209.605 193.341 209.246 194.013C208.508 195.399 207.077 198.221 206.178 200.899C205.952 201.569 206.319 202.291 207.009 202.555C208.829 203.252 212.426 204.514 215.618 204.931C216.142 205 216.661 204.79 216.973 204.386C218.346 202.606 222.217 197.631 223.539 196.387C224.767 195.231 227.031 195.666 228.053 195.944C228.44 196.05 228.853 195.999 229.198 195.802C230.234 195.212 232.041 193.743 230.388 191.254C229.977 190.636 230.187 189.812 230.832 189.41C231.988 188.69 233.243 187.34 232.047 185.152C230.837 182.938 228.677 182.739 227.204 182.91C226.553 182.985 225.892 182.662 225.642 182.088C225.53 181.832 225.311 181.615 224.902 181.537C224.131 181.39 223.625 180.722 223.776 179.991C224.035 178.738 223.84 177.109 221.725 176.01C217.847 173.993 214.449 177.28 213.586 180.054C212.722 182.828 217.059 184.79 219.786 185.117C221.79 185.357 222.888 187.426 223.33 188.507C223.49 188.899 223.452 189.336 223.223 189.697Z" fill="url(#paint21_linear)"/>
<path d="M221.651 198.501C221.651 198.501 223.58 194.207 225.787 194.382C227.994 194.558 229.732 196.638 226.995 198.977C223.593 201.886 221.651 198.501 221.651 198.501Z" fill="url(#paint22_linear)"/>
<path d="M224.565 389.901C228.834 390.25 236.243 390.817 242.082 391.06C245.593 391.206 247.614 390.881 248.778 390.44C248.777 390.565 248.773 390.682 248.768 390.79C248.739 391.372 248.24 391.837 247.619 391.87C236.583 392.453 227.807 392.073 224.682 391.892C224.035 391.855 223.651 391.191 223.981 390.669C224.148 390.409 224.347 390.154 224.565 389.901Z" fill="url(#paint23_linear)"/>
<path d="M242.083 391.062C236.242 390.819 228.833 390.251 224.565 389.903C228.762 385.032 242.083 381.749 242.083 381.749H245.845C248.432 385.278 248.807 388.637 248.779 390.442C247.616 390.882 245.593 391.208 242.083 391.062Z" fill="url(#paint24_linear)"/>
<path d="M246.479 375.937L246.127 382.527C246.089 383.241 245.524 383.841 244.769 383.943C244.017 384.045 243.01 384.057 241.942 383.722C241.286 383.514 240.798 382.991 240.677 382.353L239.46 375.937H246.479Z" fill="url(#paint25_linear)"/>
<path d="M295.345 391.012C297.196 390.768 298.034 389.858 298.385 388.885C298.388 388.894 298.39 388.903 298.392 388.912C298.663 389.939 298.033 391.001 296.77 391.507C295.244 392.118 293.577 392.222 292.281 392.172C290.892 392.118 289.616 391.575 288.915 390.703L288.904 390.69C290.3 391.343 292.258 391.419 295.345 391.012Z" fill="url(#paint26_linear)"/>
<path d="M286.618 375.895H289.72C294.446 375.803 297.413 385.234 298.384 388.885C298.033 389.858 297.195 390.767 295.344 391.012C292.257 391.419 290.299 391.342 288.905 390.69C286.351 387.511 285.086 382.857 284.477 380.14C283.787 377.049 286.618 375.895 286.618 375.895Z" fill="url(#paint27_linear)"/>
<path d="M289.32 369.776L291.043 376.259C291.254 377.054 290.852 377.875 290.075 378.253C289.111 378.721 287.754 379.212 286.507 379.071C285.921 379.004 285.433 378.613 285.239 378.09L282.71 371.27L289.32 369.776Z" fill="url(#paint28_linear)"/>
<path d="M291.376 371.65C289.233 373.449 282.261 373.687 282.261 373.687C257.147 316.662 246.677 300.964 246.677 300.964C250.303 322.488 247.458 377.735 247.458 377.735C243.314 379.465 237.97 377.735 237.97 377.735C237.634 342.499 232.39 304.635 225.627 280.408C242.601 280.047 251.826 276.546 254.774 274.341C268.922 295.922 291.376 371.65 291.376 371.65Z" fill="url(#paint29_linear)"/>
<path d="M221.349 296.342L224.473 314.721C225.018 317.925 228.156 320.149 231.576 319.753L278.324 314.358C280.611 314.095 282.345 312.287 282.391 310.119C282.491 305.37 282.294 296.919 280.187 289.219L221.349 296.342Z" fill="url(#paint30_linear)"/>
<path d="M233.154 318.521C233.077 318.521 233.011 318.467 233.002 318.394C232.991 318.314 233.052 318.242 233.135 318.233L234.356 318.091C234.445 318.083 234.517 318.139 234.527 318.217C234.537 318.298 234.477 318.37 234.393 318.379L233.173 318.52C233.166 318.52 233.159 318.521 233.154 318.521ZM230.305 318.471C230.292 318.471 230.28 318.469 230.267 318.465C229.861 318.37 229.462 318.235 229.082 318.065C229.006 318.03 228.973 317.943 229.01 317.871C229.047 317.799 229.14 317.768 229.215 317.803C229.576 317.966 229.955 318.093 230.342 318.184C230.424 318.203 230.475 318.282 230.454 318.361C230.436 318.426 230.373 318.471 230.305 318.471ZM237.224 318.051C237.147 318.051 237.081 317.996 237.072 317.922C237.061 317.843 237.122 317.77 237.205 317.761L238.426 317.62C238.508 317.608 238.586 317.667 238.597 317.747C238.607 317.826 238.547 317.899 238.462 317.908L237.241 318.049C237.236 318.051 237.231 318.051 237.224 318.051ZM241.294 317.581C241.217 317.581 241.151 317.527 241.142 317.454C241.131 317.374 241.192 317.302 241.275 317.293L242.496 317.151C242.585 317.139 242.657 317.198 242.667 317.279C242.678 317.359 242.617 317.431 242.534 317.44L241.313 317.581C241.306 317.581 241.301 317.581 241.294 317.581ZM245.365 317.112C245.289 317.112 245.223 317.057 245.213 316.985C245.203 316.905 245.263 316.832 245.347 316.823L246.567 316.682C246.656 316.673 246.729 316.729 246.738 316.808C246.749 316.888 246.688 316.961 246.605 316.97L245.384 317.111C245.377 317.111 245.371 317.112 245.365 317.112ZM249.435 316.643C249.359 316.643 249.293 316.588 249.283 316.515C249.273 316.435 249.333 316.363 249.417 316.354L250.637 316.213C250.726 316.201 250.799 316.26 250.808 316.339C250.819 316.419 250.758 316.491 250.675 316.5L249.454 316.641C249.448 316.641 249.441 316.643 249.435 316.643ZM226.935 316.391C226.889 316.391 226.844 316.372 226.814 316.333C226.557 316.019 226.334 315.678 226.15 315.321C226.112 315.248 226.144 315.162 226.221 315.126C226.298 315.092 226.389 315.121 226.427 315.194C226.602 315.533 226.814 315.858 227.057 316.155C227.11 316.219 227.098 316.311 227.031 316.359C227.001 316.381 226.967 316.391 226.935 316.391ZM253.505 316.172C253.429 316.172 253.363 316.117 253.354 316.045C253.343 315.965 253.403 315.892 253.487 315.883L254.708 315.742C254.796 315.729 254.869 315.789 254.878 315.869C254.889 315.949 254.829 316.022 254.745 316.031L253.524 316.172C253.518 316.172 253.512 316.172 253.505 316.172ZM257.576 315.703C257.499 315.703 257.433 315.648 257.424 315.575C257.413 315.495 257.473 315.423 257.557 315.414L258.778 315.273C258.86 315.264 258.938 315.32 258.948 315.399C258.959 315.479 258.899 315.551 258.814 315.56L257.593 315.701C257.588 315.703 257.582 315.703 257.576 315.703ZM261.646 315.233C261.569 315.233 261.503 315.178 261.494 315.106C261.483 315.026 261.543 314.953 261.627 314.944L262.848 314.803C262.936 314.793 263.009 314.85 263.018 314.93C263.029 315.011 262.969 315.083 262.885 315.092L261.664 315.233C261.659 315.233 261.652 315.233 261.646 315.233ZM265.717 314.763C265.64 314.763 265.575 314.708 265.565 314.635C265.554 314.555 265.615 314.483 265.698 314.474L266.919 314.333C267.008 314.32 267.08 314.38 267.09 314.46C267.101 314.54 267.04 314.612 266.957 314.621L265.736 314.763C265.729 314.763 265.722 314.763 265.717 314.763ZM269.787 314.293C269.71 314.293 269.645 314.238 269.635 314.166C269.624 314.086 269.685 314.013 269.77 314.004L270.991 313.863C271.079 313.854 271.152 313.91 271.161 313.989C271.172 314.069 271.112 314.142 271.028 314.151L269.807 314.292C269.799 314.293 269.792 314.293 269.787 314.293ZM273.857 313.824C273.781 313.824 273.715 313.769 273.705 313.697C273.694 313.616 273.755 313.544 273.838 313.535L275.059 313.394C275.148 313.384 275.221 313.441 275.23 313.52C275.241 313.6 275.18 313.672 275.097 313.681L273.876 313.822C273.869 313.824 273.864 313.824 273.857 313.824ZM277.91 313.264C277.847 313.264 277.786 313.226 277.765 313.166C277.738 313.09 277.779 313.007 277.86 312.982C278.234 312.86 278.589 312.689 278.914 312.474C278.983 312.428 279.08 312.444 279.128 312.51C279.176 312.576 279.16 312.666 279.09 312.712C278.741 312.942 278.36 313.125 277.96 313.256C277.942 313.262 277.926 313.264 277.91 313.264ZM225.581 312.785C225.507 312.785 225.441 312.734 225.429 312.662L225.234 311.514C225.221 311.435 225.277 311.36 225.362 311.347C225.447 311.334 225.525 311.388 225.538 311.468L225.733 312.617C225.746 312.695 225.69 312.771 225.605 312.783C225.597 312.783 225.589 312.785 225.581 312.785ZM280.672 310.589C280.657 310.589 280.641 310.586 280.626 310.581C280.545 310.557 280.499 310.476 280.526 310.399C280.645 310.043 280.711 309.672 280.72 309.295C280.723 309.216 280.791 309.153 280.873 309.153C280.875 309.153 280.876 309.153 280.877 309.153C280.962 309.155 281.029 309.222 281.028 309.302C281.017 309.705 280.947 310.104 280.819 310.486C280.798 310.55 280.737 310.589 280.672 310.589ZM224.93 308.954C224.856 308.954 224.79 308.904 224.778 308.832L224.583 307.684C224.57 307.605 224.626 307.53 224.711 307.517C224.798 307.503 224.874 307.559 224.887 307.638L225.082 308.786C225.096 308.865 225.039 308.94 224.954 308.953C224.946 308.953 224.938 308.954 224.93 308.954ZM280.889 306.73C280.805 306.73 280.736 306.665 280.736 306.585C280.732 306.209 280.727 305.821 280.717 305.422C280.716 305.342 280.783 305.276 280.868 305.273C280.959 305.259 281.023 305.335 281.025 305.416C281.033 305.816 281.04 306.206 281.044 306.582C281.044 306.663 280.975 306.73 280.889 306.73C280.891 306.73 280.891 306.73 280.889 306.73ZM224.279 305.124C224.206 305.124 224.14 305.073 224.128 305.002L223.933 303.854C223.919 303.775 223.976 303.7 224.06 303.687C224.145 303.675 224.223 303.728 224.236 303.808L224.431 304.956C224.445 305.035 224.388 305.11 224.304 305.123C224.296 305.123 224.288 305.124 224.279 305.124ZM280.77 302.851C280.689 302.851 280.62 302.791 280.616 302.713C280.596 302.332 280.572 301.945 280.547 301.552C280.541 301.472 280.606 301.402 280.69 301.397C280.793 301.404 280.849 301.453 280.854 301.533C280.881 301.928 280.904 302.316 280.924 302.697C280.928 302.777 280.864 302.846 280.779 302.85C280.774 302.851 280.772 302.851 280.77 302.851ZM223.629 301.294C223.555 301.294 223.489 301.243 223.477 301.172L223.282 300.023C223.268 299.945 223.325 299.87 223.41 299.857C223.497 299.844 223.572 299.899 223.586 299.978L223.781 301.126C223.794 301.205 223.738 301.28 223.653 301.293C223.645 301.293 223.637 301.294 223.629 301.294ZM280.47 298.982C280.392 298.982 280.325 298.926 280.317 298.851C280.278 298.469 280.235 298.084 280.189 297.696C280.179 297.615 280.24 297.544 280.325 297.535C280.408 297.525 280.485 297.584 280.494 297.664C280.541 298.053 280.583 298.44 280.623 298.824C280.631 298.904 280.569 298.975 280.485 298.983C280.479 298.98 280.475 298.982 280.47 298.982ZM222.978 297.464C222.904 297.464 222.838 297.413 222.826 297.342L222.605 296.044L223.732 295.908C223.82 295.896 223.894 295.955 223.904 296.034C223.915 296.114 223.856 296.187 223.771 296.197L222.96 296.295L223.13 297.296C223.143 297.375 223.087 297.45 223.002 297.463C222.994 297.463 222.986 297.464 222.978 297.464ZM226.599 295.852C226.522 295.852 226.456 295.799 226.447 295.725C226.436 295.645 226.495 295.573 226.58 295.562L227.801 295.415C227.899 295.403 227.962 295.462 227.973 295.541C227.984 295.621 227.925 295.693 227.84 295.704L226.619 295.851C226.611 295.852 226.604 295.852 226.599 295.852ZM230.666 295.36C230.59 295.36 230.524 295.307 230.514 295.233C230.504 295.153 230.563 295.08 230.647 295.07L231.868 294.923C231.965 294.911 232.03 294.968 232.04 295.048C232.051 295.129 231.992 295.201 231.907 295.211L230.686 295.359C230.68 295.36 230.673 295.36 230.666 295.36ZM279.968 295.131C279.893 295.131 279.829 295.079 279.816 295.008C279.756 294.626 279.69 294.243 279.621 293.86C279.608 293.782 279.664 293.706 279.748 293.693C279.835 293.68 279.912 293.733 279.925 293.812C279.994 294.196 280.06 294.58 280.12 294.965C280.132 295.043 280.076 295.118 279.991 295.13C279.984 295.131 279.976 295.131 279.968 295.131ZM234.734 294.868C234.657 294.868 234.591 294.814 234.582 294.741C234.571 294.661 234.63 294.588 234.715 294.578L235.936 294.43C236.033 294.42 236.097 294.477 236.108 294.556C236.119 294.636 236.059 294.709 235.975 294.719L234.754 294.867C234.746 294.868 234.74 294.868 234.734 294.868ZM238.801 294.376C238.724 294.376 238.659 294.322 238.649 294.248C238.638 294.168 238.698 294.096 238.782 294.086L240.003 293.938C240.099 293.929 240.164 293.985 240.175 294.064C240.186 294.144 240.127 294.217 240.042 294.227L238.821 294.374C238.813 294.376 238.808 294.376 238.801 294.376ZM242.868 293.883C242.792 293.883 242.726 293.83 242.716 293.756C242.706 293.676 242.765 293.603 242.85 293.593L244.07 293.446C244.166 293.438 244.232 293.493 244.243 293.572C244.253 293.652 244.194 293.724 244.109 293.734L242.889 293.882C242.881 293.882 242.875 293.883 242.868 293.883ZM246.936 293.391C246.859 293.391 246.793 293.338 246.784 293.264C246.773 293.184 246.832 293.111 246.917 293.101L248.138 292.953C248.232 292.941 248.299 293.001 248.31 293.079C248.321 293.16 248.262 293.232 248.177 293.242L246.956 293.39C246.949 293.391 246.943 293.391 246.936 293.391ZM251.003 292.899C250.927 292.899 250.861 292.845 250.851 292.772C250.841 292.691 250.9 292.619 250.984 292.609L252.205 292.461C252.293 292.45 252.367 292.507 252.377 292.587C252.388 292.667 252.329 292.74 252.244 292.75L251.023 292.897C251.017 292.899 251.01 292.899 251.003 292.899ZM255.071 292.406C254.994 292.406 254.928 292.353 254.919 292.279C254.908 292.199 254.967 292.127 255.052 292.116L256.273 291.969C256.365 291.959 256.434 292.016 256.445 292.095C256.456 292.175 256.396 292.247 256.312 292.258L255.091 292.405C255.084 292.405 255.077 292.406 255.071 292.406ZM259.138 291.914C259.061 291.914 258.995 291.861 258.986 291.787C258.975 291.707 259.034 291.634 259.119 291.624L260.34 291.477C260.438 291.468 260.501 291.524 260.512 291.603C260.523 291.683 260.464 291.755 260.379 291.765L259.158 291.913C259.15 291.913 259.145 291.914 259.138 291.914ZM263.205 291.421C263.129 291.421 263.063 291.367 263.053 291.293C263.043 291.213 263.102 291.141 263.187 291.131L264.407 290.983C264.504 290.975 264.569 291.03 264.58 291.109C264.59 291.189 264.531 291.262 264.446 291.272L263.226 291.419C263.219 291.421 263.212 291.421 263.205 291.421ZM279.226 291.316C279.155 291.316 279.092 291.271 279.076 291.202C278.988 290.824 278.895 290.446 278.799 290.071C278.778 289.993 278.829 289.915 278.912 289.895C278.996 289.875 279.078 289.925 279.097 290.002C279.194 290.38 279.287 290.759 279.375 291.14C279.393 291.217 279.34 291.296 279.258 291.313C279.248 291.315 279.237 291.316 279.226 291.316ZM267.273 290.93C267.196 290.93 267.13 290.876 267.121 290.802C267.11 290.722 267.169 290.65 267.254 290.64L268.475 290.492C268.572 290.479 268.636 290.539 268.647 290.618C268.658 290.698 268.598 290.771 268.514 290.781L267.293 290.928C267.286 290.928 267.279 290.93 267.273 290.93ZM271.34 290.436C271.263 290.436 271.198 290.383 271.188 290.309C271.177 290.229 271.237 290.156 271.321 290.146L272.542 289.999C272.638 289.987 272.704 290.046 272.714 290.124C272.725 290.205 272.666 290.277 272.581 290.287L271.36 290.435C271.354 290.436 271.347 290.436 271.34 290.436ZM275.408 289.944C275.331 289.944 275.265 289.89 275.256 289.817C275.245 289.736 275.304 289.664 275.389 289.654L276.61 289.506C276.705 289.495 276.771 289.553 276.782 289.632C276.792 289.712 276.733 289.785 276.649 289.795L275.428 289.943C275.421 289.944 275.414 289.944 275.408 289.944Z" fill="white"/>
<path d="M233.228 281.289L233.176 279.849C233.289 279.49 233.586 279.209 233.966 279.103C235.391 278.708 238.949 277.886 240.853 278.904L241.336 280.526L233.228 281.289Z" fill="url(#paint31_linear)"/>
<path d="M237.588 279.369C237.264 279.488 236.928 279.527 236.581 279.49C236.162 279.444 235.828 279.135 235.775 278.741L235.172 274.285L237.57 273.995L238.172 278.448C238.224 278.843 237.984 279.226 237.588 279.369Z" fill="url(#paint32_linear)"/>
<path d="M256.448 278.478L256.395 277.038C256.508 276.679 256.805 276.398 257.186 276.292C258.611 275.897 262.169 275.075 264.073 276.093L264.556 277.714L256.448 278.478Z" fill="url(#paint33_linear)"/>
<path d="M260.808 276.558C260.484 276.677 260.148 276.716 259.801 276.679C259.381 276.634 259.048 276.324 258.994 275.93L258.328 271.003L260.726 270.713L261.391 275.636C261.444 276.032 261.203 276.415 260.808 276.558Z" fill="url(#paint34_linear)"/>
<path d="M235.076 275.406L260.748 271.478C261.333 271.389 261.778 270.927 261.805 270.369C261.842 269.587 261.813 268.43 261.467 267.267C261.073 265.946 259.714 265.092 258.263 265.235C253.439 265.709 241.195 267.194 234.789 270.536C234.112 270.89 233.66 271.531 233.575 272.256C233.493 272.947 233.5 273.856 233.848 274.741C234.032 275.21 234.551 275.486 235.076 275.406Z" fill="url(#paint35_linear)"/>
<path d="M234.443 274.472C234.256 274.472 234.088 274.351 234.044 274.172C234.034 274.131 233.804 273.177 233.944 272.214C234.06 271.424 234.614 270.734 235.392 270.412C236.788 269.833 239.468 268.814 241.735 268.478C241.961 268.45 242.168 268.59 242.204 268.801C242.239 269.013 242.086 269.211 241.863 269.245C239.606 269.58 236.816 270.67 235.722 271.123C235.203 271.338 234.834 271.797 234.758 272.321C234.639 273.139 234.841 273.99 234.844 273.999C234.895 274.208 234.756 274.416 234.536 274.463C234.505 274.47 234.474 274.472 234.443 274.472Z" fill="url(#paint36_linear)"/>
<path d="M221.191 282.182C229.506 281.073 265.49 276.352 276.118 276.281C277.033 276.275 277.852 276.809 278.16 277.62C279.136 280.191 281.212 286.185 281.889 292.294C281.98 293.125 281.433 293.901 280.588 294.162L257.276 301.33L248.789 302.358L222.685 300.652C221.765 300.592 221.006 299.954 220.843 299.099C220.263 296.055 219.032 288.896 219.282 284.161C219.336 283.155 220.132 282.323 221.191 282.182Z" fill="url(#paint37_linear)"/>
<path d="M248.747 300.529L247.49 300.45C247.406 300.443 247.341 300.375 247.348 300.295C247.354 300.215 247.434 300.16 247.512 300.16L248.739 300.24L249.397 300.157C249.495 300.15 249.558 300.204 249.569 300.283C249.58 300.363 249.521 300.436 249.436 300.446L248.747 300.529ZM244.637 300.263C244.633 300.263 244.63 300.263 244.626 300.263L243.399 300.183C243.314 300.176 243.249 300.108 243.256 300.028C243.263 299.947 243.341 299.891 243.42 299.893L244.648 299.973C244.733 299.979 244.797 300.048 244.79 300.128C244.785 300.204 244.718 300.263 244.637 300.263ZM252.264 300.103C252.187 300.103 252.121 300.049 252.112 299.975C252.101 299.895 252.16 299.823 252.245 299.813L253.466 299.665C253.562 299.654 253.627 299.712 253.638 299.791C253.648 299.871 253.589 299.944 253.505 299.954L252.284 300.101C252.276 300.103 252.269 300.103 252.264 300.103ZM240.547 299.996C240.543 299.996 240.54 299.996 240.536 299.996L239.308 299.916C239.224 299.909 239.159 299.841 239.166 299.76C239.173 299.68 239.249 299.623 239.33 299.626L240.558 299.706C240.642 299.712 240.707 299.781 240.7 299.861C240.695 299.937 240.627 299.996 240.547 299.996ZM236.457 299.729C236.453 299.729 236.45 299.729 236.446 299.729L235.218 299.648C235.133 299.642 235.069 299.573 235.076 299.493C235.082 299.413 235.156 299.356 235.24 299.358L236.467 299.439C236.552 299.445 236.617 299.514 236.61 299.594C236.603 299.67 236.536 299.729 236.457 299.729ZM256.331 299.61C256.254 299.61 256.188 299.557 256.179 299.483C256.168 299.403 256.227 299.33 256.312 299.32L256.802 299.26L257.475 299.051C257.556 299.028 257.643 299.068 257.669 299.143C257.696 299.22 257.65 299.302 257.571 299.327L256.869 299.542L256.352 299.606C256.343 299.61 256.336 299.61 256.331 299.61ZM232.365 299.461C232.361 299.461 232.358 299.461 232.354 299.461L231.127 299.381C231.042 299.375 230.977 299.306 230.984 299.226C230.991 299.146 231.065 299.098 231.148 299.091L232.376 299.171C232.46 299.178 232.525 299.247 232.518 299.327C232.513 299.403 232.446 299.461 232.365 299.461ZM228.275 299.194C228.271 299.194 228.268 299.194 228.264 299.194L227.036 299.114C226.952 299.108 226.887 299.039 226.894 298.959C226.901 298.879 226.973 298.829 227.058 298.824L228.286 298.904C228.37 298.911 228.435 298.979 228.428 299.06C228.421 299.136 228.354 299.194 228.275 299.194ZM224.183 298.927C224.179 298.927 224.176 298.927 224.172 298.927L222.945 298.847C222.86 298.841 222.796 298.772 222.802 298.692C222.809 298.612 222.89 298.562 222.966 298.557L224.194 298.637C224.279 298.644 224.343 298.712 224.336 298.792C224.331 298.869 224.264 298.927 224.183 298.927ZM260.25 298.496C260.186 298.496 260.125 298.457 260.104 298.396C260.077 298.319 260.123 298.237 260.202 298.212L261.372 297.852C261.452 297.829 261.54 297.87 261.565 297.945C261.592 298.022 261.547 298.104 261.467 298.128L260.297 298.488C260.283 298.493 260.267 298.496 260.25 298.496ZM264.15 297.296C264.085 297.296 264.025 297.257 264.003 297.196C263.976 297.12 264.022 297.037 264.101 297.013L265.271 296.653C265.35 296.63 265.439 296.671 265.465 296.746C265.492 296.822 265.446 296.905 265.367 296.929L264.197 297.289C264.182 297.294 264.166 297.296 264.15 297.296ZM222.411 296.237C222.336 296.237 222.271 296.186 222.259 296.113C222.197 295.746 222.135 295.36 222.072 294.96C222.06 294.881 222.118 294.806 222.203 294.794C222.283 294.782 222.365 294.838 222.377 294.918C222.439 295.316 222.502 295.701 222.563 296.068C222.576 296.147 222.519 296.222 222.435 296.234C222.427 296.236 222.419 296.237 222.411 296.237ZM268.05 296.098C267.986 296.098 267.925 296.059 267.904 295.998C267.877 295.921 267.923 295.839 268.002 295.815L269.172 295.455C269.254 295.432 269.34 295.472 269.365 295.547C269.392 295.624 269.347 295.706 269.267 295.731L268.097 296.091C268.081 296.096 268.065 296.098 268.05 296.098ZM271.95 294.899C271.885 294.899 271.825 294.859 271.803 294.798C271.776 294.722 271.822 294.639 271.901 294.615L273.071 294.255C273.152 294.232 273.239 294.273 273.265 294.348C273.292 294.424 273.246 294.507 273.167 294.531L271.997 294.891C271.982 294.896 271.966 294.899 271.95 294.899ZM275.85 293.699C275.786 293.699 275.725 293.66 275.704 293.599C275.677 293.522 275.723 293.44 275.803 293.416L276.973 293.056C277.054 293.033 277.141 293.073 277.167 293.148C277.194 293.225 277.148 293.307 277.069 293.332L275.899 293.692C275.881 293.698 275.865 293.699 275.85 293.699ZM279.75 292.501C279.685 292.501 279.625 292.461 279.603 292.4C279.584 292.346 279.602 292.29 279.642 292.252C279.603 291.92 279.56 291.589 279.513 291.258C279.502 291.178 279.561 291.105 279.645 291.094C279.731 291.081 279.806 291.14 279.818 291.219C279.871 291.585 279.918 291.954 279.961 292.322L279.974 292.44L279.798 292.493C279.781 292.498 279.766 292.501 279.75 292.501ZM221.84 292.393C221.763 292.393 221.697 292.338 221.688 292.266C221.638 291.883 221.591 291.496 221.546 291.107C221.537 291.027 221.599 290.955 221.682 290.946C221.772 290.941 221.842 290.996 221.852 291.075C221.896 291.463 221.943 291.848 221.993 292.23C222.004 292.31 221.943 292.383 221.86 292.392C221.852 292.393 221.845 292.393 221.84 292.393ZM279.201 288.704C279.128 288.704 279.064 288.656 279.05 288.586C278.972 288.203 278.892 287.822 278.808 287.447C278.791 287.368 278.843 287.291 278.927 287.274C279.014 287.259 279.092 287.308 279.11 287.386C279.194 287.764 279.275 288.145 279.353 288.53C279.369 288.608 279.314 288.685 279.231 288.7C279.22 288.703 279.21 288.704 279.201 288.704ZM221.44 288.531C221.36 288.531 221.292 288.472 221.287 288.395C221.259 288.002 221.234 287.612 221.216 287.228C221.212 287.148 221.278 287.079 221.362 287.077C221.455 287.062 221.52 287.135 221.522 287.216C221.541 287.596 221.565 287.984 221.593 288.374C221.599 288.455 221.536 288.523 221.451 288.53C221.447 288.53 221.443 288.531 221.44 288.531ZM278.304 284.917C278.236 284.917 278.172 284.874 278.155 284.808C278.051 284.423 277.945 284.048 277.84 283.684C277.817 283.607 277.866 283.527 277.948 283.506C278.033 283.483 278.115 283.532 278.136 283.608C278.242 283.974 278.347 284.351 278.452 284.735C278.474 284.813 278.424 284.893 278.342 284.912C278.33 284.914 278.318 284.917 278.304 284.917ZM221.343 284.652C221.342 284.652 221.339 284.652 221.337 284.652C221.252 284.65 221.186 284.581 221.189 284.501L221.2 284.253C221.206 284.116 221.315 284.002 221.456 283.983L222.215 283.883C222.299 283.865 222.377 283.926 222.388 284.006C222.4 284.086 222.341 284.159 222.258 284.17L221.501 284.271L221.495 284.513C221.494 284.59 221.425 284.652 221.343 284.652ZM225.083 283.796C225.007 283.796 224.942 283.743 224.931 283.67C224.919 283.592 224.978 283.518 225.063 283.506L226.282 283.347C226.374 283.333 226.443 283.392 226.456 283.472C226.468 283.552 226.408 283.625 226.324 283.636L225.104 283.795C225.096 283.796 225.089 283.796 225.083 283.796ZM229.146 283.268C229.069 283.268 229.005 283.215 228.994 283.143C228.982 283.062 229.041 282.99 229.126 282.978L230.345 282.821C230.433 282.811 230.507 282.866 230.519 282.945C230.53 283.024 230.472 283.098 230.387 283.109L229.168 283.266C229.159 283.267 229.153 283.268 229.146 283.268ZM233.212 282.749C233.135 282.749 233.07 282.696 233.06 282.624C233.049 282.543 233.109 282.471 233.192 282.459L234.413 282.306C234.493 282.295 234.574 282.351 234.585 282.431C234.596 282.51 234.537 282.584 234.452 282.594L233.232 282.748C233.226 282.748 233.219 282.749 233.212 282.749ZM237.278 282.238C237.201 282.238 237.136 282.185 237.126 282.112C237.115 282.032 237.175 281.96 237.259 281.949L238.48 281.798C238.565 281.785 238.642 281.844 238.652 281.924C238.663 282.004 238.604 282.077 238.519 282.087L237.298 282.238C237.292 282.238 237.285 282.238 237.278 282.238ZM241.345 281.738C241.269 281.738 241.203 281.685 241.194 281.611C241.183 281.531 241.242 281.458 241.327 281.448L242.548 281.299C242.636 281.288 242.709 281.346 242.72 281.425C242.73 281.504 242.671 281.578 242.587 281.588L241.367 281.737C241.359 281.737 241.352 281.738 241.345 281.738ZM245.441 281.245L245.402 280.956L246.615 280.812C246.702 280.802 246.776 280.859 246.787 280.938C246.798 281.018 246.737 281.091 246.654 281.101L245.441 281.245ZM277.183 281.184C277.117 281.184 277.056 281.143 277.036 281.082C276.906 280.686 276.779 280.317 276.661 279.975C276.634 279.899 276.679 279.816 276.759 279.792C276.84 279.767 276.927 279.809 276.953 279.885C277.073 280.228 277.199 280.6 277.331 280.995C277.356 281.072 277.311 281.154 277.23 281.177C277.212 281.182 277.198 281.184 277.183 281.184ZM245.414 281.101H245.418H245.414ZM249.484 280.77C249.408 280.77 249.342 280.715 249.332 280.643C249.322 280.563 249.382 280.49 249.465 280.481L250.686 280.34C250.768 280.331 250.846 280.387 250.857 280.467C250.868 280.546 250.807 280.62 250.723 280.629L249.502 280.77C249.496 280.77 249.49 280.77 249.484 280.77ZM253.554 280.307C253.478 280.307 253.41 280.252 253.402 280.179C253.393 280.099 253.452 280.026 253.537 280.017L254.759 279.882C254.849 279.872 254.92 279.931 254.93 280.01C254.939 280.09 254.88 280.162 254.795 280.171L253.573 280.306C253.566 280.307 253.56 280.307 253.554 280.307ZM257.628 279.863C257.55 279.863 257.485 279.809 257.475 279.733C257.466 279.653 257.526 279.582 257.611 279.573L258.833 279.445C258.918 279.438 258.995 279.493 259.003 279.573C259.012 279.653 258.952 279.725 258.867 279.733L257.645 279.862C257.641 279.863 257.635 279.863 257.628 279.863ZM261.705 279.442C261.627 279.442 261.56 279.386 261.552 279.312C261.543 279.232 261.604 279.161 261.689 279.152L262.913 279.031C262.996 279.024 263.073 279.081 263.082 279.161C263.092 279.241 263.03 279.312 262.945 279.321L261.723 279.442C261.716 279.441 261.711 279.442 261.705 279.442ZM265.786 279.053C265.707 279.053 265.641 278.996 265.633 278.921C265.625 278.841 265.687 278.769 265.771 278.762C266.189 278.723 266.598 278.688 266.996 278.654C267.085 278.643 267.156 278.706 267.163 278.785C267.171 278.865 267.108 278.936 267.024 278.942C266.625 278.977 266.218 279.014 265.8 279.05C265.796 279.053 265.79 279.053 265.786 279.053ZM269.871 278.709C269.792 278.709 269.724 278.651 269.718 278.576C269.711 278.496 269.774 278.426 269.859 278.419C270.282 278.388 270.691 278.357 271.086 278.33C271.185 278.337 271.245 278.385 271.252 278.465C271.259 278.545 271.194 278.615 271.109 278.622C270.714 278.648 270.307 278.679 269.883 278.711C269.879 278.709 269.875 278.709 269.871 278.709ZM273.963 278.453C273.881 278.453 273.813 278.391 273.809 278.314C273.805 278.234 273.871 278.165 273.956 278.161C274.395 278.141 274.807 278.126 275.187 278.115C275.189 278.115 275.191 278.115 275.193 278.115C275.276 278.115 275.345 278.178 275.346 278.257C275.349 278.337 275.282 278.404 275.197 278.407C274.816 278.417 274.408 278.432 273.971 278.453C273.967 278.453 273.964 278.453 273.963 278.453Z" fill="white"/>
<path d="M256.932 304.797L249.496 305.698C248.521 305.816 247.608 305.23 247.37 304.333L245.595 297.669C245.313 296.607 246.078 295.551 247.232 295.411L256.164 294.33C257.293 294.192 258.303 294.998 258.348 296.07L258.626 302.916C258.663 303.859 257.929 304.677 256.932 304.797Z" fill="url(#paint38_linear)"/>
<path d="M255.849 303.663L250.19 304.349C249.447 304.439 248.752 303.992 248.571 303.309L247.221 298.236C247.006 297.429 247.589 296.625 248.466 296.518L255.264 295.695C256.123 295.591 256.892 296.204 256.926 297.019L257.137 302.229C257.167 302.949 256.607 303.571 255.849 303.663Z" fill="url(#paint39_linear)"/>
<path d="M251.428 249.726C253.181 256.581 253.228 263.289 252.96 265.73C252.86 266.651 252.077 267.37 251.102 267.435C249.993 267.508 248.484 267.604 247.136 267.677C245.654 267.759 244.008 266.872 242.908 266.132C242.346 265.754 241.62 266.343 241.933 266.923C242.474 267.923 243.412 268.712 244.344 269.381C244.905 269.784 246.767 270.499 246.638 271.293C246.596 271.543 246.438 271.761 246.266 271.955C245.23 273.131 243.664 273.758 242.119 274.207C241.925 274.263 241.72 274.323 241.584 274.465C241.545 275.412 244.62 276.461 245.415 276.71C246.603 277.084 247.864 277.242 249.113 277.117C252.207 276.809 255.065 274.788 256.732 272.352C261.187 265.839 263.49 257.976 264.332 251.961C260.188 248.044 253.93 249.037 251.428 249.726Z" fill="url(#paint40_linear)"/>
<path d="M264.332 252.582C267.637 228.962 248.397 210.8 248.397 210.8L236.949 223.425C245.64 233.674 249.771 243.064 251.659 250.441C254.161 249.751 260.187 248.663 264.332 252.582Z" fill="url(#paint41_linear)"/>
<path d="M251.384 250.325C251.064 250.325 250.774 250.119 250.696 249.812C248.37 240.72 243.466 231.719 236.123 223.059C235.878 222.77 235.927 222.348 236.232 222.116C236.537 221.885 236.984 221.931 237.228 222.219C244.703 231.035 249.698 240.211 252.074 249.497C252.165 249.857 251.931 250.219 251.552 250.306C251.496 250.32 251.441 250.325 251.384 250.325Z" fill="url(#paint42_linear)"/>
<path d="M96.3507 390.348C96.3521 390.232 96.344 390.116 96.3131 389.998C94.4723 383.093 85.3345 378.791 85.3345 378.791L81.7135 379.06C79.6321 385.147 79.8997 388.879 80.2331 390.541C80.2426 390.588 80.2573 390.632 80.2708 390.677C83.2571 390.93 89.4059 391.095 96.3507 390.348Z" fill="url(#paint43_linear)"/>
<path d="M80.27 390.677C80.4313 391.233 80.8643 391.664 81.4196 391.775C85.6685 392.621 92.4224 391.94 95.2567 391.589C95.882 391.512 96.3391 390.965 96.3499 390.347C89.4051 391.094 83.2563 390.93 80.27 390.677Z" fill="url(#paint44_linear)"/>
<path d="M80.2573 373.958L81.7914 380.942C81.9044 381.454 82.3199 381.838 82.8227 381.882C83.4386 381.937 84.3166 381.969 85.1986 381.847C85.9893 381.737 86.5405 380.977 86.4007 380.16L85.3344 373.959H80.2573V373.958Z" fill="url(#paint45_linear)"/>
<path d="M112.032 390.59C108.033 390.484 105.964 390.038 104.895 389.624C104.892 390.001 104.895 390.384 104.907 390.779C104.92 391.203 105.252 391.541 105.66 391.539L127.617 391.405C128.318 391.401 128.728 390.632 128.424 390.024C125.546 390.25 118.213 390.754 112.032 390.59Z" fill="url(#paint46_linear)"/>
<path d="M128.425 390.025C128.398 389.971 128.375 389.918 128.338 389.868C126.399 387.305 121.46 382.2 111.701 379.987L107.019 379.847C107.019 379.847 104.935 383.275 104.895 389.625C105.964 390.039 108.033 390.484 112.032 390.591C118.213 390.754 125.546 390.25 128.425 390.025Z" fill="url(#paint47_linear)"/>
<path d="M105.942 373.341C106.016 373.668 106.99 378.636 107.368 380.563C107.458 381.021 107.834 381.357 108.283 381.381C109.085 381.423 110.378 381.428 111.49 381.143C112.09 380.989 112.493 380.411 112.45 379.768L111.926 371.907L105.942 373.341Z" fill="url(#paint48_linear)"/>
<path d="M102.395 281.581C102.395 281.581 108.836 323.447 113.483 373.269C113.569 374.197 112.788 375.004 111.825 375.196C110.405 375.479 108.318 375.815 106.59 375.769C105.668 375.745 104.898 375.097 104.742 374.237C103.158 365.453 91.8604 318.31 88.8943 307.934C88.8943 307.934 85.4884 352.008 86.5775 374.875C86.6044 375.443 86.1647 375.937 85.5664 376.002C84.6601 376.101 83.2093 376.176 81.3632 375.99C80.6627 375.92 80.098 375.419 79.9971 374.759C78.869 367.325 72.3773 323.072 72.6543 291.195C72.6704 289.397 74.8836 274.628 74.8836 274.628L102.395 281.581Z" fill="url(#paint49_linear)"/>
<path d="M73.9156 283.994C73.254 283.771 72.7915 283.204 72.7202 282.542C71.8637 274.681 67.717 225.943 93.8962 205.893C93.8962 205.893 95.3981 202.177 107.737 211.312C120.078 220.446 113.471 230.021 110.517 243.227C106.941 259.208 100.669 272.271 103.444 282.105C103.635 282.783 103.259 283.496 102.562 283.739C92.9765 287.08 83.4272 287.19 73.9156 283.994Z" fill="url(#paint50_linear)"/>
<path d="M104.108 191.289C104.1 191.982 93.6454 206.029 93.6454 206.029C93.6454 206.029 95.5212 209.525 104.48 212.364L112.213 197.323L104.108 191.289Z" fill="url(#paint51_linear)"/>
<path d="M112.339 183.24C112.339 183.24 116.058 191.323 116.308 195.566C116.558 199.808 117.523 202.562 112.339 203.415C107.153 204.27 102.784 201.825 100.418 197.6C100.418 197.6 96.7092 191.087 97.5415 188.421C98.3738 185.754 112.339 183.24 112.339 183.24Z" fill="url(#paint52_linear)"/>
<path d="M102.191 194.562L102.487 194.438C102.862 194.282 103.023 193.858 102.835 193.514C102.104 192.177 100.678 189.114 102.52 188.4C104.894 187.479 114.295 185.665 116.323 182.509C118.272 179.477 116.545 175.561 113.949 174.447C113.776 174.372 113.57 174.432 113.482 174.591L113.265 174.977C113.117 175.242 112.703 175.203 112.616 174.914C112.531 174.638 112.142 174.584 111.981 174.827C111.357 175.771 109.674 177.303 105.173 178.088C98.7758 179.204 94.5471 181.654 94.4409 185.836C94.4341 186.101 94.1356 186.249 93.895 186.11C93.423 185.838 92.6673 185.71 91.6562 186.514C89.8988 187.912 90.6182 191.537 94.4691 194.519C94.652 194.66 94.6506 194.931 94.453 195.053C93.7551 195.483 92.7144 196.505 95.4103 197.87C98.2003 199.281 100.283 199.165 101.086 199.041C101.285 199.01 101.414 198.827 101.371 198.64L100.514 194.964C100.466 194.755 100.633 194.559 100.859 194.559H102.191V194.562Z" fill="url(#paint53_linear)"/>
<path d="M102.351 195.338C102.351 195.338 100.933 190.174 98.4856 191.622C96.0384 193.07 99.7549 197.407 101.723 197.601L102.351 195.338Z" fill="url(#paint54_linear)"/>
<path d="M111.707 215.549L112.428 233.862C114.476 234.528 116.424 235.046 118.279 235.434C119.44 231.898 121.997 227.559 124.089 224.332C116.4 221.761 111.707 215.549 111.707 215.549Z" fill="url(#paint55_linear)"/>
<path d="M150.103 215.239C139.554 226.014 131.015 226.649 124.091 224.332C121.997 227.56 119.441 231.899 118.281 235.435C146.453 241.31 153.087 216.81 153.087 216.81L150.103 215.239Z" fill="url(#paint56_linear)"/>
<path d="M152.242 214.094C152.242 214.094 153.458 212.859 155.706 213.247C157.954 213.635 159.958 214.374 161.359 213.247C162.76 212.12 163.253 213.632 163.253 213.632L159.057 216.65L152.242 214.094Z" fill="url(#paint57_linear)"/>
<path d="M149.734 216.204C149.734 216.204 150.566 212.911 153.075 213.362C155.584 213.814 161.281 216.745 162.749 216.204C164.218 215.665 166.095 214.372 167.058 214.829L165.361 216.825C165.361 216.825 169.722 214.445 170.473 215.908L163.216 219.771C163.216 219.77 152.599 218.763 149.734 216.204Z" fill="url(#paint58_linear)"/>
<path d="M99.9973 239.517C99.9973 239.517 119.831 255.232 141.248 248.374C142.576 247.949 144.029 248.041 145.268 248.661L151.425 251.738C154.009 253.029 157.21 252.182 158.71 249.808C159.565 248.454 160.295 246.908 160.441 245.427L148.393 240.813L149.282 239.415C149.282 239.415 143.399 238.943 141.86 242.933C141.86 242.933 130.655 247.341 111.761 227.679C111.76 227.679 103.185 234.576 99.9973 239.517Z" fill="url(#paint59_linear)"/>
<path d="M98.9305 239.355C98.8646 239.355 98.7987 239.338 98.7409 239.301C90.3896 233.963 86.4607 225.348 86.4231 225.26C86.3505 225.096 86.4311 224.908 86.6033 224.839C86.7767 224.769 86.9744 224.845 87.0483 225.009C87.086 225.095 90.9422 233.54 99.1214 238.769C99.2774 238.868 99.3177 239.068 99.2128 239.216C99.1456 239.306 99.0394 239.355 98.9305 239.355Z" fill="url(#paint60_linear)"/>
<path d="M111.369 227.414C111.257 227.414 111.148 227.361 111.082 227.266C111.057 227.229 108.506 223.471 103.647 215.24C102.153 212.709 100.188 211.106 97.8098 210.476C93.8702 209.435 90.0744 211.433 90.0367 211.453C89.8727 211.539 89.667 211.488 89.5742 211.332C89.4814 211.179 89.5379 210.983 89.7019 210.895C89.866 210.807 93.7707 208.74 97.9873 209.857C100.55 210.534 102.653 212.239 104.241 214.927C109.088 223.138 111.629 226.882 111.655 226.919C111.756 227.068 111.712 227.266 111.554 227.363C111.495 227.397 111.432 227.414 111.369 227.414Z" fill="url(#paint61_linear)"/>
<defs>
<linearGradient id="paint0_linear" x1="414.479" y1="387.16" x2="179.442" y2="122.69" gradientUnits="userSpaceOnUse">
<stop stop-color="#DAE3FE"/>
<stop offset="1" stop-color="#E9EFFD"/>
</linearGradient>
<linearGradient id="paint1_linear" x1="261.54" y1="257.521" x2="341.67" y2="257.521" gradientUnits="userSpaceOnUse">
<stop stop-color="#4F52FF"/>
<stop offset="1" stop-color="#4042E2"/>
</linearGradient>
<linearGradient id="paint2_linear" x1="269.484" y1="310.371" x2="316.721" y2="310.371" gradientUnits="userSpaceOnUse">
<stop stop-color="#DAE3FE"/>
<stop offset="1" stop-color="#E9EFFD"/>
</linearGradient>
<linearGradient id="paint3_linear" x1="272.612" y1="141.897" x2="168.311" y2="-87.2752" gradientUnits="userSpaceOnUse">
<stop stop-color="#4042E2"/>
<stop offset="1" stop-color="#4F52FF"/>
</linearGradient>
<linearGradient id="paint4_linear" x1="214.054" y1="124.549" x2="-69.7369" y2="508.428" gradientUnits="userSpaceOnUse">
<stop stop-color="white"/>
<stop offset="1"/>
</linearGradient>
<linearGradient id="paint5_linear" x1="214.054" y1="124.549" x2="-69.7369" y2="508.428" gradientUnits="userSpaceOnUse">
<stop stop-color="white"/>
<stop offset="1" stop-color="white"/>
</linearGradient>
<linearGradient id="paint6_linear" x1="33.8773" y1="172.294" x2="65.4872" y2="172.294" gradientUnits="userSpaceOnUse">
<stop stop-color="#DAE3FE"/>
<stop offset="1" stop-color="#E9EFFD"/>
</linearGradient>
<linearGradient id="paint7_linear" x1="74.7676" y1="159.297" x2="208.709" y2="159.297" gradientUnits="userSpaceOnUse">
<stop stop-color="#DAE3FE"/>
<stop offset="1" stop-color="#E9EFFD"/>
</linearGradient>
<linearGradient id="paint8_linear" x1="77.2228" y1="179.639" x2="167.128" y2="179.639" gradientUnits="userSpaceOnUse">
<stop stop-color="#DAE3FE"/>
<stop offset="1" stop-color="#E9EFFD"/>
</linearGradient>
<linearGradient id="paint9_linear" x1="33.8773" y1="230.444" x2="65.4872" y2="230.444" gradientUnits="userSpaceOnUse">
<stop stop-color="#DAE3FE"/>
<stop offset="1" stop-color="#E9EFFD"/>
</linearGradient>
<linearGradient id="paint10_linear" x1="74.7676" y1="217.447" x2="208.709" y2="217.447" gradientUnits="userSpaceOnUse">
<stop stop-color="#DAE3FE"/>
<stop offset="1" stop-color="#E9EFFD"/>
</linearGradient>
<linearGradient id="paint11_linear" x1="33.8773" y1="288.595" x2="65.4872" y2="288.595" gradientUnits="userSpaceOnUse">
<stop stop-color="#DAE3FE"/>
<stop offset="1" stop-color="#E9EFFD"/>
</linearGradient>
<linearGradient id="paint12_linear" x1="74.7676" y1="275.598" x2="208.709" y2="275.598" gradientUnits="userSpaceOnUse">
<stop stop-color="#DAE3FE"/>
<stop offset="1" stop-color="#E9EFFD"/>
</linearGradient>
<linearGradient id="paint13_linear" x1="77.2228" y1="295.94" x2="167.128" y2="295.94" gradientUnits="userSpaceOnUse">
<stop stop-color="#DAE3FE"/>
<stop offset="1" stop-color="#E9EFFD"/>
</linearGradient>
<linearGradient id="paint14_linear" x1="182.996" y1="276.058" x2="144.8" y2="379.427" gradientUnits="userSpaceOnUse">
<stop stop-color="#09005D"/>
<stop offset="1" stop-color="#1A0F91"/>
</linearGradient>
<linearGradient id="paint15_linear" x1="152.216" y1="247.615" x2="144.752" y2="249.163" gradientUnits="userSpaceOnUse">
<stop stop-color="#FEBBBA"/>
<stop offset="1" stop-color="#FF928E"/>
</linearGradient>
<linearGradient id="paint16_linear" x1="145.899" y1="240.491" x2="180.686" y2="240.491" gradientUnits="userSpaceOnUse">
<stop stop-color="#FEBBBA"/>
<stop offset="1" stop-color="#FF928E"/>
</linearGradient>
<linearGradient id="paint17_linear" x1="249.114" y1="130.028" x2="229.731" y2="170.426" gradientUnits="userSpaceOnUse">
<stop stop-color="#09005D"/>
<stop offset="1" stop-color="#1A0F91"/>
</linearGradient>
<linearGradient id="paint18_linear" x1="282.95" y1="146.262" x2="263.567" y2="186.66" gradientUnits="userSpaceOnUse">
<stop stop-color="#09005D"/>
<stop offset="1" stop-color="#1A0F91"/>
</linearGradient>
<linearGradient id="paint19_linear" x1="223.735" y1="207.574" x2="218.689" y2="191.574" gradientUnits="userSpaceOnUse">
<stop stop-color="#FEBBBA"/>
<stop offset="1" stop-color="#FF928E"/>
</linearGradient>
<linearGradient id="paint20_linear" x1="210.705" y1="188.145" x2="230.387" y2="197.191" gradientUnits="userSpaceOnUse">
<stop stop-color="#FEBBBA"/>
<stop offset="1" stop-color="#FF928E"/>
</linearGradient>
<linearGradient id="paint21_linear" x1="225.202" y1="199.51" x2="209.748" y2="182.156" gradientUnits="userSpaceOnUse">
<stop stop-color="#09005D"/>
<stop offset="1" stop-color="#1A0F91"/>
</linearGradient>
<linearGradient id="paint22_linear" x1="209.455" y1="190.863" x2="229.137" y2="199.909" gradientUnits="userSpaceOnUse">
<stop stop-color="#FEBBBA"/>
<stop offset="1" stop-color="#FF928E"/>
</linearGradient>
<linearGradient id="paint23_linear" x1="248.779" y1="391.042" x2="223.861" y2="391.042" gradientUnits="userSpaceOnUse">
<stop stop-color="#4042E2"/>
<stop offset="1" stop-color="#4F52FF"/>
</linearGradient>
<linearGradient id="paint24_linear" x1="308.923" y1="368.987" x2="219.487" y2="395.932" gradientUnits="userSpaceOnUse">
<stop stop-color="#09005D"/>
<stop offset="1" stop-color="#1A0F91"/>
</linearGradient>
<linearGradient id="paint25_linear" x1="246.478" y1="379.972" x2="239.46" y2="379.972" gradientUnits="userSpaceOnUse">
<stop stop-color="#FEBBBA"/>
<stop offset="1" stop-color="#FF928E"/>
</linearGradient>
<linearGradient id="paint26_linear" x1="298.455" y1="390.534" x2="288.906" y2="390.534" gradientUnits="userSpaceOnUse">
<stop stop-color="#4042E2"/>
<stop offset="1" stop-color="#4F52FF"/>
</linearGradient>
<linearGradient id="paint27_linear" x1="258.625" y1="364.042" x2="312.953" y2="401.437" gradientUnits="userSpaceOnUse">
<stop stop-color="#09005D"/>
<stop offset="1" stop-color="#1A0F91"/>
</linearGradient>
<linearGradient id="paint28_linear" x1="291.099" y1="374.436" x2="282.711" y2="374.436" gradientUnits="userSpaceOnUse">
<stop stop-color="#FEBBBA"/>
<stop offset="1" stop-color="#FF928E"/>
</linearGradient>
<linearGradient id="paint29_linear" x1="292.282" y1="386.088" x2="173.441" y2="212.413" gradientUnits="userSpaceOnUse">
<stop stop-color="#09005D"/>
<stop offset="1" stop-color="#1A0F91"/>
</linearGradient>
<linearGradient id="paint30_linear" x1="261.476" y1="364.291" x2="252.598" y2="296.807" gradientUnits="userSpaceOnUse">
<stop stop-color="#FF928E"/>
<stop offset="1" stop-color="#FE7062"/>
</linearGradient>
<linearGradient id="paint31_linear" x1="237.923" y1="284.472" x2="236.659" y2="276.618" gradientUnits="userSpaceOnUse">
<stop stop-color="#E1473D"/>
<stop offset="1" stop-color="#E9605A"/>
</linearGradient>
<linearGradient id="paint32_linear" x1="235.889" y1="272.706" x2="240.175" y2="295.15" gradientUnits="userSpaceOnUse">
<stop stop-color="#E1473D"/>
<stop offset="1" stop-color="#E9605A"/>
</linearGradient>
<linearGradient id="paint33_linear" x1="260.981" y1="280.761" x2="259.717" y2="272.907" gradientUnits="userSpaceOnUse">
<stop stop-color="#E1473D"/>
<stop offset="1" stop-color="#E9605A"/>
</linearGradient>
<linearGradient id="paint34_linear" x1="258.794" y1="268.334" x2="263.08" y2="290.778" gradientUnits="userSpaceOnUse">
<stop stop-color="#E1473D"/>
<stop offset="1" stop-color="#E9605A"/>
</linearGradient>
<linearGradient id="paint35_linear" x1="247.786" y1="258.503" x2="247.66" y2="274.848" gradientUnits="userSpaceOnUse">
<stop stop-color="#E1473D"/>
<stop offset="1" stop-color="#E9605A"/>
</linearGradient>
<linearGradient id="paint36_linear" x1="237.821" y1="269.874" x2="230.72" y2="227.244" gradientUnits="userSpaceOnUse">
<stop stop-color="#FEBBBA"/>
<stop offset="1" stop-color="#FF928E"/>
</linearGradient>
<linearGradient id="paint37_linear" x1="250.177" y1="270.932" x2="251.659" y2="346.939" gradientUnits="userSpaceOnUse">
<stop stop-color="#FF928E"/>
<stop offset="1" stop-color="#FE7062"/>
</linearGradient>
<linearGradient id="paint38_linear" x1="252.044" y1="280.11" x2="252.087" y2="305.588" gradientUnits="userSpaceOnUse">
<stop stop-color="#E1473D"/>
<stop offset="1" stop-color="#E9605A"/>
</linearGradient>
<linearGradient id="paint39_linear" x1="247.537" y1="300.65" x2="257.246" y2="299.336" gradientUnits="userSpaceOnUse">
<stop stop-color="#FF928E"/>
<stop offset="1" stop-color="#FE7062"/>
</linearGradient>
<linearGradient id="paint40_linear" x1="258.119" y1="253.559" x2="240.73" y2="288.906" gradientUnits="userSpaceOnUse">
<stop stop-color="#FEBBBA"/>
<stop offset="1" stop-color="#FF928E"/>
</linearGradient>
<linearGradient id="paint41_linear" x1="296.369" y1="152.699" x2="276.987" y2="193.098" gradientUnits="userSpaceOnUse">
<stop stop-color="#09005D"/>
<stop offset="1" stop-color="#1A0F91"/>
</linearGradient>
<linearGradient id="paint42_linear" x1="303.158" y1="172.882" x2="190.279" y2="307.83" gradientUnits="userSpaceOnUse">
<stop stop-color="#4042E2"/>
<stop offset="1" stop-color="#4F52FF"/>
</linearGradient>
<linearGradient id="paint43_linear" x1="80.0048" y1="384.841" x2="96.3509" y2="384.841" gradientUnits="userSpaceOnUse">
<stop stop-color="#09005D"/>
<stop offset="1" stop-color="#1A0F91"/>
</linearGradient>
<linearGradient id="paint44_linear" x1="120.926" y1="366.599" x2="64.0064" y2="413.842" gradientUnits="userSpaceOnUse">
<stop stop-color="#4042E2"/>
<stop offset="1" stop-color="#4F52FF"/>
</linearGradient>
<linearGradient id="paint45_linear" x1="84.5504" y1="367.236" x2="81.7521" y2="393.051" gradientUnits="userSpaceOnUse">
<stop stop-color="#A22B25"/>
<stop offset="1" stop-color="#C0423C"/>
</linearGradient>
<linearGradient id="paint46_linear" x1="131.49" y1="379.308" x2="74.569" y2="426.551" gradientUnits="userSpaceOnUse">
<stop stop-color="#4042E2"/>
<stop offset="1" stop-color="#4F52FF"/>
</linearGradient>
<linearGradient id="paint47_linear" x1="104.895" y1="385.234" x2="128.425" y2="385.234" gradientUnits="userSpaceOnUse">
<stop stop-color="#09005D"/>
<stop offset="1" stop-color="#1A0F91"/>
</linearGradient>
<linearGradient id="paint48_linear" x1="109.558" y1="369.959" x2="108.303" y2="395.88" gradientUnits="userSpaceOnUse">
<stop stop-color="#A22B25"/>
<stop offset="1" stop-color="#C0423C"/>
</linearGradient>
<linearGradient id="paint49_linear" x1="83.6878" y1="396.716" x2="104.417" y2="236.363" gradientUnits="userSpaceOnUse">
<stop stop-color="#4F52FF"/>
<stop offset="1" stop-color="#4042E2"/>
</linearGradient>
<linearGradient id="paint50_linear" x1="414.27" y1="-154.576" x2="335.694" y2="-43.8557" gradientUnits="userSpaceOnUse">
<stop stop-color="#FF928E"/>
<stop offset="1" stop-color="#FE7062"/>
</linearGradient>
<linearGradient id="paint51_linear" x1="94.0196" y1="220.641" x2="109.332" y2="184.224" gradientUnits="userSpaceOnUse">
<stop stop-color="#A22B25"/>
<stop offset="1" stop-color="#C0423C"/>
</linearGradient>
<linearGradient id="paint52_linear" x1="88.4552" y1="164.614" x2="110.522" y2="200.185" gradientUnits="userSpaceOnUse">
<stop stop-color="#A22B25"/>
<stop offset="1" stop-color="#C0423C"/>
</linearGradient>
<linearGradient id="paint53_linear" x1="90.6905" y1="170.638" x2="107.481" y2="191.425" gradientUnits="userSpaceOnUse">
<stop stop-color="#09005D"/>
<stop offset="1" stop-color="#1A0F91"/>
</linearGradient>
<linearGradient id="paint54_linear" x1="82.2118" y1="168.487" x2="104.279" y2="204.058" gradientUnits="userSpaceOnUse">
<stop stop-color="#A22B25"/>
<stop offset="1" stop-color="#C0423C"/>
</linearGradient>
<linearGradient id="paint55_linear" x1="223.624" y1="121.171" x2="130.383" y2="221.218" gradientUnits="userSpaceOnUse">
<stop stop-color="#FF928E"/>
<stop offset="1" stop-color="#FE7062"/>
</linearGradient>
<linearGradient id="paint56_linear" x1="164.031" y1="213.699" x2="119.45" y2="237.141" gradientUnits="userSpaceOnUse">
<stop stop-color="#A22B25"/>
<stop offset="1" stop-color="#C0423C"/>
</linearGradient>
<linearGradient id="paint57_linear" x1="163.363" y1="208.315" x2="148.659" y2="224.548" gradientUnits="userSpaceOnUse">
<stop stop-color="#A22B25"/>
<stop offset="1" stop-color="#C0423C"/>
</linearGradient>
<linearGradient id="paint58_linear" x1="164.248" y1="213.445" x2="119.667" y2="236.886" gradientUnits="userSpaceOnUse">
<stop stop-color="#A22B25"/>
<stop offset="1" stop-color="#C0423C"/>
</linearGradient>
<linearGradient id="paint59_linear" x1="183.311" y1="249.871" x2="51.4125" y2="224.66" gradientUnits="userSpaceOnUse">
<stop stop-color="#A22B25"/>
<stop offset="1" stop-color="#C0423C"/>
</linearGradient>
<linearGradient id="paint60_linear" x1="136.311" y1="154.44" x2="26.8134" y2="372.922" gradientUnits="userSpaceOnUse">
<stop stop-color="#E1473D"/>
<stop offset="1" stop-color="#E9605A"/>
</linearGradient>
<linearGradient id="paint61_linear" x1="136.728" y1="154.65" x2="27.2305" y2="373.131" gradientUnits="userSpaceOnUse">
<stop stop-color="#E1473D"/>
<stop offset="1" stop-color="#E9605A"/>
</linearGradient>
</defs>
</svg>
