<svg width="96" height="96" viewBox="0 0 96 96" fill="none" xmlns="http://www.w3.org/2000/svg">
<rect width="96" height="96" rx="15" fill="white"/>
<path d="M66.7972 39.1635L67.569 37.89C67.569 37.89 68.2485 36.7635 68.2485 35.2508C68.2485 31.5863 64.752 31.683 64.752 31.683L57.1343 29.6093L52.9785 25.5L47.5103 26.9887L45.717 26.5005L44.3542 27.8482L36.4815 29.9917C36.4815 29.9917 33.4515 29.9085 33.4515 33.084C33.4515 34.395 34.041 35.3715 34.041 35.3715L35.0543 37.044L34.164 37.923L29.769 39.12C29.769 39.12 26.2725 39.0232 26.2725 42.6877C26.2795 43.5415 26.4792 44.3827 26.8568 45.1485L25.5 46.4902L26.2117 46.7723C26.2275 46.8105 26.2335 46.8532 26.2643 46.884C27.6405 48.2632 27.5273 50.1157 27.3307 51.1162L26.499 51.9495L32.7997 54.9788L41.4532 69.2625C42.84 71.442 45.7838 70.0785 45.7838 70.0785L68.0205 59.3865L67.1888 58.5532C66.9922 57.5527 66.879 55.7002 68.2552 54.3202C68.286 54.2895 68.292 54.2467 68.3078 54.2092L69.0195 53.9265L64.8848 49.839L69.6322 47.5568L68.9115 46.8345C68.7412 45.9675 68.643 44.3617 69.8363 43.1663C69.8625 43.1392 69.867 43.1033 69.8812 43.0695L70.5 42.8243L66.7972 39.1635ZM62.5335 32.5373L61.596 34.0208L59.1705 31.6223L62.5335 32.5373ZM53.382 29.358L56.8643 33.0803L44.2725 37.6305L41.2987 33.0135L53.382 29.358ZM35.808 38.289L44.4007 52.4723L28.0305 45.9788L35.808 38.289ZM32.2267 39.8392L31.218 40.8368L30.8145 40.218L32.2267 39.8392ZM29.0415 40.6147L29.9805 42.06L27.9458 44.0715C27.7856 43.6275 27.7017 43.1597 27.6975 42.6877C27.6975 41.3182 28.377 40.797 29.0415 40.6147ZM27.8655 51.7695L27.8767 51.726L46.737 59.9812L28.0245 51.0608C28.0418 50.9595 28.0553 50.8477 28.0695 50.7352L42.7192 56.8703L28.1205 50.0332C28.1242 49.7208 28.1027 49.4085 28.056 49.0995L41.6152 54.6833L27.8737 48.3C27.7855 48.0045 27.6674 47.7188 27.5213 47.4473L46.1835 55.416L46.608 56.1165C47.4832 57.492 49.071 57.2378 49.8713 56.9993C50.9775 57.5452 52.9605 58.8083 52.4528 60.669C52.185 61.653 51.5962 62.13 50.6535 62.13C49.6987 62.13 48.7455 61.6305 48.7357 61.6237L27.8655 51.7695ZM46.65 61.6388L45.1755 62.2493L43.923 60.327L46.65 61.6388ZM40.9395 65.6745L35.1427 56.1052L40.9042 58.875L43.629 63.069C42.5303 63.5385 41.3025 64.6103 40.9395 65.6745ZM66.4642 56.5365C66.4176 56.8455 66.3961 57.1578 66.3997 57.4702L51.801 64.3073L66.4508 58.1722C66.465 58.284 66.4777 58.3965 66.4958 58.4977L47.7833 67.419L66.6435 59.1637C66.6477 59.1781 66.6514 59.1926 66.6548 59.2073L45.7845 69.06C45.7747 69.0667 44.823 69.5662 43.8668 69.5662C42.9233 69.5662 42.3353 69.0885 42.0675 68.1052C41.379 65.58 45.294 64.1483 45.3525 64.1265L48.7837 62.6625C49.152 62.8192 51.7793 63.8505 53.067 61.8263L53.8792 60.4867L66.9997 54.8843C66.8536 55.1559 66.7353 55.4416 66.6465 55.737L52.905 62.1203L66.4642 56.5365ZM66.4897 53.4158L55.371 58.0238L58.4565 52.9305L63.5317 50.4907L66.4897 53.4158ZM68.2845 45.0855C68.2446 45.3534 68.2258 45.6239 68.2282 45.8948L55.5773 51.8197L68.2732 46.503C68.286 46.5998 68.2965 46.698 68.3122 46.785L52.0942 54.516L68.4398 47.3617C68.4437 47.3741 68.447 47.3866 68.4495 47.3993L50.3617 55.9395C50.3535 55.9447 49.5277 56.3783 48.6997 56.3783C47.8815 56.3783 47.3722 55.9635 47.1405 55.1115C46.5435 52.923 49.9365 51.6825 49.9875 51.6637L68.748 43.6537C68.6215 43.8893 68.5192 44.1371 68.4427 44.3932L56.5327 49.9253L68.2845 45.0855Z" fill="#404040"/>
</svg>
