<svg width="96" height="96" viewBox="0 0 96 96" fill="none" xmlns="http://www.w3.org/2000/svg">
<rect width="96" height="96" rx="15" fill="white"/>
<path d="M69 60C69 60.7956 68.6839 61.5587 68.1213 62.1213C67.5587 62.6839 66.7957 63 66 63H30C29.2044 63 28.4413 62.6839 27.8787 62.1213C27.3161 61.5587 27 60.7956 27 60V42C27 41.2044 27.3161 40.4413 27.8787 39.8787C28.4413 39.3161 29.2044 39 30 39H33.516C35.9017 38.9987 38.1893 38.0502 39.876 36.363L42.366 33.879C42.927 33.3178 43.6875 33.0018 44.481 33H51.513C52.3086 33.0002 53.0715 33.3164 53.634 33.879L56.118 36.363C56.9539 37.1991 57.9463 37.8624 59.0386 38.3149C60.1309 38.7673 61.3017 39.0001 62.484 39H66C66.7957 39 67.5587 39.3161 68.1213 39.8787C68.6839 40.4413 69 41.2044 69 42V60ZM30 36C28.4087 36 26.8826 36.6321 25.7574 37.7574C24.6321 38.8826 24 40.4087 24 42V60C24 61.5913 24.6321 63.1174 25.7574 64.2426C26.8826 65.3679 28.4087 66 30 66H66C67.5913 66 69.1174 65.3679 70.2426 64.2426C71.3679 63.1174 72 61.5913 72 60V42C72 40.4087 71.3679 38.8826 70.2426 37.7574C69.1174 36.6321 67.5913 36 66 36H62.484C60.8928 35.9997 59.367 35.3673 58.242 34.242L55.758 31.758C54.633 30.6327 53.1072 30.0003 51.516 30H44.484C42.8928 30.0003 41.367 30.6327 40.242 31.758L37.758 34.242C36.633 35.3673 35.1072 35.9997 33.516 36H30Z" fill="#404040"/>
<path d="M48 57C46.0109 57 44.1032 56.2098 42.6967 54.8033C41.2902 53.3968 40.5 51.4891 40.5 49.5C40.5 47.5109 41.2902 45.6032 42.6967 44.1967C44.1032 42.7902 46.0109 42 48 42C49.9891 42 51.8968 42.7902 53.3033 44.1967C54.7098 45.6032 55.5 47.5109 55.5 49.5C55.5 51.4891 54.7098 53.3968 53.3033 54.8033C51.8968 56.2098 49.9891 57 48 57ZM48 60C50.7848 60 53.4555 58.8938 55.4246 56.9246C57.3938 54.9555 58.5 52.2848 58.5 49.5C58.5 46.7152 57.3938 44.0445 55.4246 42.0754C53.4555 40.1062 50.7848 39 48 39C45.2152 39 42.5445 40.1062 40.5754 42.0754C38.6062 44.0445 37.5 46.7152 37.5 49.5C37.5 52.2848 38.6062 54.9555 40.5754 56.9246C42.5445 58.8938 45.2152 60 48 60ZM33 43.5C33 43.8978 32.842 44.2794 32.5607 44.5607C32.2794 44.842 31.8978 45 31.5 45C31.1022 45 30.7206 44.842 30.4393 44.5607C30.158 44.2794 30 43.8978 30 43.5C30 43.1022 30.158 42.7206 30.4393 42.4393C30.7206 42.158 31.1022 42 31.5 42C31.8978 42 32.2794 42.158 32.5607 42.4393C32.842 42.7206 33 43.1022 33 43.5Z" fill="#404040"/>
<path d="M48 57C46.0109 57 44.1032 56.2098 42.6967 54.8033C41.2902 53.3968 40.5 51.4891 40.5 49.5C40.5 47.5109 41.2902 45.6032 42.6967 44.1967C44.1032 42.7902 46.0109 42 48 42C49.9891 42 51.8968 42.7902 53.3033 44.1967C54.7098 45.6032 55.5 47.5109 55.5 49.5C55.5 51.4891 54.7098 53.3968 53.3033 54.8033C51.8968 56.2098 49.9891 57 48 57ZM48 60C50.7848 60 53.4555 58.8938 55.4246 56.9246C57.3938 54.9555 58.5 52.2848 58.5 49.5C58.5 46.7152 57.3938 44.0445 55.4246 42.0754C53.4555 40.1062 50.7848 39 48 39C45.2152 39 42.5445 40.1062 40.5754 42.0754C38.6062 44.0445 37.5 46.7152 37.5 49.5C37.5 52.2848 38.6062 54.9555 40.5754 56.9246C42.5445 58.8938 45.2152 60 48 60ZM33 43.5C33 43.8978 32.842 44.2794 32.5607 44.5607C32.2794 44.842 31.8978 45 31.5 45C31.1022 45 30.7206 44.842 30.4393 44.5607C30.158 44.2794 30 43.8978 30 43.5C30 43.1022 30.158 42.7206 30.4393 42.4393C30.7206 42.158 31.1022 42 31.5 42C31.8978 42 32.2794 42.158 32.5607 42.4393C32.842 42.7206 33 43.1022 33 43.5Z" fill="black" fill-opacity="0.2"/>
<path d="M48 57C46.0109 57 44.1032 56.2098 42.6967 54.8033C41.2902 53.3968 40.5 51.4891 40.5 49.5C40.5 47.5109 41.2902 45.6032 42.6967 44.1967C44.1032 42.7902 46.0109 42 48 42C49.9891 42 51.8968 42.7902 53.3033 44.1967C54.7098 45.6032 55.5 47.5109 55.5 49.5C55.5 51.4891 54.7098 53.3968 53.3033 54.8033C51.8968 56.2098 49.9891 57 48 57ZM48 60C50.7848 60 53.4555 58.8938 55.4246 56.9246C57.3938 54.9555 58.5 52.2848 58.5 49.5C58.5 46.7152 57.3938 44.0445 55.4246 42.0754C53.4555 40.1062 50.7848 39 48 39C45.2152 39 42.5445 40.1062 40.5754 42.0754C38.6062 44.0445 37.5 46.7152 37.5 49.5C37.5 52.2848 38.6062 54.9555 40.5754 56.9246C42.5445 58.8938 45.2152 60 48 60ZM33 43.5C33 43.8978 32.842 44.2794 32.5607 44.5607C32.2794 44.842 31.8978 45 31.5 45C31.1022 45 30.7206 44.842 30.4393 44.5607C30.158 44.2794 30 43.8978 30 43.5C30 43.1022 30.158 42.7206 30.4393 42.4393C30.7206 42.158 31.1022 42 31.5 42C31.8978 42 32.2794 42.158 32.5607 42.4393C32.842 42.7206 33 43.1022 33 43.5Z" fill="black" fill-opacity="0.2"/>
<path d="M48 57C46.0109 57 44.1032 56.2098 42.6967 54.8033C41.2902 53.3968 40.5 51.4891 40.5 49.5C40.5 47.5109 41.2902 45.6032 42.6967 44.1967C44.1032 42.7902 46.0109 42 48 42C49.9891 42 51.8968 42.7902 53.3033 44.1967C54.7098 45.6032 55.5 47.5109 55.5 49.5C55.5 51.4891 54.7098 53.3968 53.3033 54.8033C51.8968 56.2098 49.9891 57 48 57ZM48 60C50.7848 60 53.4555 58.8938 55.4246 56.9246C57.3938 54.9555 58.5 52.2848 58.5 49.5C58.5 46.7152 57.3938 44.0445 55.4246 42.0754C53.4555 40.1062 50.7848 39 48 39C45.2152 39 42.5445 40.1062 40.5754 42.0754C38.6062 44.0445 37.5 46.7152 37.5 49.5C37.5 52.2848 38.6062 54.9555 40.5754 56.9246C42.5445 58.8938 45.2152 60 48 60ZM33 43.5C33 43.8978 32.842 44.2794 32.5607 44.5607C32.2794 44.842 31.8978 45 31.5 45C31.1022 45 30.7206 44.842 30.4393 44.5607C30.158 44.2794 30 43.8978 30 43.5C30 43.1022 30.158 42.7206 30.4393 42.4393C30.7206 42.158 31.1022 42 31.5 42C31.8978 42 32.2794 42.158 32.5607 42.4393C32.842 42.7206 33 43.1022 33 43.5Z" fill="black" fill-opacity="0.2"/>
</svg>
