<svg width="96" height="96" viewBox="0 0 96 96" fill="none" xmlns="http://www.w3.org/2000/svg">
<rect width="96" height="96" rx="15" fill="white"/>
<path d="M64.5 33C64.8978 33 65.2794 33.158 65.5607 33.4393C65.842 33.7206 66 34.1022 66 34.5V57H30V34.5C30 34.1022 30.158 33.7206 30.4393 33.4393C30.7206 33.158 31.1022 33 31.5 33H64.5ZM31.5 30C30.3065 30 29.1619 30.4741 28.318 31.318C27.4741 32.1619 27 33.3065 27 34.5V60H69V34.5C69 33.3065 68.5259 32.1619 67.682 31.318C66.8381 30.4741 65.6935 30 64.5 30H31.5ZM24 61.5H72C72 62.6935 71.5259 63.8381 70.682 64.682C69.8381 65.5259 68.6935 66 67.5 66H28.5C27.3065 66 26.1619 65.5259 25.318 64.682C24.4741 63.8381 24 62.6935 24 61.5V61.5Z" fill="#404040"/>
</svg>
