<svg width="92" height="102" viewBox="0 0 92 102" fill="none" xmlns="http://www.w3.org/2000/svg">
<path d="M47.8435 16.0765L45.4069 0H9.65762C4.27452 0 0 4.36654 0 9.72537V77.0298C0 82.3886 4.27452 86.6667 9.65762 86.6667H43.569L68 49.8383V23.5746L47.8435 16.0765Z" fill="#00ACEA"/>
<path d="M45.3333 0L68 23.3333H52.9114C48.721 23.3333 45.3333 20.0125 45.3333 15.9049V0Z" fill="#00EFD1"/>
<path d="M15.6248 54.7904H44.3798C45.5933 54.7904 46.5869 53.798 46.5869 52.5839C46.5869 51.3703 45.5933 50.3767 44.3798 50.3767H15.6248C14.4113 50.3767 13.4176 51.3703 13.4176 52.5839C13.4176 53.798 14.4113 54.7904 15.6248 54.7904Z" fill="#083863"/>
<path d="M15.6248 43.7565H37.9801C39.1936 43.7565 40.1872 42.7635 40.1872 41.5493C40.1872 40.3358 39.1936 39.3428 37.9801 39.3428H15.6248C14.4113 39.3428 13.4176 40.3358 13.4176 41.5493C13.4176 42.7635 14.4113 43.7565 15.6248 43.7565Z" fill="#083863"/>
<path d="M37.119 61.6317H15.6248C14.4113 61.6317 13.4176 62.6253 13.4176 63.8383C13.4176 65.0524 14.4113 66.0454 15.6248 66.0454H37.119C38.3332 66.0454 39.3262 65.0524 39.3262 63.8383C39.3262 62.6253 38.3332 61.6317 37.119 61.6317Z" fill="#083863"/>
<path d="M67.6224 45.6193C81.4006 47.5283 92 59.2071 92 73.3438C92 88.7981 79.3115 101.333 63.667 101.333C52.9116 101.333 43.5336 95.4062 38.7554 86.6691C36.5778 82.6959 35.3333 78.152 35.3333 73.3223C35.3333 57.8681 48.0224 45.3334 63.667 45.3334C65.0006 45.3556 66.3112 45.4437 67.6224 45.6193Z" fill="#FEDB41"/>
<path d="M85.8828 69.5535L65.0998 51.8673C64.2766 51.1554 63.0524 51.1554 62.2073 51.8673L41.4469 69.5535C40.5125 70.3547 40.4007 71.7554 41.202 72.6902C41.6467 73.2023 42.2701 73.4689 42.8928 73.4689C43.405 73.4689 43.9609 73.291 44.3844 72.935L46.8091 70.8886V89.5977C46.8091 90.9547 47.8109 92 49.1675 92H78.139C79.4969 92 80.6311 90.9547 80.6311 89.5977V70.8886L83.0127 72.935C83.9471 73.7362 85.3487 73.6244 86.1495 72.6902C86.929 71.7554 86.8172 70.3547 85.8828 69.5535ZM76.1809 87.5507H51.2593V67.1062L63.7201 56.4728L76.1809 67.1062V87.5507Z" fill="#083863"/>
</svg>
