<svg width="479" height="463" viewBox="0 0 479 463" fill="none" xmlns="http://www.w3.org/2000/svg">
<path d="M246.465 29.3673C124.086 25.9954 18.0788 108.861 2.06298 217.593C-15.4479 336.475 80.9308 443.442 199.52 460.574C347.025 481.884 490.095 358.605 477.249 224.866C467.571 124.106 370.867 32.796 246.465 29.3673Z" fill="#F4F7FA"/>
<g opacity="0.4">
<path opacity="0.4" d="M233.523 49.5188L235.967 60.7616C230.728 62.7399 225.733 65.1031 221.04 67.848L212.925 59.2787C210.711 56.9415 206.878 56.7466 204.365 58.845L188.628 71.98C186.109 74.0833 185.857 77.6891 188.069 80.036L196.256 88.7239C192.798 92.8413 189.712 97.2315 187.047 101.848L175.261 98.1963C172.083 97.212 168.628 98.8509 167.545 101.857L160.754 120.695C159.666 123.713 161.365 126.964 164.55 127.955L176.376 131.637C175.541 136.783 175.191 142.045 175.318 147.368L162.994 149.801C159.685 150.454 157.531 153.517 158.18 156.645L162.256 176.246C162.909 179.387 166.129 181.403 169.448 180.748L181.808 178.307C183.848 183.29 186.306 188.043 189.171 192.512L179.713 200.473C177.163 202.62 176.906 206.31 179.14 208.719L193.142 223.804C195.386 226.221 199.276 226.434 201.829 224.277L211.285 216.294C215.673 219.612 220.363 222.559 225.298 225.109L221.291 236.496C220.207 239.579 221.945 242.907 225.176 243.927L245.405 250.315C248.644 251.338 252.144 249.66 253.222 246.569L257.164 235.27C262.704 236.054 268.369 236.358 274.099 236.204L276.631 247.856C277.324 251.046 280.599 253.097 283.948 252.436L304.879 248.304C308.226 247.643 310.368 244.521 309.665 241.334L307.117 229.781C312.474 227.775 317.574 225.36 322.36 222.555L330.594 231.294C332.881 233.72 336.796 233.933 339.335 231.769L355.206 218.254C357.741 216.096 357.939 212.386 355.65 209.968L347.442 201.303C350.961 197.062 354.073 192.533 356.75 187.781L368.368 191.397C371.614 192.407 375.093 190.74 376.136 187.674L382.645 168.539C383.684 165.484 381.898 162.197 378.659 161.193L367.153 157.629C367.933 152.362 368.199 146.983 367.973 141.551L379.794 139.217C383.113 138.563 385.219 135.493 384.5 132.366L380.01 112.848C379.293 109.733 376.03 107.74 372.723 108.393L360.936 110.721C358.781 105.707 356.207 100.936 353.217 96.4682L362.123 88.9481C364.628 86.8334 364.821 83.2097 362.557 80.853L348.42 66.1475C346.165 63.8005 342.308 63.6056 339.807 65.7106L330.843 73.255C326.398 70.0017 321.662 67.1171 316.688 64.6434L320.435 53.9009C321.478 50.9124 319.734 47.6997 316.54 46.7236L296.594 40.6377C293.408 39.6648 289.975 41.2939 288.926 44.2759L285.137 55.0428C279.654 54.3232 274.055 54.0666 268.395 54.2664L265.936 43.1195C265.259 40.053 262.051 38.0925 258.77 38.739L238.254 42.7897C234.975 43.4378 232.856 46.4507 233.523 49.5188ZM198.585 158.797C190.506 120.862 216.454 83.8676 256.501 75.9609C296.546 68.0543 335.877 92.1608 344.395 130.01C352.965 168.088 327.129 205.605 286.644 213.598C246.159 221.591 206.713 196.963 198.585 158.797Z" fill="url(#paint0_linear)"/>
</g>
<path d="M66.4866 182.322L68.0199 189.381C64.7322 190.623 61.5958 192.106 58.6492 193.83L53.5549 188.45C52.1642 186.982 49.7589 186.86 48.182 188.177L38.3031 196.423C36.721 197.744 36.5644 200.008 37.9515 201.481L43.0911 206.935C40.919 209.521 38.9836 212.276 37.311 215.175L29.9123 212.883C27.9177 212.266 25.7491 213.294 25.0686 215.181L20.8061 227.006C20.1239 228.899 21.189 230.941 23.1888 231.563L30.6137 233.874C30.0898 237.105 29.8705 240.407 29.9488 243.75L22.2124 245.276C20.1361 245.686 18.782 247.61 19.191 249.572L21.7495 261.877C22.1602 263.849 24.1809 265.114 26.2643 264.703L34.0233 263.172C35.3043 266.3 36.8463 269.284 38.646 272.089L32.7092 277.086C31.108 278.434 30.9479 280.751 32.3507 282.263L41.1401 291.732C42.5481 293.249 44.99 293.382 46.593 292.029L52.5297 287.017C55.2849 289.099 58.2298 290.949 61.3261 292.55L58.8111 299.699C58.1306 301.635 59.2218 303.723 61.2495 304.363L73.948 308.373C75.9808 309.015 78.1791 307.962 78.8544 306.022L81.3293 298.929C84.8068 299.421 88.3643 299.612 91.9601 299.515L93.5492 306.829C93.9843 308.831 96.0415 310.119 98.1423 309.704L111.283 307.11C113.384 306.696 114.729 304.735 114.287 302.734L112.687 295.482C116.05 294.223 119.251 292.706 122.257 290.946L127.426 296.432C128.862 297.956 131.317 298.089 132.913 296.731L142.876 288.246C144.467 286.892 144.592 284.563 143.154 283.044L138.003 277.604C140.211 274.942 142.164 272.1 143.845 269.116L151.138 271.387C153.176 272.022 155.36 270.974 156.015 269.05L160.101 257.039C160.754 255.121 159.633 253.058 157.599 252.428L150.376 250.191C150.866 246.884 151.032 243.507 150.891 240.098L158.312 238.633C160.395 238.222 161.718 236.296 161.266 234.332L158.446 222.079C157.997 220.124 155.949 218.873 153.87 219.282L146.472 220.743C145.119 217.595 143.502 214.6 141.626 211.795L147.217 207.073C148.788 205.746 148.91 203.471 147.488 201.991L138.615 192.761C137.198 191.288 134.779 191.164 133.208 192.486L127.581 197.222C124.791 195.181 121.818 193.37 118.695 191.816L121.049 185.072C121.703 183.196 120.608 181.179 118.603 180.566L106.081 176.743C104.081 176.132 101.926 177.154 101.266 179.027L98.8872 185.785C95.4463 185.333 91.9305 185.172 88.3782 185.298L86.8344 178.3C86.4098 176.376 84.396 175.145 82.337 175.551L69.4576 178.094C67.3968 178.505 66.0671 180.396 66.4866 182.322ZM43.6707 251.091C38.5015 226.819 55.1056 203.146 80.7288 198.088C106.352 193.029 131.518 208.454 136.967 232.671C142.449 257.036 125.92 281.041 100.015 286.154C74.1098 291.269 48.8713 275.511 43.6707 251.091Z" fill="#D8DEE8"/>
<g opacity="0.7">
<path opacity="0.7" d="M237.904 337C234.242 337.544 225.763 335.715 223.763 334.388C210.453 325.556 184.386 310.53 180.491 294.834C179.826 292.154 191.672 286.239 192.678 283.335C199.25 277.853 201.894 276.333 205.399 268.257C215.746 244.417 166.792 218.446 206.403 193.701C235.417 175.575 265.656 178.432 247.604 133.073C229.552 87.7136 242.267 -7.47788 304.857 10.4209C340.776 20.694 322.679 68.4586 347.317 93.2505C370.73 116.81 365.364 142.976 339.172 168.175C312.981 193.375 333.783 201.494 351.191 225.212C372.103 253.703 321.931 273.56 297.93 280.884C278.603 286.781 233.652 313.966 237.904 337Z" fill="url(#paint1_linear)"/>
<g opacity="0.7">
<g opacity="0.7">
<path opacity="0.7" d="M202.987 315.82L202.456 315.276C292.144 238.87 323.539 121.086 286.432 0.203026L287.191 0C304.777 57.2906 306.989 116.129 293.589 170.157C279.502 226.958 248.173 277.327 202.987 315.82Z" fill="#FCFDFE"/>
<path opacity="0.7" d="M361.34 236.124C328.139 235.175 277.422 248.84 248.283 266.586L247.853 265.97C277.107 248.154 328.028 234.436 361.365 235.388L361.34 236.124Z" fill="#FCFDFE"/>
<path opacity="0.7" d="M220.411 300.632L219.739 300.248C229.193 285.859 230.491 267.564 223.594 245.868C218.536 229.958 209.273 212.628 196.061 194.353L196.716 193.942C209.973 212.279 219.271 229.677 224.351 245.658C231.313 267.562 229.987 286.058 220.411 300.632Z" fill="#FCFDFE"/>
<path opacity="0.7" d="M295.171 162.421C295.171 162.421 295.117 160.991 295.444 160.459C312.043 133.51 343.319 118.85 366.866 111.266L367.124 111.963C343.244 119.652 311.378 134.65 295.171 162.421Z" fill="#FCFDFE"/>
<path opacity="0.7" d="M301.743 90.0947C293.573 55.0248 262.593 30.4441 245.009 18.9983L245.459 18.3941C262.85 29.7148 293.021 53.6816 301.833 88.0742C301.98 88.6459 301.743 90.0947 301.743 90.0947Z" fill="#FCFDFE"/>
</g>
</g>
</g>
<path d="M230.65 357.626C226.857 356.831 219.359 351.985 217.963 349.968C208.671 336.553 189.524 312.494 192.248 295.8C192.713 292.95 206.706 291.473 208.89 289.009C217.567 286.049 220.773 285.522 227.54 278.926C247.515 259.452 210.627 216.458 259.477 206.683C295.26 199.524 323.521 213.24 324.776 162.541C326.031 111.841 377.944 23.7376 431.462 63.8019C462.176 86.7942 424.718 126.766 438.417 159.818C451.434 191.227 435.343 214.769 399.373 229.838C363.404 244.906 380.29 260.337 387.393 289.731C395.927 325.038 338.822 326.231 312.408 324.684C291.136 323.438 236.073 333.656 230.65 357.626Z" fill="#D8DEE8"/>
<path d="M205.441 324.373L205.148 323.652C324.217 281.678 403.7 178.328 417.761 47.1896L418.584 47.2659C411.92 109.416 389.642 167.516 354.157 215.285C316.853 265.506 265.428 303.228 205.441 324.373Z" fill="#FCFDFE"/>
<path d="M392.743 304.025C360.806 291.095 305.74 286.063 269.995 292.807C269.995 292.807 271.07 291.823 271.699 291.712C307.611 285.457 361.554 290.559 393.072 303.317L392.743 304.025Z" fill="#FCFDFE"/>
<path d="M228.22 315.266C243.402 304.673 252.263 287.325 254.555 263.703C256.236 246.382 254.412 226.154 249.133 203.579L249.941 203.415C255.237 226.067 257.066 246.372 255.376 263.773C253.26 285.587 245.572 302.118 232.507 312.991C231.29 314.004 228.22 315.266 228.22 315.266Z" fill="#FCFDFE"/>
<path d="M358.912 208.322C358.912 208.322 359.636 206.771 360.269 206.306C387.593 186.251 423.981 183.308 449.972 184.433L449.933 185.205C423.485 184.058 386.225 187.139 358.912 208.322Z" fill="#FCFDFE"/>
<path d="M395.35 140.127C401.957 103.02 381.989 68.0199 369.618 50.5142L370.307 50.0887C382.514 67.3621 401.884 101.498 396.309 138.085C396.205 138.775 395.35 140.127 395.35 140.127Z" fill="#FCFDFE"/>
<path d="M149.108 89.4223C149.175 117.136 133.388 139.752 105.276 140.495C104.841 140.507 97.667 140.494 97.2302 140.495C68.5124 140.56 45.1779 117.8 45.1117 89.6578C45.0456 61.5152 68.2722 38.6496 96.99 38.5846C97.6618 38.583 103.966 38.6415 104.631 38.6642C132.421 39.6355 149.042 61.9391 149.108 89.4223Z" fill="url(#paint2_linear)"/>
<path d="M106.831 140.954C135.549 140.954 158.829 118.14 158.829 89.9973C158.829 61.855 135.549 39.0411 106.831 39.0411C78.1128 39.0411 54.8324 61.855 54.8324 89.9973C54.8324 118.14 78.1128 140.954 106.831 140.954Z" fill="url(#paint3_linear)"/>
<path opacity="0.3" d="M106.831 139.669C134.825 139.669 157.519 117.43 157.519 89.9973C157.519 62.5645 134.825 40.3258 106.831 40.3258C78.8367 40.3258 56.143 62.5645 56.143 89.9973C56.143 117.43 78.8367 139.669 106.831 139.669Z" fill="url(#paint4_linear)"/>
<path d="M106.831 138.17C133.98 138.17 155.989 116.602 155.989 89.9972C155.989 63.3924 133.98 41.8249 106.831 41.8249C79.6815 41.8249 57.6728 63.3924 57.6728 89.9972C57.6728 116.602 79.6815 138.17 106.831 138.17Z" fill="url(#paint5_linear)"/>
<path d="M105.779 137.14C132.348 137.14 153.886 116.033 153.886 89.9973C153.886 63.9612 132.348 42.8547 105.779 42.8547C79.2108 42.8547 57.6728 63.9612 57.6728 89.9973C57.6728 116.033 79.2108 137.14 105.779 137.14Z" fill="url(#paint6_linear)"/>
<path d="M110.86 88.6459L147.506 101.908C148.698 98.1605 149.342 94.1764 149.342 90.046C149.342 68.7721 132.297 51.3996 110.86 50.3276V88.6459Z" fill="url(#paint7_linear)"/>
<g opacity="0.2">
<path opacity="0.2" d="M93.7006 88.9271C89.8959 77.4293 103.651 69.1312 101.482 55.7283C100.525 49.8145 96.8021 44.9695 92.2211 41.0812C70.5697 47.2791 54.7766 66.9012 54.8306 90.1144C54.8967 118.257 78.2312 141.017 106.949 140.952C113.991 140.936 120.701 139.547 126.818 137.047C125.932 120.784 120.586 111.596 114.901 106.062C106.141 97.5305 96.6019 97.6945 93.7006 88.9271Z" fill="#D8DEE8"/>
</g>
<path d="M105.645 93.7314C107.334 93.7314 108.703 92.3898 108.703 90.7348C108.703 89.0798 107.334 87.7381 105.645 87.7381C103.956 87.7381 102.587 89.0798 102.587 90.7348C102.587 92.3898 103.956 93.7314 105.645 93.7314Z" fill="url(#paint8_linear)"/>
<path d="M105.645 66.8492C104.578 66.8492 103.712 67.697 103.712 68.743V88.9481C103.712 89.9941 104.577 90.8419 105.645 90.8419C106.712 90.8419 107.579 89.9941 107.579 88.9481V68.743C107.577 67.697 106.712 66.8492 105.645 66.8492Z" fill="url(#paint9_linear)"/>
<path d="M105.433 91.1814C105.017 90.7266 104.302 90.6876 103.837 91.0953L77.8081 114.435C77.3434 114.843 77.3034 115.543 77.7211 115.999C78.1371 116.454 78.8524 116.493 79.3171 116.085L105.346 92.7455C105.811 92.3362 105.849 91.6362 105.433 91.1814Z" fill="url(#paint10_linear)"/>
<path d="M347.702 425.212C347.702 425.212 348.937 429.887 348.976 431.579C349.016 433.273 329.046 435.633 328.736 434.386C328.424 433.139 331.768 430.868 334.182 429.975C336.596 429.081 343.674 426.648 343.674 426.648L347.702 425.212Z" fill="url(#paint11_linear)"/>
<path d="M342.432 420.855L343.577 426.695C343.577 426.695 346.029 427.957 347.984 426.695L348.461 420.208L342.432 420.855Z" fill="url(#paint12_linear)"/>
<path d="M384.121 430.215C384.121 430.215 385.357 434.889 385.397 436.582C385.437 438.276 365.467 440.636 365.157 439.388C364.846 438.141 368.189 435.87 370.603 434.977C373.017 434.084 380.096 431.651 380.096 431.651L384.121 430.215Z" fill="url(#paint13_linear)"/>
<path d="M378.851 425.857L379.996 431.698C379.996 431.698 382.447 432.96 384.403 431.698L384.878 425.211L378.851 425.857Z" fill="url(#paint14_linear)"/>
<path d="M332.868 266.847C330.927 271.403 328.986 275.961 327.046 280.517C327.331 305.669 328.739 332.938 331.832 361.982C334.133 383.59 337.134 403.999 340.566 423.109C343.695 422.74 346.825 422.37 349.954 422.001C353.774 413.248 358.042 400.102 357.184 384.333C356.289 367.883 350.77 366.103 349.759 350.364C348.448 329.966 357.133 323.847 359.906 298.986C360.966 289.477 361.171 277.148 358.404 262.413C349.893 263.891 341.38 265.369 332.868 266.847Z" fill="url(#paint15_linear)"/>
<path opacity="0.3" d="M358.406 262.413C353.809 263.211 349.211 264.008 344.614 264.807C337.433 278.983 336.314 293.263 338.314 299.393C341.144 308.066 346.866 310.483 347.327 319.369C347.782 328.161 342.44 330.849 339.816 341.449C337.999 348.787 339.205 355.319 341.694 368.084C346.704 393.797 354.093 401.221 349.204 410.14C347.815 412.673 345.185 415.764 339.739 418.381C340.014 419.96 340.286 421.545 340.567 423.106C343.697 422.737 346.826 422.367 349.956 421.998C353.776 413.245 358.044 400.099 357.186 384.329C356.291 367.879 350.772 366.099 349.761 350.361C348.45 329.962 357.135 323.846 359.908 298.982C360.968 289.479 361.173 277.148 358.406 262.413Z" fill="url(#paint16_linear)"/>
<path d="M346.01 273.805C352.258 295.61 358.134 319.009 363.288 343.903C369.51 373.96 373.898 402.41 376.936 428.899C380.391 428.733 383.848 428.566 387.303 428.399C398.734 402.301 398.104 385.236 395.196 374.311C394.075 370.101 391.306 361.889 389.764 349.422C388.69 340.731 388.716 334.055 388.775 326.027C388.906 308.424 390.557 304.461 389.694 291.067C388.885 278.499 388.394 272.145 384.238 268.726C373.287 259.72 347.931 272.792 346.01 273.805Z" fill="url(#paint17_linear)"/>
<path d="M245.682 223.148C245.682 223.148 238.09 222.541 236.992 221.392C235.894 220.244 235.184 220.184 235.018 219.131C234.853 218.079 231.657 218.586 232.987 220.869C234.317 223.153 231.316 221.956 230.728 221.901C229.374 221.774 224.21 221.633 224.36 221.932C224.509 222.23 222.045 225.232 225.712 226.783C228.923 228.141 227.982 227.542 230.07 227.636C232.157 227.728 238.621 225.761 238.621 225.761L244.156 226.154L245.682 223.148Z" fill="url(#paint18_linear)"/>
<path d="M241.232 219.838C240.898 222.2 240.564 224.561 240.229 226.923C245.258 230.837 256.374 238.339 271.84 239.465C299.104 241.45 326.144 222.619 331.178 201.439C333.67 190.95 331.634 176.233 324.649 173.866C322.711 173.209 319.797 173.303 313.792 177.068C297.764 187.115 296.402 200.31 287.548 209.235C281.174 215.659 268.646 222.165 241.232 219.838Z" fill="white"/>
<path d="M324.793 285.201C321.051 280.333 324.776 275.09 324.889 265.329C325.016 254.265 320.326 252.775 314.279 234.909C310.259 223.026 306.397 211.619 308.645 197.76C309.723 191.119 311.55 179.853 320.898 173.779C325.723 170.644 332.655 170.404 346.327 170.049C363.232 169.613 371.684 169.393 378.226 172.008C379.183 172.392 399.113 180.657 401.783 196.358C404.502 212.339 385.921 215.904 385.259 237.537C384.962 247.248 388.237 261.905 390.361 271.411C392.4 280.539 393.46 282.836 391.751 285.774C387.63 292.854 373.076 292.013 343.968 290.33C332.547 289.669 327.585 288.834 324.793 285.201Z" fill="white"/>
<path d="M364.602 235.609C366.177 239.697 370.822 242.492 374.742 252.431C375.588 254.577 381.615 269.859 375.868 274.161C372.549 276.646 369.037 272.672 360.47 272.758C345.627 272.909 339.588 285.013 329.674 282.571C327.954 282.147 325.645 281.144 323.208 278.62C322.977 281.074 323.233 283.172 324.79 285.199C327.584 288.833 332.544 289.668 343.962 290.329C373.069 292.011 387.623 292.854 391.744 285.773C393.455 282.834 392.394 280.538 390.354 271.41C388.23 261.903 384.957 247.246 385.253 237.535C385.914 215.903 404.495 212.337 401.777 196.357C401.049 192.085 399.027 188.384 396.475 185.221C373.443 195.991 359.65 222.762 364.602 235.609Z" fill="#F4F7FA"/>
<path d="M411.408 285.022C411.408 285.022 416.043 286.474 416.534 293.639C415.778 293.575 414.012 293.613 414.012 293.613C414.012 293.613 414.339 288.404 411.039 287.348C411.305 286.744 411.408 285.022 411.408 285.022Z" fill="url(#paint19_linear)"/>
<path d="M394.212 284.338C394.331 285.657 394.447 286.978 394.566 288.297C396.898 287.735 399.442 287.083 402.171 286.994C405.708 286.879 408.938 287.285 411.805 287.952C411.932 287.788 412.202 287.397 412.327 286.752C412.527 285.714 412.191 284.845 412.13 284.691C410.67 284.189 409.086 283.763 407.384 283.463C402.49 282.6 398.047 283.315 394.212 284.338Z" fill="url(#paint20_linear)"/>
<path d="M393.993 285.477C394 285 394.038 284.405 394.214 284.339C394.378 284.275 394.599 284.709 394.693 284.951C394.733 285.052 394.82 285.294 394.874 286.063C394.943 287.056 394.861 287.54 394.787 287.84C394.741 288.02 394.672 288.293 394.567 288.298C394.484 288.303 394.411 288.129 394.301 287.793C394.153 287.34 393.977 286.586 393.993 285.477Z" fill="url(#paint21_linear)"/>
<path d="M389.677 293.764C390.66 293.944 393.046 294.478 393.046 294.478C393.046 294.478 391.49 289.827 394.421 287.725C394.498 287.376 394.574 286.822 394.482 286.153C394.411 285.636 394.261 285.22 394.132 284.933C392.89 285.57 390.176 287.731 389.677 293.764Z" fill="url(#paint22_linear)"/>
<path d="M369.12 294.795C369.12 294.795 369.244 292.334 373.421 292.378C374.077 292.833 374.11 294.842 374.11 294.842L369.12 294.795Z" fill="url(#paint23_linear)"/>
<path d="M365.394 343.25L376.832 349.547L383.7 325.765L372.359 293.938L369.12 294.795L364.186 340.745C364.073 341.787 364.556 342.789 365.394 343.25Z" fill="url(#paint24_linear)"/>
<path opacity="0.3" d="M383.7 325.765L372.359 293.938L369.12 294.795C369.919 297.621 370.302 302.213 370.481 304.769C371.247 315.639 373.786 318.656 372.556 326.235C371.532 332.543 369.294 333.42 369.491 337.663C369.705 342.282 372.582 346.107 375.991 349.086L376.83 349.549L383.7 325.765Z" fill="url(#paint25_linear)"/>
<path d="M372.359 293.938L433.194 294.53L442.439 343.427L376.832 349.547L372.359 293.938Z" fill="url(#paint26_linear)"/>
<g opacity="0.2">
<path opacity="0.2" d="M433.194 294.53L413.114 294.334C412.74 295.346 412.169 296.746 411.333 298.329C402.203 315.647 380.981 317.882 381.367 320.769C381.947 325.082 428.557 318.835 429.718 324.619C430.278 327.409 420.634 333.857 410.453 336.389C398.125 339.456 388.966 335.871 382.829 342.563C380.743 344.839 379.82 347.484 379.371 349.271L442.439 343.425L433.194 294.53Z" fill="url(#paint27_linear)"/>
</g>
<path d="M373.421 292.378C372.714 292.37 371.727 292.278 370.65 292.857C370.42 292.981 370.217 293.119 370.039 293.257L370.535 293.098C371.332 292.887 372.43 293.189 372.839 293.941C373.342 294.865 373.523 296.991 373.633 298.045C373.946 301.042 375.866 319.668 375.866 319.668C376.011 321.237 377.279 322.42 378.776 322.384L435.129 319.384C435.545 319.374 435.956 319.248 436.299 318.993C437.014 318.46 437.336 317.54 437.171 316.667L434.398 295.144C434.163 293.905 433.156 293.005 431.986 292.994L373.421 292.378Z" fill="url(#paint28_linear)"/>
<path d="M374.044 292.385C373.339 292.377 372.5 292.277 371.565 292.503C371.313 292.563 370.909 292.675 370.732 292.815C370.732 292.815 372.714 292.393 373.462 293.947C373.92 294.896 374.146 296.997 374.256 298.052C374.569 301.048 376.487 319.668 376.487 319.668C376.63 321.237 377.899 322.42 379.396 322.382L436.332 320.984C436.748 320.974 437.157 320.847 437.5 320.591C438.213 320.058 438.537 319.139 438.37 318.265L434.983 295.151C434.748 293.911 433.742 293.013 432.572 293L374.044 292.385Z" fill="url(#paint29_linear)"/>
<path opacity="0.1" d="M438.373 318.266L434.986 295.152C434.751 293.913 433.745 293.015 432.576 293.002L374.045 292.385C373.341 292.377 372.502 292.277 371.567 292.503C371.315 292.563 370.911 292.675 370.733 292.815C370.733 292.815 372.716 292.393 373.464 293.947C373.535 294.097 373.602 294.277 373.663 294.475C379.373 294.741 385.052 294.642 390.698 295.04C401.768 295.8 412.837 295.901 423.057 300.158C426.305 301.511 428.524 306.299 427.647 308.503C427.013 310.093 424.848 309.963 424.093 312.054C423.296 314.255 425.205 315.747 424.404 317.292C423.565 318.913 421.012 318.146 416.865 319.316C414.572 319.962 412.811 320.912 411.708 321.59L436.334 320.985C436.749 320.976 437.158 320.849 437.501 320.592C438.217 320.059 438.539 319.139 438.373 318.266Z" fill="url(#paint30_linear)"/>
<path d="M411.589 325.434L404.458 327.108L403.703 327.172C402.941 327.237 402.285 326.616 402.252 325.793L401.937 318.013C401.903 317.189 402.507 316.507 403.271 316.494L404.032 316.483L411.203 317.337C411.885 317.326 412.459 316.98 412.491 317.748L412.783 325.005C412.813 325.773 412.27 325.377 411.589 325.434Z" fill="url(#paint31_linear)"/>
<path d="M412.129 326.503L404.23 327.169C403.468 327.234 402.812 326.613 402.779 325.79L402.464 318.011C402.431 317.188 403.035 316.506 403.799 316.493L411.72 316.369C412.402 316.358 412.98 316.978 413.011 317.745L413.303 325C413.335 325.77 412.809 326.446 412.129 326.503Z" fill="url(#paint32_linear)"/>
<path d="M402.581 274.414C402.581 274.414 401.916 278.519 401.253 278.907C400.588 279.294 398.513 281.464 398.929 282.857C399.343 284.251 397.767 287.432 400.713 288.204C403.66 288.975 407.047 289.801 407.386 287.335C407.725 284.869 406.895 282.082 406.979 279.99C407.062 277.898 408.223 275.808 408.223 275.808L402.581 274.414Z" fill="url(#paint33_linear)"/>
<path d="M374.742 170.772C370.803 188.691 374.202 200.304 378.31 207.747C386.624 222.817 400.915 226.372 403.294 239.739C405.01 249.381 405.757 268.395 400.713 274.562C405.259 276.255 405.734 276.161 409.165 276.161C413.763 273.71 423.562 257.354 427.694 236.486C432.708 211.171 411.736 181.278 374.742 170.772Z" fill="white"/>
<path d="M362.477 170.584C360.526 169.84 351.056 168.042 348.955 164.21C346.631 159.971 345.845 154.139 345.845 154.139C345.845 154.139 339.311 155.758 340.267 158.909C341.224 162.058 339.595 169.28 335.844 170.892C333.218 172.021 329.965 172.474 329.26 173.23C329.183 173.241 329.134 173.251 329.117 173.26C328.576 173.576 330.259 175.997 337.01 179.509C360.305 176.236 362.757 172.513 362.858 171.233C362.964 170.954 362.854 170.727 362.477 170.584Z" fill="url(#paint34_linear)"/>
<path d="M337.101 152.658C334.07 150.291 333.653 150.02 333.27 149.152C331.735 145.67 334.285 140.556 338.077 139.06C338.274 138.982 340.82 138.006 341.908 138.99C342.832 139.825 341.692 141.158 342.433 142.846C343.128 144.424 344.644 144.434 347.617 146.351C350.065 147.929 351.587 148.91 352.048 150.416C352.998 153.522 349.298 158.401 345.664 158.547C344.357 158.597 343.949 158.003 337.101 152.658Z" fill="url(#paint35_linear)"/>
<path d="M345.351 159.059C345.351 159.059 342.635 162.437 337.997 161.734C333.844 161.105 334.135 152.303 336.995 150.687C337.948 150.148 339.758 150.052 341.17 150.561C342.004 150.861 342.259 151.22 343.631 151.688C344.896 152.118 345.277 152.018 345.638 152.36C346.089 152.789 346.35 153.765 345.267 156.249C346.142 155.566 347.129 155.363 347.777 155.722C347.879 155.779 348.149 155.989 348.281 156.278C348.764 157.33 347.655 158.518 345.351 159.059Z" fill="url(#paint36_linear)"/>
<path d="M343.394 178.77C343.394 178.77 342.078 185.328 340.019 185.457C337.96 185.585 336.453 185.84 336.453 185.84L334.15 177.82C334.15 177.82 337.151 180.1 343.394 178.77Z" fill="url(#paint37_linear)"/>
<path d="M340.996 184.909C340.996 184.909 345.575 232.889 361.625 240.569C361.215 242.106 361.625 254.588 361.625 254.588C361.625 254.588 346.663 250.384 345.81 250.662C344.957 250.94 327.69 224.23 336.451 185.842L340.996 184.909Z" fill="url(#paint38_linear)"/>
<path d="M145.952 424.951L152.287 423.734L182.195 387.909C182.195 387.909 165.746 382.514 165.147 382.699C164.549 382.884 150.592 390.514 149.894 391.258C149.196 392.002 140.422 408.098 140.422 409.308C140.422 410.518 145.952 424.951 145.952 424.951Z" fill="url(#paint39_linear)"/>
<path d="M13.7173 396.465H16.9232L41.523 372.929C41.523 372.929 32.4761 370.209 31.7277 370.277C30.9793 370.345 19.614 374.331 19.614 374.331C19.614 374.331 14.4552 385.976 14.2307 386.675C14.0079 387.373 13.7173 396.465 13.7173 396.465Z" fill="url(#paint40_linear)"/>
<path d="M190.325 390.063C190.33 390.063 190.337 390.064 190.342 390.064C191.903 390.183 193.423 390.726 194.86 391.518C196.239 392.142 197.983 392.873 198.002 393.846V393.867C202.948 398.889 206.938 408.26 207.167 418.828C207.474 432.9 201.525 444.381 193.458 445.833L193.454 445.841C192.909 445.924 186.165 448.333 164.752 446.444C164.016 437.889 162.714 389.407 162.714 389.407C162.714 389.407 179.772 388.289 190.325 390.063Z" fill="url(#paint41_linear)"/>
<path d="M148.186 417.145C148.506 433.241 156.756 446.442 166.44 446.611C175.938 446.777 183.241 434.297 182.915 418.755C182.59 403.227 174.763 390.084 165.27 389.371C155.593 388.642 147.867 401.065 148.186 417.145Z" fill="url(#paint42_linear)"/>
<path d="M155.764 417.382C155.994 428.803 161.504 438.206 167.994 438.373C174.401 438.539 179.344 429.62 179.111 418.465C178.878 407.318 173.56 397.943 167.157 397.515C160.671 397.079 155.536 405.969 155.764 417.382Z" fill="white"/>
<path d="M49.2908 375.357C49.296 375.357 49.2995 375.357 49.3047 375.359C50.5701 375.463 51.999 375.928 53.1651 376.611C54.2842 377.149 54.6811 377.799 55.9098 378.616V378.635C59.631 382.97 62.9779 391.044 63.1763 400.146C63.4391 412.267 58.5275 422.154 51.9851 423.398L51.9346 423.406C51.4925 423.478 45.9996 425.547 28.6262 423.902C28.0205 416.533 28.2189 374.771 28.2189 374.771C28.2189 374.771 40.7277 373.819 49.2908 375.357Z" fill="url(#paint43_linear)"/>
<path d="M15.1323 398.647C15.4073 412.513 22.1133 423.89 29.9698 424.043C37.6749 424.194 43.5873 413.45 43.3071 400.062C43.0268 386.686 36.6654 375.359 28.9638 374.737C21.1126 374.104 14.8573 384.796 15.1323 398.647Z" fill="url(#paint44_linear)"/>
<path d="M21.2814 398.858C21.4798 408.696 25.9581 416.801 31.2247 416.95C36.4218 417.098 40.4231 409.422 40.223 399.811C40.0228 390.209 35.6995 382.13 30.5042 381.755C25.241 381.375 21.083 389.028 21.2814 398.858Z" fill="white"/>
<path d="M378.976 376.239H378.997C380.933 376.205 382.546 376.707 384.337 377.485C386.06 378.071 386.755 378.905 387.987 379.933V379.959C395.365 385.31 399.545 396.214 399.796 408.847C400.13 425.659 392.663 439.65 382.553 441.727L382.617 441.735C381.94 441.857 373.657 444.958 348.026 443.636C347.173 433.894 345.721 378.482 345.721 378.482C345.721 378.482 366.053 375.333 378.976 376.239Z" fill="url(#paint45_linear)"/>
<path d="M328.976 411.314C329.336 429.427 338.766 443.952 350.039 443.757C361.312 443.563 370.159 428.722 369.8 410.609C369.44 392.496 360.01 377.971 348.737 378.166C337.464 378.361 328.617 393.201 328.976 411.314Z" fill="url(#paint46_linear)"/>
<path d="M337.643 411.036C337.901 423.988 344.274 434.381 351.882 434.249C359.488 434.118 365.446 423.512 365.19 410.56C364.932 397.609 358.559 387.216 350.951 387.347C343.343 387.479 337.386 398.085 337.643 411.036Z" fill="url(#paint47_linear)"/>
<path d="M431.149 417.712L431.163 418.384C431.323 426.463 424.426 433.129 415.77 433.28L224.303 436.59C206.949 436.89 203.356 434.284 202.885 433.829C202.851 433.811 202.804 433.787 202.791 433.762L188.073 431.483C189.328 427.486 189.913 423.038 189.821 418.36C189.481 401.234 179.094 387.513 166.799 387.726C155.798 387.916 147.209 399.191 145.075 413.838C145.075 413.851 145.075 413.851 145.075 413.862C145.11 415.582 145.111 417.332 145.146 419.131C145.186 421.123 145.647 423.068 145.948 424.956L47.4412 409.682L45.605 409.011C46.3134 406.071 46.6597 402.878 46.5919 399.53C46.3116 385.418 38.6953 374.108 29.6014 374.266C21.2871 374.409 14.6089 384.055 13.7126 396.469C13.0686 395.775 12.4264 395.004 11.8102 394.146C8.8236 389.982 7.83849 385.699 7.51302 382.663C5.37572 356.229 13.2009 338.735 20.9912 328.163C27.8348 318.859 34.6539 314.908 34.6539 314.908L63.189 297.769C79.3719 288.032 98.1464 282.709 117.382 282.376L228.219 280.46C245.117 280.167 261.582 283.632 276.679 290.718C307.292 305.096 340.888 326.997 340.888 326.997C380.947 330.693 403.088 347.184 403.088 347.184C408.206 350.781 412.326 354.631 415.654 358.599C416.12 359.151 416.568 359.711 416.996 360.272C421.829 366.501 424.744 372.942 426.426 379.059C426.453 379.151 426.483 379.242 426.504 379.335C431.04 396.222 426.165 410.484 426.165 410.484C429.156 411.821 431.088 414.618 431.149 417.712Z" fill="url(#paint48_linear)"/>
<path d="M202.829 433.761C202.841 433.783 202.867 433.804 202.902 433.827C204.25 434.584 206.017 438.739 250.392 436.138L415.767 433.28C424.429 433.13 431.325 426.463 431.165 418.379L431.151 417.712C431.147 417.532 431.131 417.361 431.116 417.181C430.865 414.301 428.984 411.744 426.159 410.481L233.574 415.506C233.574 415.506 215.318 412.734 209.15 415.883C208.287 416.328 207.655 416.882 207.354 417.577C204.849 423.254 201.565 431.147 202.829 433.761Z" fill="url(#paint49_linear)"/>
<path d="M426.425 379.054C423.812 381.208 420.366 382.642 416.53 383.103L395.396 385.645C393.175 385.918 390.907 385.483 389.123 384.435C387.311 383.363 386.176 381.786 385.997 380.045L385.774 377.805C385.461 374.667 388.267 371.906 392.291 371.307C399.582 370.231 405.896 367.86 410.804 364.508L416.995 360.27C418.709 362.029 420.753 364.482 422.537 367.683C425.013 372.124 426 376.225 426.425 379.054Z" fill="white"/>
<path d="M290.353 379.364C291.739 380.86 294.022 382.059 295.423 382.038C321.149 381.589 346.849 381.143 372.521 380.696C373.919 380.67 375.873 379.397 376.858 377.863C377.838 376.34 377.349 375.136 375.774 375.164C347.46 375.653 319.111 376.143 290.731 376.634C289.164 376.666 288.966 377.88 290.353 379.364C290.355 379.364 290.355 379.364 290.353 379.364Z" fill="url(#paint50_linear)"/>
<path d="M299.236 389.043C300.7 390.61 302.801 391.88 303.948 391.858C324.853 391.489 345.74 391.122 366.608 390.755C367.748 390.735 369.518 389.402 370.556 387.791C371.591 386.191 371.339 384.921 370.025 384.947C346.38 385.359 322.715 385.773 299.026 386.187C297.705 386.212 297.786 387.484 299.236 389.043C299.235 389.043 299.235 389.043 299.236 389.043Z" fill="url(#paint51_linear)"/>
<path d="M268.305 391.928C272.995 391.733 276.666 388.494 276.588 384.615L276.541 382.251C276.468 378.564 273.021 375.536 268.573 375.25L260.194 374.714L210.119 363.328L211.329 369.172C213.156 378.002 220.557 385.332 230.737 388.393L238.184 390.635C243.085 392.109 248.3 392.758 253.518 392.542L268.305 391.928Z" fill="white"/>
<path opacity="0.4" d="M209.151 415.885L230.042 420.658L431.117 417.182C430.867 414.303 428.985 411.746 426.161 410.482L233.576 415.508C233.576 415.508 215.318 412.737 209.151 415.885Z" fill="white"/>
<path d="M77.9476 405.192C77.9598 405.192 77.972 405.192 77.9859 405.192C78.6316 404.051 79.1625 404.349 79.1311 403.726C79.1103 403.347 77.1783 365.612 78.066 350.283C78.837 337.003 81.1692 334.562 81.3764 334.379C81.8933 334.096 82.1195 333.458 81.8794 332.928C81.62 332.353 80.9064 332.067 80.292 332.308C79.4235 332.65 76.5187 334.931 75.6432 350.028C74.7469 365.472 76.6893 403.459 76.7084 403.839C76.7432 404.452 77.2967 405.204 77.9476 405.192Z" fill="url(#paint52_linear)"/>
<path opacity="0.2" d="M11.117 393.108C11.9594 394.429 12.8227 395.567 13.7173 396.464C14.6101 384.053 21.2901 374.404 29.6008 374.261C38.6983 374.103 46.3146 385.418 46.5948 399.526C46.6609 402.871 46.3128 406.068 45.6079 409.008L47.4389 409.677L145.951 424.949C145.649 423.065 145.184 421.118 145.146 419.128C145.111 417.33 145.112 415.578 145.078 413.859C145.078 413.848 145.078 413.848 145.078 413.836C144.824 401.028 123.377 401.817 113.948 402.387C103.599 403.008 91.579 406.167 82.5547 399.673C77.2184 395.83 74.6564 389.451 69.4124 385.358C63.5418 380.789 56.3188 377.769 49.7294 374.23C35.8509 366.757 32.0618 358.115 32.5266 341.246C32.8224 330.565 26.0259 328.341 20.9803 328.158C13.1916 338.731 5.37518 356.226 7.51248 382.663C7.67435 385.145 8.45582 388.936 11.117 393.108Z" fill="url(#paint53_linear)"/>
<path d="M137.77 289.937C137.77 289.937 151.309 320.61 154.621 325.077C154.932 325.489 155.328 325.879 155.796 326.233C160.335 329.638 171.286 330.071 171.286 330.071L332.408 327.286C295.965 302.663 264.97 287.74 264.97 287.74L137.77 289.937Z" fill="url(#paint54_linear)"/>
<path opacity="0.3" d="M332.408 327.286C295.963 302.663 264.97 287.74 264.97 287.74L256.625 287.884C254.348 291.331 251.346 294.275 247.614 296.405C230.474 305.781 209.787 301.368 191.465 307.436C179.556 311.226 171.127 319.413 165.706 329.503C168.8 329.974 171.288 330.073 171.288 330.073L332.408 327.286Z" fill="url(#paint55_linear)"/>
<path d="M39.2502 317.651C39.2502 317.651 56.5714 323.911 79.784 329.685C80.4698 326.349 81.5976 322.155 83.4582 317.532C86.8747 308.981 92.7593 298.938 102.908 289.997C94.9349 290.678 85.6111 292.287 75.814 295.667C63.7874 299.812 51.0645 306.624 39.2502 317.651Z" fill="url(#paint56_linear)"/>
<path d="M85.726 331.121C97.2931 333.826 109.993 336.298 122.577 337.801C129.744 338.65 136.868 339.183 143.717 339.256C145.717 339.279 147.704 339.266 149.655 339.211C149.655 339.211 149.655 339.199 149.643 339.188C149.316 337.994 136.139 291.358 124.747 290.165C122.124 289.893 117.986 289.557 112.775 289.568C100.671 298.248 93.7809 308.897 89.8892 317.966C87.6979 323.056 86.4448 327.648 85.726 331.121Z" fill="url(#paint57_linear)"/>
<path opacity="0.3" d="M143.717 339.254C145.717 339.277 147.704 339.264 149.655 339.209C149.655 339.209 149.655 339.198 149.643 339.186C148.03 339.204 146.03 339.227 143.717 339.254Z" fill="url(#paint58_linear)"/>
<path opacity="0.7" d="M89.8876 317.964C87.6981 323.058 86.445 327.648 85.7244 331.121C97.2916 333.827 109.992 336.299 122.575 337.801C120.774 336.193 119.098 334.151 117.617 331.588C111.156 320.446 100.106 318.703 89.8876 317.964Z" fill="url(#paint59_linear)"/>
<path opacity="0.7" d="M39.2502 317.651C39.2502 317.651 56.5714 323.911 79.7841 329.685C80.4698 326.349 81.5976 322.155 83.4582 317.532C77.2917 317.063 71.9554 316.261 68.8469 312.9C63.3975 306.978 69.8773 300.126 75.8123 295.669C63.7874 299.812 51.0645 306.624 39.2502 317.651Z" fill="url(#paint60_linear)"/>
<path d="M149.098 341.343C149.098 341.343 143.49 322.182 136.048 321.541C128.606 320.899 107.315 315.619 105.578 325.148C103.841 334.679 107.786 339.35 118.525 339.748C129.264 340.146 136.405 339.44 136.405 339.44L141.454 344.301C141.452 344.301 149.532 349.297 149.098 341.343Z" fill="url(#paint61_linear)"/>
<path d="M151.575 341.301C151.575 341.301 145.967 322.14 138.525 321.499C131.083 320.857 109.791 315.577 108.054 325.106C106.317 334.637 110.263 339.308 121.002 339.706C131.741 340.104 138.88 339.397 138.88 339.397L143.929 344.259C143.929 344.257 152.007 349.253 151.575 341.301Z" fill="url(#paint62_linear)"/>
<path d="M218.103 224.625C218.103 224.625 224.321 219.512 225.58 217.644C226.838 215.776 226.875 219.437 225.613 220.176C224.353 220.915 243.395 218.454 240.039 221.537C236.684 224.618 234.265 227.524 229.757 227.719C225.249 227.914 219.932 229.19 219.013 229.752C218.096 230.313 218.103 224.625 218.103 224.625Z" fill="url(#paint63_linear)"/>
<path d="M95.0198 189.007C93.4934 189.547 70.2059 198.189 65.4196 220.869C65.0332 222.701 61.2912 242.189 75.4534 255.955C91.3335 271.392 121.91 271.01 134.048 258.104C136.878 255.095 138.372 251.759 139.209 248.957L136.011 241.027C132.109 236.631 126.796 235.59 123.959 234.937C116.964 233.327 111.683 236.236 107.677 233.087C105.459 231.345 105.019 228.838 104.625 226.6C103.285 218.972 107.899 214.278 108.233 209.575C108.484 206.058 109.803 198.355 104.887 193.331C101.771 190.151 97.4565 189.285 95.0198 189.007Z" fill="url(#paint64_linear)"/>
<path d="M85.9465 441.786C85.675 440.389 80.8435 439.125 78.4503 440.996C77.2616 441.925 76.4436 443.808 77.1311 444.657C77.3817 444.966 76.3565 445.51 77.3382 445.521C80.5929 445.557 86.2163 443.174 85.9465 441.786Z" fill="url(#paint65_linear)"/>
<path d="M80.8818 442.294L75.9128 441.638C78.2154 439.051 77.789 430.814 77.789 430.814L83.0748 431.915C83.0748 431.915 82.4726 434.176 81.4475 437.512C81.0959 438.653 80.9393 440.441 80.8818 442.294Z" fill="url(#paint66_linear)"/>
<path d="M81.3223 441.722C81.3223 441.722 75.3385 440.436 74.6928 441.544C74.0453 442.651 73.5423 445.617 77.3383 445.521C81.1343 445.426 81.6599 442.663 81.3223 441.722Z" fill="url(#paint67_linear)"/>
<path d="M154.133 447.022C153.655 445.676 148.68 445.055 146.592 447.219C145.554 448.294 145.027 450.264 145.835 451.016C146.129 451.291 145.196 451.963 146.169 451.844C149.399 451.455 154.608 448.361 154.133 447.022Z" fill="url(#paint68_linear)"/>
<path d="M149.195 448.187H144.176C146.068 445.325 144.409 437.223 144.409 437.223L149.806 437.623C149.806 437.623 149.549 439.941 149.035 443.378C148.861 444.553 148.974 446.343 149.195 448.187Z" fill="#893976"/>
<path d="M162.202 271.069C164.527 278.233 167.846 289.797 169.983 304.306C176.08 345.69 163.123 347.01 165.542 392.866C166.315 407.504 151.952 441.258 150.687 442.003C150.074 442.059 149.409 442.096 148.701 442.077C147.451 442.041 145.69 441.862 143.643 441.29C141.368 440.925 133.166 420.192 135.068 407.866C136.413 399.142 136.023 389.779 135.244 371.053C135.117 368.019 126.799 312.021 126.799 312.021C124.268 332.748 121.358 350.361 118.834 364.016C110.729 407.885 84.3731 434.438 82.9982 434.863C82.7266 434.966 80.2534 435.804 78.231 434.56C77.3312 434.006 77.0249 433.291 77.0249 433.291C76.32 432.776 77.232 389.493 85.2712 356.918C96.9393 309.636 91.8589 298.573 95.5557 277.453C98.7547 259.18 162.202 271.069 162.202 271.069Z" fill="url(#paint69_linear)"/>
<path d="M165.323 278.214C158.317 281.569 140.27 287.577 118.769 284.592C108.944 283.229 101.085 280.182 95.5559 277.458C96.2277 275.556 96.7568 273.758 97.1641 272.056C100.111 259.665 96.5079 252.316 94.6908 245.481C91.7494 234.391 91.7007 235.227 89.278 226.419C85.2749 211.884 84.6187 197.037 87.3669 193.995C94.7796 185.803 108.134 185.51 115.074 185.315C122.817 185.104 140.622 182.556 150.431 190.789C150.602 190.934 148.592 191.936 149.584 193.014C150.503 194.016 153.653 197.538 156.505 202.285C158.577 205.728 160.444 209.742 162.327 215.719C164.926 223.978 166.078 231.276 166.607 235.932C166.75 237.222 166.849 238.312 166.92 239.16C168.715 261.161 166.936 271.312 165.323 278.214Z" fill="url(#paint70_linear)"/>
<path d="M149.545 447.563C149.545 447.563 143.427 447.071 142.954 448.252C142.479 449.432 142.427 452.434 146.17 451.844C149.914 451.255 150.02 448.45 149.545 447.563Z" fill="url(#paint71_linear)"/>
<path d="M134.903 177.136C135.698 175.882 136.57 174.8 136.469 173.576C136.283 171.339 136.076 169.192 135.929 168.622C134.979 164.938 134.626 164.381 133.893 163.601L132.858 162.58C132.858 162.58 132.793 162.534 132.725 162.492C132.005 162.029 129.316 161.279 128.734 161.251C126.879 161.165 123.106 167.371 120.944 176.935C120.768 177.276 120.594 177.622 120.422 177.969C119.35 180.139 118.431 182.273 117.641 184.354C105.107 185.343 103.369 186.716 103.313 187.508C103.195 189.176 110.336 191.104 115.707 191.838C127.42 193.438 139.459 190.555 139.403 188.518C139.379 187.632 137.052 186.475 127.123 185.262C127.354 183.729 127.587 182.195 127.819 180.662C128.626 180.49 133.239 179.761 134.903 177.136Z" fill="url(#paint72_linear)"/>
<path d="M137.258 160.805C136.412 163.723 134.046 166.478 133.152 166.792C133.037 166.832 132.376 167.098 131.688 167.665C131.594 167.742 131.504 167.837 131.411 167.966C130.2 169.637 132.718 172.583 131.876 173.257C131.265 173.746 129.363 172.416 128.961 172.869C128.583 173.296 130.068 174.744 129.629 175.259C129.298 175.647 128.324 174.974 127.443 175.476C127.004 175.726 127.029 176.017 126.373 176.953C126.002 177.48 125.534 178.044 125.21 178.341C123.638 179.787 120.394 179.652 120.001 178.819C119.891 178.586 120.077 178.461 120.093 177.778C120.093 177.778 120.107 177.144 119.86 176.345C119.506 175.205 118.177 174.122 116.929 172.699C114.618 170.066 114.309 168.234 114.235 167.623C114.208 167.405 114.198 167.243 114.193 167.128C114.064 164.789 114.966 161.625 116.558 159.937C119.228 157.111 122.705 159.634 126.837 157.202C131.605 154.397 130.854 148.756 133.023 148.695C135.418 148.625 138.821 155.406 137.258 160.805Z" fill="#26264F"/>
<path d="M130.947 172.291C130.461 171.117 128.848 171.705 128.477 172.976C128.104 174.248 129.05 175.9 130.404 175.968C131.756 176.036 131.601 173.873 130.947 172.291Z" fill="url(#paint73_linear)"/>
<path opacity="0.3" d="M98.024 267.581C98.0118 267.581 97.9997 267.581 97.9875 267.58C97.8047 267.56 97.6742 267.408 97.6933 267.237C98.6071 259.564 96.9032 253.988 95.3994 249.069C95.0287 247.854 94.6771 246.706 94.3708 245.552C92.6999 239.26 91.9672 236.83 91.1927 234.259C90.6879 232.583 90.1658 230.852 89.3582 227.956C89.313 227.79 89.4191 227.621 89.5967 227.577C89.7724 227.535 89.9552 227.632 90.0022 227.8C90.808 230.689 91.3302 232.419 91.8332 234.092C92.6094 236.668 93.3421 239.103 95.0165 245.405C95.3193 246.546 95.6692 247.69 96.0381 248.9C97.5593 253.875 99.2824 259.514 98.3547 267.307C98.3356 267.465 98.1911 267.581 98.024 267.581Z" fill="url(#paint74_linear)"/>
<path d="M130.933 170.007L132.096 172.611C132.096 172.611 133.258 175.736 134.793 174.565C136.046 173.607 136.276 173.693 136.32 173.756C136.328 173.767 136.327 173.784 136.328 173.784C136.346 173.784 136.363 173.16 136.375 172.611C136.668 173.364 137.026 174.557 137.026 176.04C137.026 177.482 137.026 179.025 135.817 180.206C135.747 180.274 134.429 181.524 132.654 181.464C132.654 181.464 131.956 181.442 129.306 180.293C129.306 180.293 132.933 178.991 133.121 178.513C133.627 177.215 131.855 176.004 131.166 172.913C130.9 171.722 130.893 170.699 130.933 170.007Z" fill="#26264F"/>
<path opacity="0.3" d="M165.323 278.214C158.317 281.569 140.27 287.577 118.769 284.592C108.944 283.229 101.085 280.182 95.5559 277.458C96.2277 275.556 96.7568 273.758 97.1641 272.056C111.467 281.405 117.448 272.313 126.683 270.171C136.293 267.945 148.651 272.571 141.128 251.859C133.599 231.147 146.085 232.653 146.085 232.653L166.605 235.932C166.748 237.222 166.847 238.312 166.919 239.16C168.715 261.161 166.936 271.312 165.323 278.214Z" fill="url(#paint75_linear)"/>
<path d="M218.231 223.825C221.033 225.654 222.535 228.139 223.313 229.724C221.254 234.236 216.583 242.612 206.913 248.786C191.059 258.908 167.815 259.249 151.623 247.706C132.28 233.915 129.048 207.468 137.172 196.142C138.107 194.838 141.182 190.552 145.956 190.06C148.971 189.75 153.075 190.909 159.558 197.992C173.066 212.751 168.295 221.969 176.275 226.286C188.245 232.763 206.027 215.857 218.231 223.825Z" fill="url(#paint76_linear)"/>
<path opacity="0.3" d="M163.777 254.055C163.755 254.055 163.73 254.053 163.706 254.049C163.514 254.01 144.475 249.926 135.924 227.914C135.862 227.753 135.951 227.576 136.123 227.517C136.295 227.459 136.485 227.542 136.548 227.702C144.968 249.381 163.657 253.405 163.845 253.443C164.024 253.479 164.138 253.644 164.099 253.811C164.066 253.956 163.929 254.055 163.777 254.055Z" fill="url(#paint77_linear)"/>
<path d="M236.197 220.017C236.197 220.017 234.785 217.486 232.822 218.725C230.857 219.965 228.1 220.817 229.936 221.256C231.771 221.694 236.197 220.017 236.197 220.017Z" fill="url(#paint78_linear)"/>
<defs>
<linearGradient id="paint0_linear" x1="211.803" y1="201.216" x2="556.435" y2="-168.085" gradientUnits="userSpaceOnUse">
<stop offset="0.00359712" stop-color="#E38DDD"/>
<stop offset="1" stop-color="#9571F6"/>
</linearGradient>
<linearGradient id="paint1_linear" x1="240.489" y1="24.3356" x2="328.103" y2="624.533" gradientUnits="userSpaceOnUse">
<stop stop-color="#218EDD"/>
<stop offset="1" stop-color="#FB6FBB"/>
</linearGradient>
<linearGradient id="paint2_linear" x1="53.7656" y1="49.2475" x2="137.99" y2="135.832" gradientUnits="userSpaceOnUse">
<stop stop-color="#AB316D"/>
<stop offset="1" stop-color="#792D3D"/>
</linearGradient>
<linearGradient id="paint3_linear" x1="128.316" y1="59.8753" x2="34.0019" y2="211.71" gradientUnits="userSpaceOnUse">
<stop stop-color="#FFC444"/>
<stop offset="0.9964" stop-color="#F36F56"/>
</linearGradient>
<linearGradient id="paint4_linear" x1="133.309" y1="55.4422" x2="104.855" y2="98.0817" gradientUnits="userSpaceOnUse">
<stop stop-color="#FFC444"/>
<stop offset="0.9964" stop-color="#F36F56"/>
</linearGradient>
<linearGradient id="paint5_linear" x1="74.3143" y1="8.81388" x2="115.98" y2="128.267" gradientUnits="userSpaceOnUse">
<stop stop-color="#FFC444"/>
<stop offset="0.9964" stop-color="#F36F56"/>
</linearGradient>
<linearGradient id="paint6_linear" x1="45.9471" y1="240.488" x2="128.9" y2="0.905382" gradientUnits="userSpaceOnUse">
<stop offset="0.00359712" stop-color="#EBEFF2"/>
<stop offset="1" stop-color="white"/>
</linearGradient>
<linearGradient id="paint7_linear" x1="140.496" y1="54.8802" x2="90.6469" y2="162.323" gradientUnits="userSpaceOnUse">
<stop stop-color="#FFC444"/>
<stop offset="0.9964" stop-color="#F36F56"/>
</linearGradient>
<linearGradient id="paint8_linear" x1="79.2063" y1="44.741" x2="132.927" y2="152.056" gradientUnits="userSpaceOnUse">
<stop stop-color="#FF9085"/>
<stop offset="1" stop-color="#FB6FBB"/>
</linearGradient>
<linearGradient id="paint9_linear" x1="84.5137" y1="42.0842" x2="138.235" y2="149.399" gradientUnits="userSpaceOnUse">
<stop stop-color="#FF9085"/>
<stop offset="1" stop-color="#FB6FBB"/>
</linearGradient>
<linearGradient id="paint10_linear" x1="62.5433" y1="53.0824" x2="116.264" y2="160.397" gradientUnits="userSpaceOnUse">
<stop stop-color="#FF9085"/>
<stop offset="1" stop-color="#FB6FBB"/>
</linearGradient>
<linearGradient id="paint11_linear" x1="322.168" y1="375.743" x2="344.944" y2="463.819" gradientUnits="userSpaceOnUse">
<stop stop-color="#311944"/>
<stop offset="1" stop-color="#893976"/>
</linearGradient>
<linearGradient id="paint12_linear" x1="345.23" y1="437.44" x2="345.557" y2="408.001" gradientUnits="userSpaceOnUse">
<stop stop-color="#FFC444"/>
<stop offset="0.9964" stop-color="#F36F56"/>
</linearGradient>
<linearGradient id="paint13_linear" x1="354.61" y1="367.353" x2="377.387" y2="455.43" gradientUnits="userSpaceOnUse">
<stop stop-color="#311944"/>
<stop offset="1" stop-color="#893976"/>
</linearGradient>
<linearGradient id="paint14_linear" x1="381.708" y1="437.845" x2="382.035" y2="408.406" gradientUnits="userSpaceOnUse">
<stop stop-color="#FFC444"/>
<stop offset="0.9964" stop-color="#F36F56"/>
</linearGradient>
<linearGradient id="paint15_linear" x1="327.047" y1="342.761" x2="360.634" y2="342.761" gradientUnits="userSpaceOnUse">
<stop stop-color="#444B8C"/>
<stop offset="0.9964" stop-color="#26264F"/>
</linearGradient>
<linearGradient id="paint16_linear" x1="327.047" y1="342.761" x2="360.634" y2="342.761" gradientUnits="userSpaceOnUse">
<stop stop-color="#444B8C"/>
<stop offset="0.9964" stop-color="#26264F"/>
</linearGradient>
<linearGradient id="paint17_linear" x1="346.009" y1="347.239" x2="396.995" y2="347.239" gradientUnits="userSpaceOnUse">
<stop stop-color="#444B8C"/>
<stop offset="0.9964" stop-color="#26264F"/>
</linearGradient>
<linearGradient id="paint18_linear" x1="226.245" y1="216.197" x2="255.579" y2="248.192" gradientUnits="userSpaceOnUse">
<stop stop-color="#FFC444"/>
<stop offset="0.9964" stop-color="#F36F56"/>
</linearGradient>
<linearGradient id="paint19_linear" x1="411.039" y1="289.33" x2="416.534" y2="289.33" gradientUnits="userSpaceOnUse">
<stop stop-color="#FFC444"/>
<stop offset="0.9964" stop-color="#F36F56"/>
</linearGradient>
<linearGradient id="paint20_linear" x1="402.26" y1="299.744" x2="403.41" y2="281.408" gradientUnits="userSpaceOnUse">
<stop offset="0.1" stop-color="#0F456B"/>
<stop offset="0.267" stop-color="#0F456B"/>
<stop offset="0.4803" stop-color="#0F456B"/>
<stop offset="0.7186" stop-color="#0F456B"/>
<stop offset="0.9736" stop-color="#853774"/>
<stop offset="1" stop-color="#0F456B"/>
</linearGradient>
<linearGradient id="paint21_linear" x1="394.866" y1="286.542" x2="409.468" y2="294.932" gradientUnits="userSpaceOnUse">
<stop offset="0.1" stop-color="#311944"/>
<stop offset="0.267" stop-color="#371B47"/>
<stop offset="0.4803" stop-color="#462150"/>
<stop offset="0.7186" stop-color="#612A5F"/>
<stop offset="0.9736" stop-color="#853774"/>
<stop offset="1" stop-color="#893976"/>
</linearGradient>
<linearGradient id="paint22_linear" x1="389.677" y1="289.706" x2="394.526" y2="289.706" gradientUnits="userSpaceOnUse">
<stop stop-color="#FFC444"/>
<stop offset="0.9964" stop-color="#F36F56"/>
</linearGradient>
<linearGradient id="paint23_linear" x1="373.423" y1="310.105" x2="365.903" y2="236.438" gradientUnits="userSpaceOnUse">
<stop offset="0.1" stop-color="#311944"/>
<stop offset="0.6853" stop-color="#6D2F66"/>
<stop offset="1" stop-color="#893976"/>
</linearGradient>
<linearGradient id="paint24_linear" x1="410.941" y1="340.628" x2="355.774" y2="307.711" gradientUnits="userSpaceOnUse">
<stop stop-color="#311944"/>
<stop offset="1" stop-color="#893976"/>
</linearGradient>
<linearGradient id="paint25_linear" x1="359.412" y1="299.343" x2="374.934" y2="327.235" gradientUnits="userSpaceOnUse">
<stop stop-color="#0F456B"/>
<stop offset="1" stop-color="#0F456B"/>
</linearGradient>
<linearGradient id="paint26_linear" x1="403.288" y1="267.198" x2="408.762" y2="345.913" gradientUnits="userSpaceOnUse">
<stop offset="0.1" stop-color="#311944"/>
<stop offset="0.6853" stop-color="#6D2F66"/>
<stop offset="1" stop-color="#893976"/>
</linearGradient>
<linearGradient id="paint27_linear" x1="392.132" y1="311.726" x2="435.956" y2="347.91" gradientUnits="userSpaceOnUse">
<stop stop-color="#311944"/>
<stop offset="1" stop-color="#0F456B"/>
</linearGradient>
<linearGradient id="paint28_linear" x1="380.22" y1="307.214" x2="399.689" y2="306.404" gradientUnits="userSpaceOnUse">
<stop offset="0.1" stop-color="#311944"/>
<stop offset="0.6853" stop-color="#6D2F66"/>
<stop offset="1" stop-color="#893976"/>
</linearGradient>
<linearGradient id="paint29_linear" x1="410.53" y1="368.172" x2="404.635" y2="297.185" gradientUnits="userSpaceOnUse">
<stop offset="0.1" stop-color="#311944"/>
<stop offset="0.267" stop-color="#371B47"/>
<stop offset="0.4803" stop-color="#462150"/>
<stop offset="0.7186" stop-color="#612A5F"/>
<stop offset="0.9736" stop-color="#853774"/>
<stop offset="1" stop-color="#893976"/>
</linearGradient>
<linearGradient id="paint30_linear" x1="413.827" y1="384.621" x2="403.824" y2="286.64" gradientUnits="userSpaceOnUse">
<stop stop-color="#0F456B"/>
<stop offset="1" stop-color="#0F456B"/>
</linearGradient>
<linearGradient id="paint31_linear" x1="429.997" y1="333.067" x2="396.482" y2="314.294" gradientUnits="userSpaceOnUse">
<stop stop-color="#FFC444"/>
<stop offset="0.9964" stop-color="#F36F56"/>
</linearGradient>
<linearGradient id="paint32_linear" x1="398.995" y1="318.793" x2="433.704" y2="332.102" gradientUnits="userSpaceOnUse">
<stop stop-color="#FFC444"/>
<stop offset="0.9964" stop-color="#F36F56"/>
</linearGradient>
<linearGradient id="paint33_linear" x1="406.188" y1="308.54" x2="403.619" y2="277.593" gradientUnits="userSpaceOnUse">
<stop stop-color="#FFC444"/>
<stop offset="0.9964" stop-color="#F36F56"/>
</linearGradient>
<linearGradient id="paint34_linear" x1="345.961" y1="182.593" x2="345.961" y2="151.915" gradientUnits="userSpaceOnUse">
<stop stop-color="#FFC444"/>
<stop offset="0.9964" stop-color="#F36F56"/>
</linearGradient>
<linearGradient id="paint35_linear" x1="352.601" y1="173.326" x2="340.542" y2="140.507" gradientUnits="userSpaceOnUse">
<stop stop-color="#444B8C"/>
<stop offset="0.9964" stop-color="#3E4177"/>
</linearGradient>
<linearGradient id="paint36_linear" x1="324.15" y1="163.845" x2="352.398" y2="147.358" gradientUnits="userSpaceOnUse">
<stop stop-color="#FFC444"/>
<stop offset="0.9964" stop-color="#F36F56"/>
</linearGradient>
<linearGradient id="paint37_linear" x1="340.377" y1="156.358" x2="337.986" y2="193.89" gradientUnits="userSpaceOnUse">
<stop stop-color="#444B8C"/>
<stop offset="0.9964" stop-color="#26264F"/>
</linearGradient>
<linearGradient id="paint38_linear" x1="347.802" y1="231.088" x2="347.802" y2="146.831" gradientUnits="userSpaceOnUse">
<stop stop-color="#444B8C"/>
<stop offset="0.9964" stop-color="#26264F"/>
</linearGradient>
<linearGradient id="paint39_linear" x1="167.138" y1="409.146" x2="149.727" y2="391.421" gradientUnits="userSpaceOnUse">
<stop stop-color="#444B8C"/>
<stop offset="0.9964" stop-color="#3E4177"/>
</linearGradient>
<linearGradient id="paint40_linear" x1="28.6309" y1="385.593" x2="18.5736" y2="375.354" gradientUnits="userSpaceOnUse">
<stop stop-color="#444B8C"/>
<stop offset="0.9964" stop-color="#3E4177"/>
</linearGradient>
<linearGradient id="paint41_linear" x1="207.142" y1="417.587" x2="163.29" y2="418.456" gradientUnits="userSpaceOnUse">
<stop stop-color="#444B8C"/>
<stop offset="0.9964" stop-color="#3E4177"/>
</linearGradient>
<linearGradient id="paint42_linear" x1="137.345" y1="368.666" x2="178.758" y2="451.828" gradientUnits="userSpaceOnUse">
<stop stop-color="#EBEFF2"/>
<stop offset="0.9946" stop-color="#B7C0CE"/>
</linearGradient>
<linearGradient id="paint43_linear" x1="63.1562" y1="399.082" x2="28.0287" y2="399.779" gradientUnits="userSpaceOnUse">
<stop stop-color="#444B8C"/>
<stop offset="0.9964" stop-color="#3E4177"/>
</linearGradient>
<linearGradient id="paint44_linear" x1="5.04372" y1="357.11" x2="40.5424" y2="428.396" gradientUnits="userSpaceOnUse">
<stop stop-color="#EBEFF2"/>
<stop offset="0.9946" stop-color="#B7C0CE"/>
</linearGradient>
<linearGradient id="paint45_linear" x1="399.809" y1="409.457" x2="346.357" y2="410.517" gradientUnits="userSpaceOnUse">
<stop stop-color="#444B8C"/>
<stop offset="0.9964" stop-color="#3E4177"/>
</linearGradient>
<linearGradient id="paint46_linear" x1="317.371" y1="354.97" x2="364.393" y2="449.397" gradientUnits="userSpaceOnUse">
<stop stop-color="#444B8C"/>
<stop offset="0.9964" stop-color="#3E4177"/>
</linearGradient>
<linearGradient id="paint47_linear" x1="365.188" y1="410.56" x2="337.644" y2="411.106" gradientUnits="userSpaceOnUse">
<stop stop-color="#444B8C"/>
<stop offset="0.9964" stop-color="#3E4177"/>
</linearGradient>
<linearGradient id="paint48_linear" x1="188.505" y1="483.058" x2="243.683" y2="291.171" gradientUnits="userSpaceOnUse">
<stop offset="0.00359712" stop-color="#218EDD"/>
<stop offset="1" stop-color="#218EDD"/>
</linearGradient>
<linearGradient id="paint49_linear" x1="316.71" y1="440.294" x2="317.74" y2="321.706" gradientUnits="userSpaceOnUse">
<stop offset="0.00359712" stop-color="#CDD1F6"/>
<stop offset="1" stop-color="#218EDD"/>
</linearGradient>
<linearGradient id="paint50_linear" x1="369.612" y1="35.3887" x2="377.429" y2="-49.2848" gradientUnits="userSpaceOnUse">
<stop offset="0.00359712" stop-color="#CDD1F6"/>
<stop offset="1" stop-color="#9571F6"/>
</linearGradient>
<linearGradient id="paint51_linear" x1="371.843" y1="35.5917" x2="379.66" y2="-49.0822" gradientUnits="userSpaceOnUse">
<stop offset="0.00359712" stop-color="#CDD1F6"/>
<stop offset="1" stop-color="#9571F6"/>
</linearGradient>
<linearGradient id="paint52_linear" x1="78.6933" y1="460.98" x2="78.6933" y2="316.808" gradientUnits="userSpaceOnUse">
<stop offset="0.00359712" stop-color="#E38DDD"/>
<stop offset="1" stop-color="#9571F6"/>
</linearGradient>
<linearGradient id="paint53_linear" x1="126.059" y1="444.489" x2="16.3051" y2="332.749" gradientUnits="userSpaceOnUse">
<stop offset="0.00359712" stop-color="#E38DDD"/>
<stop offset="1" stop-color="#9571F6"/>
</linearGradient>
<linearGradient id="paint54_linear" x1="138.173" y1="310.285" x2="331.994" y2="306.442" gradientUnits="userSpaceOnUse">
<stop stop-color="#444B8C"/>
<stop offset="0.9964" stop-color="#3E4177"/>
</linearGradient>
<linearGradient id="paint55_linear" x1="165.705" y1="308.905" x2="332.408" y2="308.905" gradientUnits="userSpaceOnUse">
<stop stop-color="#444B8C"/>
<stop offset="0.9964" stop-color="#3E4177"/>
</linearGradient>
<linearGradient id="paint56_linear" x1="39.1128" y1="310.743" x2="103.292" y2="309.471" gradientUnits="userSpaceOnUse">
<stop stop-color="#444B8C"/>
<stop offset="0.9964" stop-color="#3E4177"/>
</linearGradient>
<linearGradient id="paint57_linear" x1="85.4091" y1="315.183" x2="149.152" y2="313.92" gradientUnits="userSpaceOnUse">
<stop stop-color="#444B8C"/>
<stop offset="0.9964" stop-color="#3E4177"/>
</linearGradient>
<linearGradient id="paint58_linear" x1="148.236" y1="340.6" x2="145.347" y2="337.655" gradientUnits="userSpaceOnUse">
<stop stop-color="#EBEFF2"/>
<stop offset="0.9946" stop-color="#B7C0CE"/>
</linearGradient>
<linearGradient id="paint59_linear" x1="116.579" y1="343.691" x2="90.611" y2="317.254" gradientUnits="userSpaceOnUse">
<stop stop-color="#EBEFF2"/>
<stop offset="0.9946" stop-color="#B7C0CE"/>
</linearGradient>
<linearGradient id="paint60_linear" x1="81.5466" y1="327.953" x2="55.6276" y2="301.565" gradientUnits="userSpaceOnUse">
<stop stop-color="#EBEFF2"/>
<stop offset="0.9946" stop-color="#B7C0CE"/>
</linearGradient>
<linearGradient id="paint61_linear" x1="136.254" y1="340.915" x2="99.0975" y2="303.086" gradientUnits="userSpaceOnUse">
<stop offset="0.00359712" stop-color="#E38DDD"/>
<stop offset="1" stop-color="#9571F6"/>
</linearGradient>
<linearGradient id="paint62_linear" x1="157.894" y1="357.863" x2="120.738" y2="320.034" gradientUnits="userSpaceOnUse">
<stop offset="0.00359712" stop-color="#E38DDD"/>
<stop offset="1" stop-color="#9571F6"/>
</linearGradient>
<linearGradient id="paint63_linear" x1="116.285" y1="243.287" x2="241.855" y2="216.41" gradientUnits="userSpaceOnUse">
<stop offset="0.1" stop-color="#311944"/>
<stop offset="0.267" stop-color="#371B47"/>
<stop offset="0.4803" stop-color="#462150"/>
<stop offset="0.7186" stop-color="#612A5F"/>
<stop offset="0.9736" stop-color="#853774"/>
<stop offset="1" stop-color="#893976"/>
</linearGradient>
<linearGradient id="paint64_linear" x1="101.948" y1="297.293" x2="101.948" y2="150.654" gradientUnits="userSpaceOnUse">
<stop stop-color="#FCB148"/>
<stop offset="0.0521" stop-color="#FDBA46"/>
<stop offset="0.1424" stop-color="#FFC244"/>
<stop offset="0.3183" stop-color="#FFC444"/>
<stop offset="0.4849" stop-color="#FDB946"/>
<stop offset="0.7754" stop-color="#F99C4D"/>
<stop offset="0.8658" stop-color="#F8924F"/>
<stop offset="1" stop-color="#F8924F"/>
</linearGradient>
<linearGradient id="paint65_linear" x1="88.6296" y1="437.756" x2="78.4523" y2="445.004" gradientUnits="userSpaceOnUse">
<stop stop-color="#444B8C"/>
<stop offset="0.9964" stop-color="#26264F"/>
</linearGradient>
<linearGradient id="paint66_linear" x1="74.0081" y1="472.973" x2="78.1182" y2="441.822" gradientUnits="userSpaceOnUse">
<stop offset="0.1" stop-color="#311944"/>
<stop offset="0.267" stop-color="#371B47"/>
<stop offset="0.4803" stop-color="#462150"/>
<stop offset="0.7186" stop-color="#612A5F"/>
<stop offset="0.9736" stop-color="#853774"/>
<stop offset="1" stop-color="#893976"/>
</linearGradient>
<linearGradient id="paint67_linear" x1="87.8305" y1="436.634" x2="77.6532" y2="443.882" gradientUnits="userSpaceOnUse">
<stop stop-color="#444B8C"/>
<stop offset="0.9964" stop-color="#26264F"/>
</linearGradient>
<linearGradient id="paint68_linear" x1="156.186" y1="442.681" x2="147.228" y2="451.22" gradientUnits="userSpaceOnUse">
<stop stop-color="#444B8C"/>
<stop offset="0.9964" stop-color="#26264F"/>
</linearGradient>
<linearGradient id="paint69_linear" x1="183.599" y1="245.565" x2="60.5687" y2="511.592" gradientUnits="userSpaceOnUse">
<stop offset="0.1" stop-color="#311944"/>
<stop offset="0.267" stop-color="#371B47"/>
<stop offset="0.4803" stop-color="#462150"/>
<stop offset="0.7186" stop-color="#612A5F"/>
<stop offset="0.9736" stop-color="#853774"/>
<stop offset="1" stop-color="#893976"/>
</linearGradient>
<linearGradient id="paint70_linear" x1="126.685" y1="297.293" x2="126.685" y2="150.654" gradientUnits="userSpaceOnUse">
<stop stop-color="#FCB148"/>
<stop offset="0.0521" stop-color="#FDBA46"/>
<stop offset="0.1424" stop-color="#FFC244"/>
<stop offset="0.3183" stop-color="#FFC444"/>
<stop offset="0.4849" stop-color="#FDB946"/>
<stop offset="0.7754" stop-color="#F99C4D"/>
<stop offset="0.8658" stop-color="#F8924F"/>
<stop offset="1" stop-color="#F8924F"/>
</linearGradient>
<linearGradient id="paint71_linear" x1="155.227" y1="441.675" x2="146.269" y2="450.213" gradientUnits="userSpaceOnUse">
<stop stop-color="#444B8C"/>
<stop offset="0.9964" stop-color="#26264F"/>
</linearGradient>
<linearGradient id="paint72_linear" x1="121.358" y1="212.429" x2="121.358" y2="167.247" gradientUnits="userSpaceOnUse">
<stop offset="0.1" stop-color="#311944"/>
<stop offset="0.267" stop-color="#371B47"/>
<stop offset="0.4803" stop-color="#462150"/>
<stop offset="0.7186" stop-color="#612A5F"/>
<stop offset="0.9736" stop-color="#853774"/>
<stop offset="1" stop-color="#893976"/>
</linearGradient>
<linearGradient id="paint73_linear" x1="129.915" y1="212.429" x2="129.915" y2="167.247" gradientUnits="userSpaceOnUse">
<stop offset="0.1" stop-color="#311944"/>
<stop offset="0.267" stop-color="#371B47"/>
<stop offset="0.4803" stop-color="#462150"/>
<stop offset="0.7186" stop-color="#612A5F"/>
<stop offset="0.9736" stop-color="#853774"/>
<stop offset="1" stop-color="#893976"/>
</linearGradient>
<linearGradient id="paint74_linear" x1="89.3487" y1="247.575" x2="98.6159" y2="247.575" gradientUnits="userSpaceOnUse">
<stop stop-color="#FF9085"/>
<stop offset="1" stop-color="#FB6FBB"/>
</linearGradient>
<linearGradient id="paint75_linear" x1="95.5562" y1="259.014" x2="167.672" y2="259.014" gradientUnits="userSpaceOnUse">
<stop stop-color="#FCB148"/>
<stop offset="0.0521" stop-color="#FDBA46"/>
<stop offset="0.1424" stop-color="#FFC244"/>
<stop offset="0.3183" stop-color="#FFC444"/>
<stop offset="0.4849" stop-color="#FDB946"/>
<stop offset="0.7754" stop-color="#F99C4D"/>
<stop offset="0.8658" stop-color="#F8924F"/>
<stop offset="1" stop-color="#F8924F"/>
</linearGradient>
<linearGradient id="paint76_linear" x1="178.162" y1="297.292" x2="178.162" y2="150.654" gradientUnits="userSpaceOnUse">
<stop stop-color="#FCB148"/>
<stop offset="0.0521" stop-color="#FDBA46"/>
<stop offset="0.1424" stop-color="#FFC244"/>
<stop offset="0.3183" stop-color="#FFC444"/>
<stop offset="0.4849" stop-color="#FDB946"/>
<stop offset="0.7754" stop-color="#F99C4D"/>
<stop offset="0.8658" stop-color="#F8924F"/>
<stop offset="1" stop-color="#F8924F"/>
</linearGradient>
<linearGradient id="paint77_linear" x1="135.905" y1="240.776" x2="164.108" y2="240.776" gradientUnits="userSpaceOnUse">
<stop stop-color="#FF9085"/>
<stop offset="1" stop-color="#FB6FBB"/>
</linearGradient>
<linearGradient id="paint78_linear" x1="230.758" y1="218.473" x2="238.021" y2="226.395" gradientUnits="userSpaceOnUse">
<stop stop-color="#FFC444"/>
<stop offset="0.9964" stop-color="#F36F56"/>
</linearGradient>
</defs>
</svg>
