<svg width="92" height="113" viewBox="0 0 92 113" fill="none" xmlns="http://www.w3.org/2000/svg">
<path d="M70.3508 32.5729V45.8939L66.7431 49.6999L70.3508 53.5059L66.7431 57.3119L70.3508 61.1178L66.7431 64.9238L70.3508 68.7298V74.4388L61.3315 80.1478L52.3121 74.4388V32.5729H70.3508Z" fill="#E4E4E3"/>
<path d="M57.7237 32.5729H61.3315V63.0208H57.7237V32.5729Z" fill="#CACAC9"/>
<path d="M57.7237 66.8269H61.3315V70.6329H57.7237V66.8269Z" fill="#CACAC9"/>
<path d="M84.7461 30.8081L81.1481 30.5317C81.1652 30.281 81.174 30.026 81.174 29.7736V26.8639H84.7817V29.7736C84.7817 30.1178 84.7698 30.4658 84.7461 30.8081Z" fill="#CACAC9"/>
<path d="M84.7817 23.0579H81.174V16.3425C81.1735 14.476 80.7001 12.6436 79.8029 11.035C78.9057 9.42638 77.6172 8.09997 76.0709 7.19309L69.4748 3.32715L71.2268 0L77.8229 3.86594C79.9315 5.10261 81.6885 6.91137 82.912 9.10498C84.1355 11.2986 84.781 13.7973 84.7817 16.3425V23.0579Z" fill="#CACAC9"/>
<path d="M45.0967 16.3422V29.7736C45.0967 30.622 45.3117 31.455 45.7196 32.1862C46.1274 32.9174 46.7132 33.5203 47.4162 33.9323L59.1413 40.8043C59.8113 41.197 60.5651 41.403 61.3315 41.403C62.0979 41.403 62.8516 41.197 63.5216 40.8043L75.2467 33.9323C75.9497 33.5203 76.5355 32.9174 76.9434 32.1862C77.3512 31.455 77.5663 30.622 77.5663 29.7736V16.3422C77.5663 15.4938 77.3512 14.6608 76.9434 13.9296C76.5355 13.1984 75.9497 12.5955 75.2467 12.1834L63.5216 5.31148C62.8516 4.91882 62.0979 4.71277 61.3315 4.71277C60.5651 4.71277 59.8113 4.91882 59.1413 5.31148L47.4162 12.1834C46.7132 12.5955 46.1274 13.1984 45.7196 13.9296C45.3117 14.6608 45.0967 15.4938 45.0967 16.3422Z" fill="#0093B9"/>
<path d="M61.3315 21.155C63.324 21.155 64.9392 19.451 64.9392 17.349C64.9392 15.247 63.324 13.543 61.3315 13.543C59.339 13.543 57.7237 15.247 57.7237 17.349C57.7237 19.451 59.339 21.155 61.3315 21.155Z" fill="#F3F2F2"/>
<path d="M64.9392 26.8639H57.7237C56.7275 26.8639 55.9199 27.7159 55.9199 28.7669C55.9199 29.8179 56.7275 30.6699 57.7237 30.6699H64.9392C65.9355 30.6699 66.7431 29.8179 66.7431 28.7669C66.7431 27.7159 65.9355 26.8639 64.9392 26.8639Z" fill="#067A98"/>
<path d="M45.0967 42.0879H48.7044V66.8269H45.0967V42.0879Z" fill="#CACAC9"/>
<path d="M23.4503 82.0509H29.8265C36.0889 82.0509 42.2653 83.589 47.8665 86.5436C49.3829 87.3434 51.0551 87.7599 52.7505 87.7599H66.7431C67.9391 87.7599 69.0862 88.2611 69.9319 89.1533C70.7776 90.0455 71.2527 91.2556 71.2527 92.5174C71.2527 93.7792 70.7776 94.9893 69.9319 95.8815C69.0862 96.7737 67.9391 97.2749 66.7431 97.2749H66.6319C67.8957 97.2749 69.1465 97.0064 70.3098 96.4854L85.3908 89.7297C85.9766 89.4706 86.6059 89.3382 87.2412 89.3405C87.8764 89.3427 88.5048 89.4795 89.089 89.7428C89.6732 90.0061 90.2014 90.3905 90.6421 90.8732C91.0828 91.3559 91.4272 91.9271 91.6547 92.5528C91.8922 93.1828 92.0094 93.8561 91.9994 94.534C91.9894 95.2119 91.8525 95.881 91.5966 96.5029C91.3406 97.1248 90.9706 97.6871 90.5079 98.1576C90.0452 98.6281 89.4989 98.9975 88.9004 99.2445L61.0347 110.453C54.0538 113.264 46.3215 113.174 39.4012 110.201L23.4503 103.213L16.2348 102.984V82.0509H23.4503Z" fill="#F8CAA8"/>
<path d="M0 80.1478H23.4503V106.79H0V80.1478Z" fill="#0093B9"/>
<path d="M64.828 95.3718H46.9005C45.9043 95.3718 45.0967 96.2238 45.0967 97.2748C45.0967 98.3258 45.9043 99.1778 46.9005 99.1778H64.828C65.8243 99.1778 66.6319 98.3258 66.6319 97.2748C66.6319 96.2238 65.8243 95.3718 64.828 95.3718Z" fill="#E99180"/>
<path d="M14.4309 97.2749H18.0387V101.081H14.4309V97.2749Z" fill="#5DB9D2"/>
</svg>
